<svg xmlns="http://www.w3.org/2000/svg" width="39.678" height="46.769" viewBox="0 0 39.678 46.769"><defs><style>.a{fill:none;stroke:#575756;stroke-linecap:round;stroke-miterlimit:10;}.b{fill:#fff;}</style></defs><g transform="translate(0.5 0.5)"><g transform="translate(0 0)"><g transform="translate(0.312 34.342)"><path class="a" d="M795.657,33.582l-.052-.052-.062.031c-1.466.665-2.745,1.227-3.878,1.726-5.043,2.2-6.925,3.026-6.925,5.75a4.079,4.079,0,0,0,3.92,3.92h30.526a4.079,4.079,0,0,0,3.92-3.92c0-2.724-1.882-3.556-6.924-5.75-1.133-.5-2.423-1.061-3.878-1.726l-.062-.031-.052.052" transform="translate(-784.74 -33.53)"/></g><ellipse class="a" cx="11.863" cy="14.889" rx="11.863" ry="14.889" transform="translate(7.652 4.928)"/><path class="a" d="M788.73,21.586v-7.9C788.73,6.406,796.715.5,803.993.5h0c7.278,0,14.223,5.906,14.223,13.184v7.9" transform="translate(-784.27 -0.5)"/><path class="a" d="M819.024,23.822h.593a1.93,1.93,0,0,0,1.934-1.934V16.274a1.93,1.93,0,0,0-1.934-1.934h-.593a1.93,1.93,0,0,0-1.934,1.934v5.6A1.939,1.939,0,0,0,819.024,23.822Z" transform="translate(-783.143 0.05)"/><path class="a" d="M786.374,23.822h.593a1.93,1.93,0,0,0,1.934-1.934V16.274a1.93,1.93,0,0,0-1.934-1.934h-.593a1.93,1.93,0,0,0-1.934,1.934v5.6A1.946,1.946,0,0,0,786.374,23.822Z" transform="translate(-784.44 0.05)"/><path class="a" d="M788.14,22.96a29.039,29.039,0,0,0,15.18,4.492" transform="translate(-784.293 0.392)"/></g><rect class="b" width="3.681" height="8.401" transform="translate(32.159 14.951)"/><rect class="b" width="3.681" height="8.401" transform="translate(2.62 14.951)"/></g></svg>