<svg xmlns="http://www.w3.org/2000/svg" width="49.8" height="57.344" viewBox="0 0 49.8 57.344"><defs><style>.a{fill:none;stroke:#626262;stroke-miterlimit:10;}</style></defs><g transform="translate(-976.5 -431.493)"><g transform="translate(977 432)"><path class="a" d="M683.127,7.946a24.406,24.406,0,0,0-42.306,22.042" transform="translate(-639.958 0.864)"/><path class="a" d="M642.583,30.2a24.473,24.473,0,0,0,11.435,8.6,8.147,8.147,0,0,1,4.175,3.272l3.336,5.3a.948.948,0,0,0,1.6,0l3.334-5.3a8.154,8.154,0,0,1,4.176-3.272A24.4,24.4,0,0,0,685.761,9.049" transform="translate(-637.93 8.52)"/><rect class="a" width="6.021" height="18.27" rx="3.01" transform="translate(21.389 19.526)"/><circle class="a" cx="3.01" cy="3.01" r="3.01" transform="translate(21.389 10.08)"/></g></g></svg>