<svg xmlns="http://www.w3.org/2000/svg" width="41.165" height="63.119" viewBox="0 0 41.165 63.119"><defs><style>.a{fill:#5a5b5e;}</style></defs><g transform="translate(-841.249 -147.296)"><path class="a" d="M861.832,147.3a20.583,20.583,0,1,0,20.582,20.582A20.605,20.605,0,0,0,861.832,147.3Zm0,40.143a19.56,19.56,0,1,1,19.561-19.561A19.582,19.582,0,0,1,861.832,187.439Z" transform="translate(0)"/><path class="a" d="M860.919,196.653a.722.722,0,0,1,.509.209l9.935,9.745a.76.76,0,0,0,1.29-.536l.207-20.173a.743.743,0,0,0-.355-.647.757.757,0,0,0-.746-.031,23.23,23.23,0,0,1-10.68,2.563,23.561,23.561,0,0,1-10.834-2.642.757.757,0,0,0-.744.023.747.747,0,0,0-.361.644V206.06a.754.754,0,0,0,.467.7.746.746,0,0,0,.82-.154l9.982-9.744A.729.729,0,0,1,860.919,196.653Zm-11.2,9.218-.439-.439.443.435Zm.448-.437V186.253l.442.208a24.7,24.7,0,0,0,10.474,2.345,24.272,24.272,0,0,0,10.309-2.266l.446-.207-.2,19.109-9.494-9.31a1.8,1.8,0,0,0-2.445,0Z" transform="translate(0.751 3.593)"/><g transform="translate(850.052 156.636)"><path class="a" d="M872.808,164.354a.79.79,0,0,0-.734-.544l-7.07-.142-.287-.007-.368-.008-2.537-7.3a.787.787,0,0,0-1.489,0l-2.537,7.3-.373.008-.186,0-7.166.145a.789.789,0,0,0-.46,1.417l5.628,4.267.508.4-.541,1.864-1.676,5.539a.776.776,0,0,0,.875,1,1.089,1.089,0,0,0,.294-.143l6.165-4.291.034.023.181-.125,6.342,4.415a.781.781,0,0,0,.455.14,1.07,1.07,0,0,0,.427-.174,1.082,1.082,0,0,0,.323-.4.791.791,0,0,0,0-.446l-2.237-7.4.158-.119-.012-.041,5.987-4.539a1.08,1.08,0,0,0,.3-.385A.791.791,0,0,0,872.808,164.354Zm-7.178,4.825a.794.794,0,0,0-.278.858l2.091,6.908-5.925-4.123a.791.791,0,0,0-.9,0l-5.925,4.123,2.09-6.9a.8.8,0,0,0-.278-.862l-.469-.355-.079-.06-5.2-3.945,7.193-.146a1.084,1.084,0,0,0,.776-.6l2.346-6.746,2.369,6.812a.8.8,0,0,0,.732.537l.484.009.354.008,6.377.129Z" transform="translate(-849.287 -155.824)"/></g></g></svg>