<svg xmlns="http://www.w3.org/2000/svg" width="35.285" height="35.286" viewBox="0 0 35.285 35.286"><defs><style>.a{fill:#fff;}</style></defs><g transform="matrix(0.695, -0.719, 0.719, 0.695, 0, 17.96)"><path class="a" d="M1.72,24.585c-2.443-3.1-2.1-7.2-.125-11.243a25.03,25.03,0,0,1,4.98-6.828,24.946,24.946,0,0,1,6.8-4.947c4.009-1.942,8.143-2.286,11.243.156a.88.88,0,0,1,.282,1.065,12.075,12.075,0,0,1-6.2,6.2.906.906,0,0,1-.971-.094l-2.161-1.66a.46.46,0,0,0-.344-.031A15.368,15.368,0,0,0,7.2,15.19c-.031.156-.031.25.063.343l1.629,2.193a.857.857,0,0,1,.125.94,11.821,11.821,0,0,1-6.232,6.2A.889.889,0,0,1,1.72,24.585Zm6.733-6.169a.286.286,0,0,0-.031-.344L6.762,15.91a.865.865,0,0,1-.094-.94,15.979,15.979,0,0,1,8.3-8.331.856.856,0,0,1,.94.126L18.1,8.425a.286.286,0,0,0,.344.031,11.344,11.344,0,0,0,5.888-5.887.29.29,0,0,0-.094-.375C21.419-.125,17.441.251,13.62,2.13A24.231,24.231,0,0,0,6.981,6.953a25.022,25.022,0,0,0-4.854,6.639c-1.973,4.04-2.161,7.579.063,10.617a.374.374,0,0,0,.407.125A11.15,11.15,0,0,0,8.453,18.416Z" transform="translate(0 0)"/></g></svg>