<svg id="Camada_1" data-name="Camada 1" xmlns="http://www.w3.org/2000/svg" viewBox="0 0 44 44"><defs><style>.cls-1{fill:none;stroke-width:2px;}.cls-1,.cls-2{stroke:#ff9ac1;}.cls-2{fill:#ff9ac1;}</style></defs><title>icones</title><g id="Elipse_76" data-name="Elipse 76"><circle class="cls-1" cx="22" cy="22" r="20.31"/></g><g id="_263091" data-name=" 263091"><g id="Agrupar_647" data-name="Agrupar 647"><path id="Caminho_501" data-name="Caminho 501" class="cls-2" d="M29.92,16.79a.48.48,0,0,0-.14-.34L24.9,11.58h0a.49.49,0,0,0-.34-.15H15.12a1,1,0,0,0-1,1.05v19a1,1,0,0,0,1,1.05H28.88a1,1,0,0,0,1-1.05V16.8Zm-4.87-3.67,3.19,3.19h-3a.21.21,0,0,1-.21-.21Zm3.88,18.4a0,0,0,0,1-.05.05H15.12a0,0,0,0,1,0-.05h0v-19a.06.06,0,0,1,0-.06h8.94V16.1a1.2,1.2,0,0,0,1.2,1.2h3.68V31.52Z"/></g></g></svg>