<svg id="Camada_1" data-name="Camada 1" xmlns="http://www.w3.org/2000/svg" viewBox="0 0 44 44"><defs><style>.cls-1{fill:none;stroke:#f8a4a4;stroke-width:2px;}.cls-2{fill:#f8a4a4;}</style></defs><title>icones</title><g id="Elipse_76" data-name="Elipse 76"><circle class="cls-1" cx="22" cy="22" r="20.31"/></g><path class="cls-2" d="M14.55,26.28c-.2,0-.28-.07-.28-.22V19.28h2.2a2.46,2.46,0,0,1,2.74,2.55,2.43,2.43,0,0,1-2.66,2.49,5.21,5.21,0,0,1-1.37-.19v2.15Zm.63-2.88a5.1,5.1,0,0,0,1.23.13,1.74,1.74,0,1,0,0-3.47H15.18Z"/><path class="cls-2" d="M22.14,26.28c-1,0-1.51-.46-1.51-1.75V19.28H23a3.25,3.25,0,0,1,3.33,3.5A3.25,3.25,0,0,1,23,26.28Zm.75-.78a2.46,2.46,0,0,0,2.5-2.72,2.46,2.46,0,0,0-2.5-2.72H21.54v4.4c0,.79.17,1,.71,1Z"/><path class="cls-2" d="M28.14,26.28c-.2,0-.28-.06-.28-.22V19.28h4c.14,0,.2.08.2.26a2.31,2.31,0,0,1-.06.52H28.77v2.4h2.49c.16,0,.22.07.22.28v.49H28.77v3.05Z"/></svg>