<svg id="Camada_1" data-name="Camada 1" xmlns="http://www.w3.org/2000/svg" viewBox="0 0 44 44"><defs><style>.cls-1{fill:none;stroke:#d2a6f8;stroke-width:2px;}.cls-2{fill:#d2a6f8;}</style></defs><title>icones</title><g id="Elipse_76" data-name="Elipse 76"><circle class="cls-1" cx="22" cy="22" r="20.31"/></g><path class="cls-2" d="M14.55,26.28c-.2,0-.28-.07-.28-.22V19.28h2.2a2.46,2.46,0,0,1,2.74,2.55,2.43,2.43,0,0,1-2.66,2.49,5.21,5.21,0,0,1-1.37-.19v2.15Zm.63-2.88a5.1,5.1,0,0,0,1.23.13,1.74,1.74,0,1,0,0-3.47H15.18Z"/><path class="cls-2" d="M20.93,26.28c-.2,0-.28-.07-.28-.22V19.28h2.2a2.46,2.46,0,0,1,2.74,2.55,2.43,2.43,0,0,1-2.66,2.49,5.21,5.21,0,0,1-1.37-.19v2.15Zm.63-2.88a5.1,5.1,0,0,0,1.23.13,1.74,1.74,0,1,0,0-3.47H21.56Z"/><path class="cls-2" d="M28.84,26.28c-.2,0-.28-.06-.28-.22v-6h-2c-.14,0-.21-.08-.21-.26a2.4,2.4,0,0,1,.07-.52h5c.16,0,.23.08.23.29v.49H29.47v6.22Z"/></svg>