<svg id="Camada_1" data-name="Camada 1" xmlns="http://www.w3.org/2000/svg" viewBox="0 0 152.2 145.63"><defs><style>.cls-1{fill:#41beff;}</style></defs><title>icones</title><path class="cls-1" d="M150.64,72.81c0-7.56-9.87-13.46-12.09-20.29-2.29-7.07,2.14-17.64-2.14-23.52s-15.78-5-21.72-9.3S106.21,4.2,99.14,1.9c-6.82-2.21-15.48,5.27-23,5.27S59.89-.31,53.06,1.9C46,4.2,43.4,15.41,37.52,19.7S20.12,23.05,15.8,29,16,45.45,13.65,52.52C11.44,59.34,1.56,65.25,1.56,72.81s9.88,13.47,12.09,20.3c2.3,7.07-2.14,17.64,2.15,23.52s15.77,5,21.72,9.3S46,141.42,53.06,143.72c6.83,2.22,15.48-5.26,23-5.26s16.22,7.48,23,5.26c7.07-2.29,9.66-13.51,15.55-17.79s17.39-3.35,21.72-9.3-.16-16.45,2.14-23.52C140.77,86.28,150.64,80.38,150.64,72.81Zm-44-11L73.81,94.6A7.7,7.7,0,0,1,63,94.6L45.4,76.94A7.62,7.62,0,0,1,56.17,66.18L68.38,78.46,95.83,51a7.66,7.66,0,0,1,10.77,0l.13.14h0A7.54,7.54,0,0,1,106.6,61.81Z"/></svg>