<svg id="Camada_1" data-name="Camada 1" xmlns="http://www.w3.org/2000/svg" viewBox="0 0 44 44"><defs><style>.cls-1{fill:#7af163;}.cls-2{fill:none;stroke:#b1f8a4;stroke-width:2px;}</style></defs><title>icones</title><path class="cls-1" d="M19.31,25.85c-.27.36-.49.5-.66.5a.25.25,0,0,1-.24-.14l-2.14-2.84a8.74,8.74,0,0,0-1.92,2.91h-.69c-.17,0-.25-.05-.25-.17a.45.45,0,0,1,0-.17,10,10,0,0,1,2.3-3.26l-2.22-2.95c.27-.36.49-.5.66-.5a.25.25,0,0,1,.24.14l2,2.67a8.74,8.74,0,0,0,1.8-2.76h.69q.24,0,.24.18a.45.45,0,0,1,0,.17A9.71,9.71,0,0,1,17,22.74Z"/><path class="cls-1" d="M22.2,26.28c-1,0-1.52-.46-1.52-1.74V19.32a2.15,2.15,0,0,1,.64-.1c.19,0,.27.07.27.21v5c0,.79.22,1.05.72,1.05h2.41c.15,0,.22.08.22.28v.49Z"/><path class="cls-1" d="M30.37,20.35a.45.45,0,0,1,.07.24c0,.09-.07.16-.19.23a1.47,1.47,0,0,1-.61.17,1.59,1.59,0,0,0-1.57-1c-.79,0-1.35.44-1.35,1.11s.45,1,1.7,1.4c1.48.48,2.09,1.1,2.09,2.06,0,1.12-.93,1.88-2.41,1.88-1.17,0-2-.45-2-.77a.79.79,0,0,1,.12-.41,4.21,4.21,0,0,0,1.8.4c1.08,0,1.6-.45,1.6-1.06s-.45-1-1.53-1.31c-1.45-.39-2.27-1.06-2.27-2.17a2,2,0,0,1,2.28-1.92A2.56,2.56,0,0,1,30.37,20.35Z"/><g id="Elipse_76" data-name="Elipse 76"><circle class="cls-2" cx="22" cy="22" r="20.31"/></g></svg>