<?xml version="1.0" encoding="UTF-8"?> <svg xmlns="http://www.w3.org/2000/svg" viewBox="0 0 100 100"><defs><style>.cls-1{fill:#6d6e71;}</style></defs><title>Climatizacao</title><g id="OUTLINES"><path class="cls-1" d="M81.17,66.39a2.39,2.39,0,0,1-1.74-.75A15.84,15.84,0,0,1,78,64a7.5,7.5,0,0,0-2.66-2.33,1.15,1.15,0,0,0-1.24.06,4.43,4.43,0,0,1-1.78.56,24,24,0,0,1-10.86-.91,5.66,5.66,0,0,1-3.77-4.84l0-.44v.38s-.06,0-.07.05a7.14,7.14,0,0,0,.14,2.06l.09.36a.38.38,0,0,1-.22.45l-.36.13A16.8,16.8,0,0,0,54,61.47c-.84.72-1.45,1.33-1.89,1.78-.77.77-1.11,1.12-1.77,1.2-5.44.66-6.46-2.36-7.5-7.41-.65-3.19-1.39-6.8-4.45-8.82-2.61-1.71-6.58-2.08-12.15-1.12l-1.78.31a.37.37,0,0,1-.41-.22.38.38,0,0,1,.12-.45l1.46-1.08c1.94-1.43,5.49-2.54,9.29-2.9,3.59-.33,3.59-.33,9.63,1.05l.43.11c1.25.34,2.27.61,3-1.11a2.05,2.05,0,0,0-.06-2.13c-.79-1-2.93-1.39-6-1A12.88,12.88,0,0,1,37,39.58l-.12,0A7.07,7.07,0,0,1,34.24,38a.38.38,0,0,1,.47-.58,14.44,14.44,0,0,0,2.57.63,16.34,16.34,0,0,0,3.13-.08,17,17,0,0,0,3.21-.76,11.71,11.71,0,0,1,6.27-.55,9.68,9.68,0,0,1,6.84,4.15l.23.29a1.61,1.61,0,0,0,1.36.7,1.48,1.48,0,0,0,1.15-.87,1.85,1.85,0,0,0,0-1.67c-.46-1-2-2.51-6.44-3.62l-.18,0-.37-.15a13,13,0,0,1-3.72-2.12.37.37,0,0,1-.07-.5.37.37,0,0,1,.49-.11A31.8,31.8,0,0,0,53,33.89a29.33,29.33,0,0,0,3.55.31c4.58.13,7.36,1,8.5,2.66.8,1.17.84,2.69.15,4.67-.08.2-.07.35,0,.42.3.23,1.5-.54,3.16-1.62l2.53-1.74a.38.38,0,0,1,.51.54l-1.75,2.24a9.68,9.68,0,0,1-1.3,1.2h0l0,.1h0c.16,0,.87-.13,1.75-.29l1.73-.44a.38.38,0,0,1,.33.66L71,43.55c.42.34,4.59,3.23,6,4.49a3.65,3.65,0,0,1,1.3,2.6l-.2.4.22-.3c.28.21,6.72,5.09,9.9,8.82a.78.78,0,0,1,.24.33l.1.23a.37.37,0,0,1,0,.18A2,2,0,0,1,87,62.06a10.8,10.8,0,0,1-.73,3.09l-.22.41a.38.38,0,0,1-.24.19.36.36,0,0,1-.3,0l-.39-.26a4.21,4.21,0,0,1-.4-.28A5.89,5.89,0,0,0,82.35,64l-.08,0c.09.14.42.74.54,1l.22.4a.33.33,0,0,1,0,.29.35.35,0,0,1-.19.22l-.41.2A2.9,2.9,0,0,1,81.17,66.39Zm-6.35-5.63a1.79,1.79,0,0,1,.91.26,8.33,8.33,0,0,1,2.88,2.52A16,16,0,0,0,80,65.12a1.76,1.76,0,0,0,2.16.28l.05,0,0,0c-.26-.49-.47-.86-.5-.91a.8.8,0,0,1,0-.89.82.82,0,0,1,.83-.32,6.59,6.59,0,0,1,2.68,1.35l.37.25,0,0,0,0a9.43,9.43,0,0,0,.61-2.75.8.8,0,0,1,.57-.71,1.24,1.24,0,0,0,1-1.06v0a.37.37,0,0,1-.06-.1l-.11-.1c-3.13-3.67-9.51-8.5-9.78-8.71a.83.83,0,0,1-.32-.73,2.91,2.91,0,0,0-1.07-2c-1.35-1.26-5.67-4.25-5.86-4.38a.79.79,0,0,1-.35-.69.9.9,0,0,1,.09-.33.31.31,0,0,1,.09-.11l-.13,0c-.92.17-1.64.28-1.78.3a.8.8,0,0,1-.88-.48.79.79,0,0,1,.25-1,10.18,10.18,0,0,0,1.19-1.09l.24-.31-.54.37c-2.35,1.53-3.32,2.16-4,1.58a1,1,0,0,1-.27-1.25c.61-1.74.59-3-.06-4-1-1.45-3.58-2.22-7.9-2.34a30,30,0,0,1-3.68-.33L52,34.39c.47.22.79.33.79.33l.33.13h0c4.88,1.19,6.51,2.86,7,4.06a2.59,2.59,0,0,1,0,2.32A2.15,2.15,0,0,1,58.4,42.5a2.33,2.33,0,0,1-2-1l-.23-.3a9.07,9.07,0,0,0-6.37-3.87,11,11,0,0,0-5.93.53,18.47,18.47,0,0,1-3.34.79,17.42,17.42,0,0,1-3.32.07l-.62-.11a4.61,4.61,0,0,0,.51.19l.09,0a12.27,12.27,0,0,0,4.6.1c3.47-.47,5.74,0,6.73,1.27a2.7,2.7,0,0,1,.15,2.88c-1,2.32-2.62,1.87-3.81,1.55l-.47-.12c-5.93-1.35-5.93-1.35-9.4-1-3.67.34-7.08,1.4-8.92,2.75l-.18.14.23,0c5.76-1,9.91-.59,12.68,1.24,3.32,2.18,4.09,6,4.78,9.29,1,4.75,1.76,7.4,6.67,6.81.36,0,.56-.21,1.33-1,.45-.46,1.07-1.08,2-1.84A17.29,17.29,0,0,1,57,58.83h0v0a7.12,7.12,0,0,1-.15-2.31.79.79,0,0,1,.8-.73h0a.8.8,0,0,1,.79.76,4.89,4.89,0,0,0,3.25,4.18,23.41,23.41,0,0,0,10.55.87,3.54,3.54,0,0,0,1.51-.48A2.28,2.28,0,0,1,74.82,60.76Z"></path><path class="cls-1" d="M21.57,60.68c-3.57,0-6.86-2.35-9.51-6.81-.23-.38-.38-.58-.43-.66a.76.76,0,0,1-.16-.68.78.78,0,0,1,.45-.56,2.38,2.38,0,0,1,1-.2,2.05,2.05,0,0,1,1.09.3c1,.61,1.92.9,5.09,1.09a6.25,6.25,0,0,0,4.19-1.24,17.41,17.41,0,0,1,2.45-1.3c2.85-1.2,3.79-1.55,6.53-1.5,3.06,0,6.87,1.31,7.64,7.42l0,.2a1.49,1.49,0,0,1-.65,1.42.92.92,0,0,1-1,0,6,6,0,0,0-.51-.33c-3.93-2.26-5.93-1.16-8.69.37a18.83,18.83,0,0,1-5.77,2.34A8.49,8.49,0,0,1,21.57,60.68Zm-8.69-8.16a1.76,1.76,0,0,0-.65.13l0,.1a4.79,4.79,0,0,1,.49.74c2.51,4.21,5.58,6.44,8.87,6.44a7.91,7.91,0,0,0,1.52-.15,17.71,17.71,0,0,0,5.51-2.24c2.79-1.54,5.17-2.85,9.46-.38.18.11.35.21.57.37a.18.18,0,0,0,.21,0,.78.78,0,0,0,.31-.68h0l0-.2c-.7-5.57-4.13-6.76-6.89-6.77-2.61,0-3.44.27-6.24,1.44a17.71,17.71,0,0,0-2.35,1.25A7,7,0,0,1,19,53.91c-3.33-.2-4.33-.52-5.44-1.2A1.23,1.23,0,0,0,12.88,52.52Z"></path><path class="cls-1" d="M31.14,67.36a16.08,16.08,0,0,1-7.62-1.56,5.42,5.42,0,0,1-.81-.53,1,1,0,0,1-.38-.76,1,1,0,0,1,.43-.81,1.57,1.57,0,0,1,.86-.29,2.71,2.71,0,0,1,.63,0C27,64,29.14,63,31.17,62.1c.57-.26,1-.47,1.54-.67l.11,0c2.14-.85,7.14-2.84,8.3-.18a3.39,3.39,0,0,1-.14,3,5,5,0,0,1-3.45,2.47A30.67,30.67,0,0,1,31.14,67.36Zm-7.23-3.21h-.22a.86.86,0,0,0-.47.13.29.29,0,0,0-.14.23.19.19,0,0,0,.1.16,4.46,4.46,0,0,0,.7.46,15.34,15.34,0,0,0,7.26,1.47,29.89,29.89,0,0,0,6.24-.7,4.26,4.26,0,0,0,2.94-2.08h0a2.67,2.67,0,0,0,.11-2.32c-.86-2-5.57-.13-7.33.57l-.11.05c-.48.19-1,.4-1.44.63-2.21,1-4.42,2-7.44,1.4Z"></path><path class="cls-1" d="M75.79,52.47a18,18,0,0,1-4.89-1.09l3,2.43A3.64,3.64,0,0,0,75.79,52.47Z"></path></g></svg> 