<?xml version="1.0" encoding="UTF-8"?> <svg xmlns="http://www.w3.org/2000/svg" viewBox="0 0 100 100"><defs><style>.cls-1{fill:#6d6e71;}</style></defs><title>Climatizacao</title><g id="OUTLINES"><path class="cls-1" d="M24.91,62.75a8.22,8.22,0,0,1-1.12-.07c-1.77-.22-3-.91-3.36-2a.51.51,0,0,1,0-.13V54.22c0-14.58,7.27-24.76,17.68-24.76a14.7,14.7,0,0,1,7.19,1.83l-.36.65a14.06,14.06,0,0,0-6.83-1.73c-10.13,0-16.93,9.65-16.93,24v6.29c.32.73,1.31,1.25,2.72,1.43,2.23.27,4.77-.4,5.65-1.48V54c0-8.78,2.8-14.48,7.49-15.25l.12.74c-4.3.71-6.86,6.13-6.86,14.51v6.56a.44.44,0,0,1-.07.22C29.29,62.1,27,62.75,24.91,62.75Z"></path><path class="cls-1" d="M26.6,39.47a.47.47,0,0,1-.17,0,.39.39,0,0,1-.17-.51,16.91,16.91,0,0,1,5.24-5.57.4.4,0,0,1,.53.09.38.38,0,0,1-.1.53,16.37,16.37,0,0,0-5,5.29A.36.36,0,0,1,26.6,39.47Z"></path><path class="cls-1" d="M25.14,42.15l-.13,0a.38.38,0,0,1-.22-.49c.18-.48.69-1.41.71-1.45a.38.38,0,0,1,.66.36,14.3,14.3,0,0,0-.67,1.36A.38.38,0,0,1,25.14,42.15Z"></path><path class="cls-1" d="M37.63,63.38a8.26,8.26,0,0,1-1.13-.07c-1.76-.22-3-.92-3.35-2a.28.28,0,0,1,0-.13V54.85c0-14.58,7.28-24.76,17.69-24.76A14.69,14.69,0,0,1,58,31.92l-.36.65a14,14,0,0,0-6.82-1.73c-10.13,0-16.94,9.65-16.94,24v6.29c.32.73,1.31,1.25,2.73,1.43,2.23.27,4.77-.4,5.64-1.48V54.65c0-8.78,2.8-14.48,7.5-15.25l.12.74c-4.3.71-6.87,6.13-6.87,14.51v6.56a.36.36,0,0,1-.07.22C42,62.73,39.71,63.38,37.63,63.38Z"></path><path class="cls-1" d="M63.59,60.59c-1.86,0-3.9-.53-4.79-1.81l-.13-.25a.33.33,0,0,1,0-.17V54.65A24.61,24.61,0,0,0,57,44.87l.69-.3a25.33,25.33,0,0,1,1.72,10.08v3.62l.06.12c.69,1,2.68,1.58,4.81,1.42,1.72-.13,3-.72,3.5-1.55V54.85a32.81,32.81,0,0,0-2.81-14.12l.68-.32a33.66,33.66,0,0,1,2.88,14.44v3.51c0,.07,0,.09,0,.16-.55,1.12-2.1,1.88-4.15,2C64.08,60.58,63.83,60.59,63.59,60.59Z"></path><path class="cls-1" d="M39.31,40.1a.47.47,0,0,1-.16,0,.37.37,0,0,1-.17-.51A16.91,16.91,0,0,1,44.22,34a.38.38,0,0,1,.43.62,16.23,16.23,0,0,0-5,5.29A.39.39,0,0,1,39.31,40.1Z"></path><path class="cls-1" d="M37.86,42.78l-.14,0a.38.38,0,0,1-.21-.49c.18-.48.68-1.41.7-1.45a.38.38,0,0,1,.66.36s-.5.93-.66,1.36A.38.38,0,0,1,37.86,42.78Z"></path><path class="cls-1" d="M50.34,64a8.22,8.22,0,0,1-1.12-.07c-1.76-.22-3-.92-3.36-2a.51.51,0,0,1,0-.13V55.49c0-14.59,7.27-24.77,17.68-24.77S81.21,40.9,81.21,55.49V59a.35.35,0,0,1,0,.17c-.55,1.11-2.09,1.87-4.14,2s-4.51-.34-5.51-1.78l-.14-.25a.47.47,0,0,1,0-.17V55.28c0-9-3-14.59-7.82-14.59s-7.81,5.59-7.81,14.59v6.56a.44.44,0,0,1-.07.22C54.72,63.36,52.42,64,50.34,64Zm-3.75-2.24c.32.73,1.31,1.25,2.72,1.43,2.24.28,4.78-.4,5.65-1.48V55.28c0-7.41,2.25-15.34,8.56-15.34s8.57,7.93,8.57,15.34v3.61l.07.13c.68,1,2.67,1.59,4.81,1.42,1.7-.13,3-.72,3.49-1.54V55.49c0-14.37-6.81-24-16.94-24s-16.93,9.65-16.93,24Z"></path><path class="cls-1" d="M52,40.73a.47.47,0,0,1-.17,0,.39.39,0,0,1-.17-.51,16.91,16.91,0,0,1,5.24-5.57.39.39,0,0,1,.53.1.38.38,0,0,1-.09.52,16.34,16.34,0,0,0-5,5.29A.36.36,0,0,1,52,40.73Z"></path><path class="cls-1" d="M50.57,43.41l-.13,0a.38.38,0,0,1-.22-.49c.18-.48.69-1.41.71-1.45a.38.38,0,0,1,.66.36s-.5.93-.67,1.36A.38.38,0,0,1,50.57,43.41Z"></path></g></svg> 