<?xml version="1.0" encoding="UTF-8"?> <svg xmlns="http://www.w3.org/2000/svg" xmlns:xlink="http://www.w3.org/1999/xlink" viewBox="0 0 100 100"><defs><style>.cls-1{fill:#6d6e71;}.cls-2{clip-path:url(#clip-path);}</style><clipPath id="clip-path"><path class="cls-1" d="M49.42,76,24.71,58.77,31,54.6l-6.27-4.38L31,46.05l-6.27-4.38L51.37,24,75.28,40.5l-6.09,4.34,6.09,4.21-6.09,4.34,6.09,4.21ZM26,58.78,49.42,75.13,74,57.61,67.89,53.4,74,49.06l-6.09-4.21L74,40.51,51.36,24.87,26,41.68l6.27,4.39L26,50.23l6.27,4.39Z"></path></clipPath></defs><title>Climatizacao</title><g id="OUTLINES"><path class="cls-1" d="M49.42,76,24.71,58.77,31,54.6l-6.27-4.38L31,46.05l-6.27-4.38L51.37,24,75.28,40.5l-6.09,4.34,6.09,4.21-6.09,4.34,6.09,4.21ZM26,58.78,49.42,75.13,74,57.61,67.89,53.4,74,49.06l-6.09-4.21L74,40.51,51.36,24.87,26,41.68l6.27,4.39L26,50.23l6.27,4.39Z"></path><g class="cls-2"><rect class="cls-1" x="25" y="24.41" width="0.75" height="51.17"></rect><rect class="cls-1" x="25.37" y="75.21" width="49.26" height="0.75"></rect><rect class="cls-1" x="74.25" y="24.41" width="0.75" height="51.17"></rect><rect class="cls-1" x="25.37" y="24.04" width="49.26" height="0.75"></rect></g><polygon class="cls-1" points="49.2 58.47 25.16 41.98 25.58 41.37 49.2 57.56 74.42 40.2 74.84 40.81 49.2 58.47"></polygon><polygon class="cls-1" points="49.2 67.02 25.16 50.53 25.58 49.92 49.2 66.11 74.42 48.75 74.84 49.36 49.2 67.02"></polygon><polygon class="cls-1" points="71.01 41.5 49.86 27.27 50.28 26.64 71.43 40.88 71.01 41.5"></polygon><polygon class="cls-1" points="68.94 42.91 47.79 28.67 48.21 28.05 69.36 42.28 68.94 42.91"></polygon><polygon class="cls-1" points="66.87 44.31 45.72 30.08 46.14 29.46 67.29 43.69 66.87 44.31"></polygon><polygon class="cls-1" points="64.8 45.72 43.65 31.49 44.07 30.86 65.21 45.1 64.8 45.72"></polygon><polygon class="cls-1" points="62.73 47.13 41.58 32.9 42 32.27 63.14 46.51 62.73 47.13"></polygon><polygon class="cls-1" points="60.66 48.53 39.51 34.3 39.93 33.68 61.07 47.91 60.66 48.53"></polygon><polygon class="cls-1" points="58.58 49.94 37.44 35.71 37.85 35.09 59 49.32 58.58 49.94"></polygon><polygon class="cls-1" points="56.51 51.35 35.37 37.12 35.78 36.49 56.93 50.73 56.51 51.35"></polygon><polygon class="cls-1" points="54.44 52.76 33.3 38.52 33.71 37.9 54.86 52.13 54.44 52.76"></polygon><polygon class="cls-1" points="52.37 54.16 31.22 39.93 31.64 39.31 52.79 53.54 52.37 54.16"></polygon><polygon class="cls-1" points="50.3 55.57 29.15 41.34 29.57 40.72 50.72 54.95 50.3 55.57"></polygon><rect class="cls-1" x="46.72" y="55.75" width="25.87" height="0.75" transform="translate(-21.39 44.27) rotate(-34.93)"></rect><rect class="cls-1" x="44.78" y="54.37" width="25.87" height="0.75" transform="translate(-20.95 42.91) rotate(-34.93)"></rect><rect class="cls-1" x="44.75" y="58.98" width="5.05" height="0.75" transform="translate(-25.47 37.76) rotate(-34.93)"></rect><rect class="cls-1" x="42.77" y="57.61" width="4.89" height="0.75" transform="translate(-25.14 36.59) rotate(-35.14)"></rect><rect class="cls-1" x="40.81" y="56.2" width="4.99" height="0.75" transform="translate(-24.67 35.24) rotate(-35.14)"></rect><rect class="cls-1" x="38.48" y="55" width="5.22" height="0.75" transform="translate(-24.39 33.74) rotate(-35.14)"></rect><rect class="cls-1" x="36.71" y="53.53" width="5.22" height="0.75" transform="translate(-23.86 32.46) rotate(-35.14)"></rect><rect class="cls-1" x="34.79" y="52.21" width="4.99" height="0.75" transform="translate(-23.47 31.04) rotate(-35.14)"></rect><rect class="cls-1" x="32.64" y="50.86" width="5.22" height="0.75" transform="translate(-23.07 29.63) rotate(-35.14)"></rect><rect class="cls-1" x="30.5" y="49.57" width="5.22" height="0.75" transform="translate(-22.71 28.16) rotate(-35.14)"></rect><rect class="cls-1" x="28.56" y="48.19" width="5.22" height="0.75" transform="translate(-22.27 26.79) rotate(-35.14)"></rect><rect class="cls-1" x="39.18" y="52.37" width="0.75" height="25.87" transform="translate(-36.53 58.96) rotate(-54.03)"></rect><rect class="cls-1" x="41.15" y="51.02" width="0.75" height="25.87" transform="translate(-34.63 60) rotate(-54.03)"></rect><rect class="cls-1" x="49.11" y="61.42" width="0.75" height="11.08" transform="translate(-33.77 67.67) rotate(-54.03)"></rect><rect class="cls-1" x="53.22" y="64.23" width="0.75" height="5.83" transform="translate(-32.25 70.43) rotate(-53.59)"></rect><rect class="cls-1" x="55.05" y="62.61" width="0.75" height="6.16" transform="translate(-30.34 71.34) rotate(-53.61)"></rect><rect class="cls-1" x="57.02" y="61.27" width="0.75" height="6.16" transform="translate(-28.46 72.37) rotate(-53.6)"></rect><rect class="cls-1" x="58.99" y="59.93" width="0.75" height="6.16" transform="translate(-26.58 73.41) rotate(-53.6)"></rect><rect class="cls-1" x="60.96" y="58.58" width="0.75" height="6.16" transform="translate(-24.69 74.46) rotate(-53.61)"></rect><rect class="cls-1" x="62.94" y="57.24" width="0.75" height="6.16" transform="matrix(0.59, -0.8, 0.8, 0.59, -22.81, 75.49)"></rect><rect class="cls-1" x="64.91" y="55.9" width="0.75" height="6.16" transform="translate(-20.93 76.52) rotate(-53.6)"></rect><rect class="cls-1" x="66.88" y="54.55" width="0.75" height="6.16" transform="translate(-19.05 77.56) rotate(-53.6)"></rect><rect class="cls-1" x="68.62" y="53.09" width="0.75" height="6.16" transform="translate(-17.16 78.38) rotate(-53.6)"></rect></g></svg> 