<svg xmlns="http://www.w3.org/2000/svg" width="56.424" height="43.174" viewBox="0 0 56.424 43.174"><defs><style>.a{fill:#8b8b8b;stroke:#fff;stroke-width:1.8px;}</style></defs><g transform="translate(0.9 0.901)"><path class="a" d="M206.294,113.4l-12.068-6.6a2.216,2.216,0,0,0-3.281,1.945v13.093a2.213,2.213,0,0,0,3.266,1.952L206.28,117.3a2.217,2.217,0,0,0,.014-3.9Zm-12.147,6.787V110.4l9.019,4.935Zm0,0" transform="translate(-170.574 -95.159)"/><path class="a" d="M54.222,9.765l0-.025c-.046-.44-.507-4.35-2.408-6.34A8.889,8.889,0,0,0,45.925.64c-.1-.011-.19-.022-.271-.033l-.1-.01C38.337.073,27.431,0,27.322,0H27.3C27.193,0,16.287.073,9,.6l-.1.01c-.078.01-.163.02-.256.031A8.665,8.665,0,0,0,2.8,3.484C.985,5.452.462,9.279.408,9.709L.4,9.765C.385,9.948,0,14.3,0,18.676v4.087c0,4.373.385,8.728.4,8.911l0,.028c.046.433.506,4.272,2.4,6.262a9.07,9.07,0,0,0,6.084,2.721c.222.025.413.047.544.07l.126.018c4.17.4,17.243.592,17.8.6h.033c.109,0,11.015-.072,18.236-.6l.1-.01c.091-.012.194-.023.306-.035a8.464,8.464,0,0,0,5.8-2.776c1.811-1.968,2.335-5.8,2.388-6.225l.006-.056c.016-.183.4-4.538.4-8.911V18.676C54.624,14.3,54.239,9.948,54.222,9.765Zm-2.8,13c0,4.047-.353,8.215-.387,8.6-.136,1.054-.688,3.475-1.57,4.434a5.264,5.264,0,0,1-3.778,1.753c-.123.013-.238.025-.341.038-6.985.505-17.479.583-17.962.586-.542-.008-13.424-.205-17.466-.581-.207-.034-.431-.06-.667-.086a5.986,5.986,0,0,1-4.094-1.71l-.03-.032c-.867-.9-1.4-3.167-1.539-4.39-.025-.289-.388-4.506-.388-8.61V18.676c0-4.042.353-8.206.387-8.6.162-1.241.725-3.516,1.57-4.435A5.523,5.523,0,0,1,9.016,3.818l.261-.031C16.363,3.279,26.933,3.2,27.312,3.2s10.945.078,17.969.586l.282.033A5.732,5.732,0,0,1,49.483,5.6l.013.014c.867.9,1.4,3.207,1.539,4.454.024.273.388,4.5.388,8.612Zm0,0"/></g></svg>