<svg xmlns="http://www.w3.org/2000/svg" width="21.054" height="57.5" viewBox="0 0 21.054 57.5"><defs><style>.a{fill:#40acd9;}</style></defs><g transform="translate(-1044 -2337)"><g transform="translate(554.462 1370.546)"><g transform="translate(495.187 978.009)"><path class="a" d="M494.415,1018a.4.4,0,0,1-.286-.672c.208-.214,18.635-19.572,12-35.848a24.045,24.045,0,0,0-1.7-3.247,21.254,21.254,0,0,0-1.445-1.966.4.4,0,0,1,.593-.527,13.4,13.4,0,0,1,1.215,1.608,20.236,20.236,0,0,1,2.31,4.438c2.663,6.576,4.631,18.513-3.428,35.819a.4.4,0,1,1-.719-.335c5.441-11.684,6.257-20.85,5.4-27.524-.422,14.248-13.472,27.952-13.648,28.133A.4.4,0,0,1,494.415,1018Z" transform="translate(-494.018 -975.618)"/></g><g transform="translate(489.538 970.27)"><path class="a" d="M495.676,1011.862a.4.4,0,0,1-.287-.121,13.3,13.3,0,0,1-1.214-1.608,20.3,20.3,0,0,1-2.311-4.438c-2.662-6.576-4.631-18.513,3.428-35.819a.4.4,0,0,1,.72.335c-5.442,11.684-6.257,20.85-5.4,27.524.424-14.248,13.473-27.952,13.648-28.135a.4.4,0,0,1,.571.552c-.208.214-18.634,19.571-12,35.848a24.016,24.016,0,0,0,1.7,3.247,20.989,20.989,0,0,0,1.444,1.966.4.4,0,0,1-.305.648Z" transform="translate(-489.538 -969.481)"/></g><g transform="translate(493.147 1019.622)"><path class="a" d="M505.483,1009.412H492.8a.4.4,0,1,1,0-.792h12.687a.4.4,0,0,1,0,.792Z" transform="translate(-492.4 -1008.62)"/></g><g transform="translate(495.337 983.112)"><rect class="a" width="0.792" height="37.158"/></g><g transform="translate(504.017 970.878)"><rect class="a" width="0.792" height="36.706"/></g><g transform="translate(493.147 1019.622)"><path class="a" d="M505.483,1009.412H492.8a.4.4,0,1,1,0-.792h12.687a.4.4,0,0,1,0,.792Z" transform="translate(-492.4 -1008.62)"/></g><g transform="translate(497.281 966.454)"><path class="a" d="M500.561,970.692h-4.556a.327.327,0,0,1-.327-.327v-1.306a2.605,2.605,0,1,1,5.21,0v1.306A.327.327,0,0,1,500.561,970.692Zm-4.228-.654h3.9v-.979a1.951,1.951,0,1,0-3.9,0Z" transform="translate(-495.679 -966.454)"/></g><g transform="translate(493.147 970.075)"><path class="a" d="M505.483,970.118H492.8a.4.4,0,1,1,0-.792h12.687a.4.4,0,0,1,0,.792Z" transform="translate(-492.4 -969.326)"/></g><g transform="translate(497.281 966.454)"><path class="a" d="M500.561,970.692h-4.556a.327.327,0,0,1-.327-.327v-1.306a2.605,2.605,0,1,1,5.21,0v1.306A.327.327,0,0,1,500.561,970.692Zm-4.228-.654h3.9v-.979a1.951,1.951,0,1,0-3.9,0Z" transform="translate(-495.679 -966.454)"/></g><g transform="translate(497.281 1019.716)"><path class="a" d="M498.283,1012.933a2.606,2.606,0,0,1-2.6-2.6v-1.308a.327.327,0,0,1,.327-.327h4.556a.327.327,0,0,1,.328.327v1.308A2.607,2.607,0,0,1,498.283,1012.933Zm-1.949-3.585v.981a1.951,1.951,0,0,0,3.9,0v-.981Z" transform="translate(-495.679 -1008.695)"/></g><g transform="translate(497.281 1019.716)"><path class="a" d="M498.283,1012.933a2.606,2.606,0,0,1-2.6-2.6v-1.308a.327.327,0,0,1,.327-.327h4.556a.327.327,0,0,1,.328.327v1.308A2.607,2.607,0,0,1,498.283,1012.933Zm-1.949-3.585v.981a1.951,1.951,0,0,0,3.9,0v-.981Z" transform="translate(-495.679 -1008.695)"/></g></g></g></svg>