<svg xmlns="http://www.w3.org/2000/svg" width="49.497" height="35.194" viewBox="0 0 49.497 35.194"><defs><style>.a{fill:none;stroke:#747474;stroke-linecap:round;stroke-linejoin:round;stroke-width:0.75px;}</style></defs><g transform="translate(-678.614 -4198.774)"><g transform="translate(678.989 4199.149)"><rect class="a" width="48.747" height="34.444" rx="2.066" transform="translate(0)"/><ellipse class="a" cx="5.345" cy="5.345" rx="5.345" ry="5.345" transform="translate(35.152 20.255)"/><ellipse class="a" cx="5.345" cy="5.345" rx="5.345" ry="5.345" transform="translate(28.332 20.255)"/><line class="a" x2="7.619" transform="translate(5.068 23.946)"/><line class="a" x2="7.619" transform="translate(15.524 23.946)"/><line class="a" x2="1.953" transform="translate(5.02 28.167)"/><line class="a" x2="1.953" transform="translate(8.254 28.167)"/><line class="a" x2="1.953" transform="translate(11.488 28.167)"/><line class="a" x2="1.953" transform="translate(14.722 28.167)"/><line class="a" x2="1.953" transform="translate(17.956 28.167)"/><line class="a" x2="1.953" transform="translate(21.19 28.167)"/><rect class="a" width="13.874" height="10.263" rx="1.535" transform="translate(4.784 6.21)"/><line class="a" y2="10.206" transform="translate(10.09 6.069)"/><line class="a" x2="5.306" transform="translate(4.784 9.452)"/><line class="a" x2="5.306" transform="translate(4.784 12.949)"/><line class="a" x2="5.306" transform="translate(13.401 12.963)"/><path class="a" d="M-640,4401.772v-6.009a1.014,1.014,0,0,1,1.013-1.014h4.193" transform="translate(653.451 -4385.298)"/></g></g></svg>