<svg xmlns="http://www.w3.org/2000/svg" xmlns:xlink="http://www.w3.org/1999/xlink" width="52.272" height="45.917" viewBox="0 0 52.272 45.917"><defs><style>.a{fill:url(#a);}.b{fill:url(#b);}.c{fill:url(#c);}.d{fill:url(#d);}.e{fill:url(#e);}.f{fill:url(#f);}.g{fill:url(#g);}</style><linearGradient id="a" x1="-6.027" y1="-8.502" x2="2.581" y2="3.209" gradientUnits="objectBoundingBox"><stop offset="0" stop-color="#45a735"/><stop offset="1" stop-color="#004cac"/></linearGradient><linearGradient id="b" x1="-117.113" y1="-38.824" x2="38.441" y2="13.157" xlink:href="#a"/><linearGradient id="c" x1="-24.363" y1="-39.006" x2="8.38" y2="12.975" xlink:href="#a"/><linearGradient id="d" x1="-24.412" y1="-39.02" x2="8.325" y2="12.961" xlink:href="#a"/><linearGradient id="e" x1="-22.19" y1="-38.734" x2="7.844" y2="13.247" xlink:href="#a"/><linearGradient id="f" x1="-4.877" y1="-21.502" x2="2.223" y2="7.549" xlink:href="#a"/><linearGradient id="g" x1="-36.186" y1="-352.291" x2="12.412" y2="115.424" xlink:href="#a"/></defs><g transform="translate(-561 -2664)"><g transform="translate(88.111 1577.267)"><g transform="translate(504.398 1086.733)"><path class="a" d="M506.184,1110.492l.217.06.016.061,5.642,21.034a1.357,1.357,0,0,0,2.621,0l5.656-21.094.219-.06a3.145,3.145,0,0,0,2.309-3.025v-.885a.839.839,0,0,0-.085-.361l-.126-.249.2-.2a3.593,3.593,0,0,0,.669-3.891,3.314,3.314,0,0,0-2.843-2.2l-.55-.09.269-.488a4.076,4.076,0,0,0,.313-3.063c-.577-2.005-2.5-2.025-3.648-2.038l-.644-.005.3-.569a5.719,5.719,0,0,0,.61-3.728,3.668,3.668,0,0,0-3.046-2.7,9.825,9.825,0,0,0-2.4-.27c-.352,0-.71.017-1.064.047a.379.379,0,0,0-.347.327.374.374,0,0,0,.263.4,2.272,2.272,0,0,1,1.655,1.594c.254,1.091-.053,2.605-4.715,4.651a3.945,3.945,0,0,0-2.484,2.478,4.393,4.393,0,0,0,.729,3.327l.276.445-.505.141a4.458,4.458,0,0,0-1.363.638,2.836,2.836,0,0,0-1.288,2.378,3.732,3.732,0,0,0,.885,2.609l.18.2-.123.24a.816.816,0,0,0-.091.372v.885A3.146,3.146,0,0,0,506.184,1110.492Zm7.933,21a.775.775,0,0,1-1.5,0l0-.029-1.273-4.735.741.313c.825.348,1.694.688,2.582,1.008l.343.122Zm2.193-8.174-1.011-.387a.291.291,0,0,0-.376.169.285.285,0,0,0,.005.225.279.279,0,0,0,.161.153l1.073.394-1,3.738-.4-.144c-1.222-.448-2.379-.915-3.437-1.391l-.17-.076-.014-.05-1.308-4.875.791.41c.468.244.965.487,1.475.722a.29.29,0,1,0,.245-.527c-.861-.406-1.726-.842-2.572-1.3l-.149-.081-1.413-5.279.853.542a42.815,42.815,0,0,0,7.91,3.931l.336.126Zm1.144-4.268-.406-.151a41.48,41.48,0,0,1-8.962-4.68l-.119-.082-.01-.039-.939-3.5H509.4l.1.073a37.936,37.936,0,0,0,8.6,4.609l.329.126Zm1.129-4.207-.409-.156a37.97,37.97,0,0,1-6.67-3.362l-1.14-.725h9.356Zm-11.505-9.075h-2.3l-.108-.087a3.021,3.021,0,0,1-1.06-2.523c.01-1.847,2.034-2.482,2.741-2.558l.189-.019.243.15a10.492,10.492,0,0,0,.8.9.306.306,0,0,0,.411-.014.3.3,0,0,0,.077-.212.277.277,0,0,0-.089-.2,18.137,18.137,0,0,1-1.36-1.627,4.2,4.2,0,0,1-.878-3.2,3.4,3.4,0,0,1,2.158-2.1c2.655-1.163,5.627-2.818,5.047-5.311a2.486,2.486,0,0,0-.466-.981l-.561-.71.9.074c2.246.19,3.6,1.045,3.932,2.473a5.239,5.239,0,0,1-.657,3.514,6.5,6.5,0,0,1-2.184,2.21.3.3,0,0,0-.141.388.281.281,0,0,0,.4.138,5.259,5.259,0,0,0,1.674-1.4l.122-.142.321.027c.141.014.341.017.552.021l.2,0c1.449.012,2.683.141,3.108,1.615a3.484,3.484,0,0,1-.317,2.709,13.155,13.155,0,0,1-2.035,2.164.278.278,0,0,0-.1.195.271.271,0,0,0,.063.211.284.284,0,0,0,.2.1.27.27,0,0,0,.208-.057,11.852,11.852,0,0,0,1.281-1.233l.167-.184.237.071a.616.616,0,0,0,.1.014c1.6.058,2.639.7,3.012,1.858.513,1.6.206,2.825-.915,3.64h0l-.1.074H510.283a.292.292,0,0,0,0,.584h12v1.112a2.561,2.561,0,0,1-2.207,2.529,1.741,1.741,0,0,1-.2.015,1.056,1.056,0,0,1-.143.005H507.005a1.428,1.428,0,0,1-.186-.008.754.754,0,0,1-.148-.011,2.563,2.563,0,0,1-2.212-2.529v-1.112h2.619a.292.292,0,0,0,0-.584Z" transform="translate(-503.026 -1086.733)"/></g><g transform="translate(483.358 1108.094)"><path class="b" d="M483.764,1112.192l.288-.286v-4.023a.922.922,0,0,0-.718-.718l-.431,1.149v3.018Zm-.862,1.15v3.017l.431,1.149a.924.924,0,0,0,.718-.718v-4.023l-.288-.287Z" transform="translate(-482.902 -1107.164)"/></g><g transform="translate(487.439 1108.094)"><path class="c" d="M487.954,1108.6v2.73l-.862.861-.288-.286v-3.736Zm-1.149,7.9v-3.736l.288-.287.862.862v2.73Zm5.459,1.006h-4.74a.922.922,0,0,1-.718-.718l1.149-.431h3.879Zm-.431-9.2h-3.864l-1.149-.431a.921.921,0,0,1,.718-.718h4.726Z" transform="translate(-486.805 -1107.164)"/></g><g transform="translate(488.165 1108.094)"><path class="d" d="M491.811,1108.6v2.73l.862.861.288-.286v-3.736Zm1.149,7.9v-3.736l-.288-.287-.862.862v2.73Zm-5.46,1.006h4.741a.924.924,0,0,0,.718-.718l-1.149-.431h-3.88Zm.431-9.2H491.8l1.149-.431a.922.922,0,0,0-.718-.718H487.5Z" transform="translate(-487.5 -1107.164)"/></g><g transform="translate(478.041 1108.094)"><path class="e" d="M483.277,1117.509h-4.741a.924.924,0,0,1-.718-.718l1.149-.431h3.88Zm-.431-9.2h-3.865l-1.149-.431a.922.922,0,0,1,.718-.718h4.727Zm-2.271,3.386h2.563l.63.639-.607.51h-3.07" transform="translate(-477.817 -1107.164)"/></g><g transform="translate(472.889 1104.027)"><path class="f" d="M496.11,1121.783H474.844a1.957,1.957,0,0,1-1.955-1.955v-14.6a1.957,1.957,0,0,1,1.954-1.956H496.11a1.956,1.956,0,0,1,1.954,1.955v14.6A1.956,1.956,0,0,1,496.11,1121.783Zm-21.267-17.853a1.3,1.3,0,0,0-1.3,1.3v14.6a1.3,1.3,0,0,0,1.3,1.3H496.11a1.3,1.3,0,0,0,1.3-1.3v-14.6a1.3,1.3,0,0,0-1.3-1.3Z" transform="translate(-472.889 -1103.274)"/></g><g transform="translate(478.486 1112.626)"><path class="g" d="M481.436,1111.5h-2.563l-.63.639.608.51h3.07" transform="translate(-478.242 -1111.499)"/></g></g></g></svg>