<svg xmlns="http://www.w3.org/2000/svg" width="48.061" height="46.294" viewBox="0 0 48.061 46.294"><defs><style>.a{fill:#0091cd;}</style></defs><g transform="translate(-1031 -2245)"><g transform="translate(555.144 1548.429)"><path class="a" d="M494.561,742.865a.313.313,0,0,1-.314-.314V696.885a.314.314,0,1,1,.628,0v45.666A.314.314,0,0,1,494.561,742.865Z"/><path class="a" d="M505.249,742.865a.314.314,0,0,1-.314-.314V696.885a.314.314,0,1,1,.628,0v45.666A.313.313,0,0,1,505.249,742.865Z"/><path class="a" d="M485.93,723.555a.325.325,0,0,1-.157-.041.316.316,0,0,1-.157-.273V717.53a.316.316,0,0,1,.157-.273.319.319,0,0,1,.314,0l4.946,2.856a.315.315,0,0,1,0,.545l-4.946,2.856A.32.32,0,0,1,485.93,723.555Zm.314-5.481V722.7l4-2.311Z"/><path class="a" d="M486.021,720.7H476.17a.314.314,0,1,1,0-.628h9.851a.314.314,0,1,1,0,.628Z"/><path class="a" d="M513.842,723.555a.325.325,0,0,1-.157-.041l-4.945-2.856a.315.315,0,0,1,0-.545l4.945-2.856a.319.319,0,0,1,.314,0,.316.316,0,0,1,.157.273v5.711a.316.316,0,0,1-.157.273A.32.32,0,0,1,513.842,723.555Zm-4.316-3.17,4,2.311v-4.622Z"/><path class="a" d="M523.6,720.7h-9.852a.314.314,0,0,1,0-.628H523.6a.314.314,0,0,1,0,.628Z"/></g></g></svg>