<svg xmlns="http://www.w3.org/2000/svg" width="43.635" height="39.721" viewBox="0 0 43.635 39.721"><defs><style>.a{fill:#fff;}</style></defs><path class="a" d="M789.42,706.885V689.823H788.5c-2.431,0-4.449-1.239-5-3.486-.6-2.477.367-4.862,2.981-7.11l4.633-3.99v-5.321a1.411,1.411,0,0,1,1.376-1.376h25.227a1.419,1.419,0,0,1,1.421,1.376v5.275l4.633,4.036c2.615,2.294,3.624,4.679,3.027,7.11-.55,2.247-2.568,3.486-5,3.486h-.918v17.062a1.39,1.39,0,0,1-1.421,1.376H790.8A1.38,1.38,0,0,1,789.42,706.885Zm2.34-31.052-4.725,4.082c-2.339,2.064-3.21,4.128-2.706,6.238.505,1.881,1.881,2.8,4.174,2.8h3.027a6.275,6.275,0,0,1-.779-4.587,15.672,15.672,0,0,1,1.605-4.678,17.459,17.459,0,0,1,2.66-3.853Zm7.98,31.557V697.115a1.38,1.38,0,0,1,1.377-1.375h8.072a1.38,1.38,0,0,1,1.376,1.376V707.39h8.9a.459.459,0,0,0,.5-.505V689.823H790.292v17.062a.459.459,0,0,0,.5.505Zm-3.485-31.557a16.994,16.994,0,0,0-4.633,8.577,5.565,5.565,0,0,0,.963,4.541h5.321c-1.193-3.394-.6-7.752,1.743-13.118Zm-4.266-.872h26.236v-5.046a.458.458,0,0,0-.5-.5H792.494a.46.46,0,0,0-.505.505Zm12.7.872h-4.082c-2.522,5.458-3.073,9.816-1.743,13.118h5.825Zm-4.082,31.557h9.082V697.116a.459.459,0,0,0-.5-.505h-8.072a.458.458,0,0,0-.505.5Zm4.954-31.557v13.118h6.054c1.33-3.3.78-7.66-1.743-13.118Zm5.275,0c2.339,5.366,2.935,9.724,1.743,13.118h5.32a5.565,5.565,0,0,0,.963-4.541,15.651,15.651,0,0,0-1.743-4.77,19.3,19.3,0,0,0-2.889-3.807ZM821.8,688.951c2.247,0,3.623-.917,4.128-2.8.55-2.109-.367-4.219-2.707-6.284l-4.678-4.036h-3.073a17.329,17.329,0,0,1,4.266,8.531,6.271,6.271,0,0,1-.78,4.587Z" transform="translate(-783.333 -668.54)"/></svg>