<svg xmlns="http://www.w3.org/2000/svg" width="61.231" height="43.485" viewBox="0 0 61.231 43.485"><defs><style>.a{fill:none;stroke:#747474;stroke-linecap:round;stroke-linejoin:round;stroke-width:0.75px;}</style></defs><g transform="translate(0.375 0.375)"><g transform="translate(0 0)"><rect class="a" width="60.481" height="42.735" rx="2.066" transform="translate(0)"/><ellipse class="a" cx="6.631" cy="6.631" rx="6.631" ry="6.631" transform="translate(43.614 25.131)"/><ellipse class="a" cx="6.631" cy="6.631" rx="6.631" ry="6.631" transform="translate(35.152 25.131)"/><line class="a" x2="9.453" transform="translate(6.288 29.711)"/><line class="a" x2="9.453" transform="translate(19.26 29.711)"/><line class="a" x2="2.423" transform="translate(6.229 34.948)"/><line class="a" x2="2.423" transform="translate(10.241 34.948)"/><line class="a" x2="2.423" transform="translate(14.254 34.948)"/><line class="a" x2="2.423" transform="translate(18.266 34.948)"/><line class="a" x2="2.423" transform="translate(22.279 34.948)"/><line class="a" x2="2.423" transform="translate(26.291 34.948)"/><rect class="a" width="17.213" height="12.734" rx="1.535" transform="translate(5.935 7.705)"/><line class="a" y2="12.663" transform="translate(12.519 7.529)"/><line class="a" x2="6.584" transform="translate(5.935 11.727)"/><line class="a" x2="6.584" transform="translate(5.935 16.066)"/><line class="a" x2="6.584" transform="translate(16.627 16.083)"/><path class="a" d="M-640,4403.463v-7.455a1.258,1.258,0,0,1,1.257-1.258h5.2" transform="translate(656.689 -4383.022)"/></g></g></svg>