<svg xmlns="http://www.w3.org/2000/svg" width="43.053" height="40.231" viewBox="0 0 43.053 40.231"><defs><style>.a{fill:#fff;}</style></defs><path class="a" d="M677.413,448.945A9.176,9.176,0,0,1,673.1,442.2l-.917-8.3c-.78-6.742,5.229-10.641,11.329-10.457,6.1-.184,12.109,3.715,11.375,10.457l-.963,8.3a8.893,8.893,0,0,1-4.311,6.743l11.6,5.55a6.709,6.709,0,0,1,3.44,3.394,4.088,4.088,0,0,1-.275,3.99q-1.239,1.789-4.4,1.789H667.047c-2.11,0-3.578-.6-4.358-1.789a3.871,3.871,0,0,1-.275-3.99,6.716,6.716,0,0,1,3.441-3.4Zm-11.192,6.329c-4.174,2.018-4.862,7.522.826,7.522h32.932c5.825,0,4.954-5.5.826-7.523l-11.6-5.6c-.872-.413-.688-1.009.045-1.514a8.467,8.467,0,0,0,3.807-6.055l.964-8.3a7.314,7.314,0,0,0-2.706-7.018,12.386,12.386,0,0,0-7.8-2.477,12.157,12.157,0,0,0-7.751,2.477,7.313,7.313,0,0,0-2.706,7.017l.917,8.3c.367,2.8,1.559,4.45,3.99,6.147.78.55.734,1.009-.091,1.422Z" transform="translate(-661.993 -423.437)"/></svg>