<svg xmlns="http://www.w3.org/2000/svg" width="38.501" height="30.688" viewBox="0 0 38.501 30.688"><defs><style>.a{fill:#fff;}</style></defs><g transform="translate(-13.525 -5.604)"><g transform="translate(13.524 5.605)"><path class="a" d="M-689.273,4350.238c7.674.561,11.128,4.329,11.281,11.466,0,.3-.175.481-.5.562a.614.614,0,0,1-.743-.262q-3.248-5.08-10.035-5.151v3.408a.626.626,0,0,1-1.027.442l-7.98-6.576a.562.562,0,0,1,0-.883l7.98-6.595a.636.636,0,0,1,1.027.44Zm-.415-3.148a.219.219,0,0,0-.349-.16l-7.958,6.595c-.131.1-.131.2,0,.321l7.958,6.575a.214.214,0,0,0,.349-.161v-3.808c4.876,0,8.416,1.644,10.8,5.352.11.181.481.121.481-.1-.153-7.116-3.585-10.605-11.281-11.107Z" transform="translate(716.492 -4331.607)"/><path class="a" d="M-698.415,4333.079a.912.912,0,0,1,1.477-.621l11.206,9.288a.791.791,0,0,1,0,1.241l-11.206,9.26a.9.9,0,0,1-1.477-.62v-4.8q-9.514.084-14.1,7.256a.868.868,0,0,1-1.047.368c-.492-.115-.738-.368-.707-.791.216-10.021,5.109-15.357,15.854-16.147Zm.584,4.939q-8.126.551-11.913,4.318c-2.525,2.541-3.849,6.323-3.941,11.321-.031.31.493.395.647.141,3.356-5.222,8.342-7.536,15.207-7.536v5.364c0,.254.339.422.493.226l11.236-9.26c.154-.17.154-.312,0-.452l-11.236-9.287a.321.321,0,0,0-.493.226Z" transform="translate(714.271 -4332.264)"/></g></g></svg>