<svg xmlns="http://www.w3.org/2000/svg" width="32.66" height="32.66" viewBox="0 0 32.66 32.66"><defs><style>.a{fill:#006198;}</style></defs><g transform="matrix(0.695, -0.719, 0.719, 0.695, 0, 16.624)"><path class="a" d="M1.592,22.756c-2.261-2.87-1.942-6.667-.116-10.407a23.168,23.168,0,0,1,4.609-6.32,23.089,23.089,0,0,1,6.29-4.579c3.71-1.8,7.537-2.116,10.407.145a.815.815,0,0,1,.261.986A11.177,11.177,0,0,1,17.3,8.32a.839.839,0,0,1-.9-.087L14.4,6.7a.426.426,0,0,0-.319-.029A14.224,14.224,0,0,0,6.664,14.06c-.029.145-.029.232.058.318L8.23,16.407a.793.793,0,0,1,.116.87,10.942,10.942,0,0,1-5.768,5.739A.823.823,0,0,1,1.592,22.756Zm6.232-5.71a.265.265,0,0,0-.029-.318l-1.536-2a.8.8,0,0,1-.087-.87,14.79,14.79,0,0,1,7.682-7.711.793.793,0,0,1,.87.116L16.752,7.8a.265.265,0,0,0,.319.028,10.5,10.5,0,0,0,5.45-5.449.268.268,0,0,0-.087-.347c-2.609-2.145-6.29-1.8-9.827-.059A22.428,22.428,0,0,0,6.462,6.436a23.16,23.16,0,0,0-4.493,6.145c-1.826,3.739-2,7.015.058,9.827a.346.346,0,0,0,.377.116A10.32,10.32,0,0,0,7.824,17.045Z" transform="translate(0 0)"/></g></svg>