<svg xmlns="http://www.w3.org/2000/svg" width="26.756" height="19.596" viewBox="0 0 26.756 19.596"><defs><style>.a{fill:#006198;}</style></defs><g transform="translate(0)"><path class="a" d="M-1534.247,4536.179a4.071,4.071,0,0,1,3.015,1.247,4.134,4.134,0,0,1,1.247,3.043v11.043a4.069,4.069,0,0,1-1.247,3.015,4.068,4.068,0,0,1-3.015,1.247h-18.233a4.068,4.068,0,0,1-3.015-1.247,4.07,4.07,0,0,1-1.247-3.015v-11.043a4.134,4.134,0,0,1,1.247-3.043,4.071,4.071,0,0,1,3.015-1.247Zm-12.957,9.74-7.943-8.03a3.522,3.522,0,0,0-1.043,2.58v11.043a3.579,3.579,0,0,0,.957,2.494Zm.406.376-8.03,8.087a3.583,3.583,0,0,0,2.348.841h18.233a3.584,3.584,0,0,0,2.348-.841l-8.03-8.059-.7.7a3.739,3.739,0,0,1-2.725,1.1,3.525,3.525,0,0,1-2.725-1.1Zm-5.682-9.566a3.569,3.569,0,0,0-2.261.783l9.044,9.131a3.186,3.186,0,0,0,2.348.928,3.165,3.165,0,0,0,2.319-.928l9.044-9.131a3.457,3.457,0,0,0-2.261-.783Zm12.928,9.19,8.059,8.087a3.681,3.681,0,0,0,.957-2.494v-11.043a3.521,3.521,0,0,0-1.044-2.58Z" transform="translate(1556.741 -4536.179)"/></g></svg>