<svg xmlns="http://www.w3.org/2000/svg" width="129.015" height="45.735" viewBox="0 0 129.015 45.735"><defs><style>.a{fill:#331809;}</style></defs><g transform="translate(-353 -95)"><g transform="translate(267.712 -330.453)"><path class="a" d="M213.835,447.014a9.644,9.644,0,0,1-2.387-.979,10.866,10.866,0,0,1-2.606-1.924c-2.46-2.46-2.932-5.152-3.388-7.753a17.089,17.089,0,0,0-1.582-5.378c-1.446-2.679-5.585-5.527-10.409-5.527H106.129c-4.824,0-8.963,2.848-10.409,5.527a17.08,17.08,0,0,0-1.582,5.378c-.456,2.6-.927,5.292-3.388,7.753a10.849,10.849,0,0,1-2.606,1.924,9.673,9.673,0,0,1-2.387.98.707.707,0,0,0,0,1.332,9.637,9.637,0,0,1,2.385.979,10.847,10.847,0,0,1,2.606,1.924c2.619,2.62,2.882,5.158,3.16,7.845.285,2.743.579,5.579,3.556,8.49a12.178,12.178,0,0,0,8.663,3.6h23.605c.73,0,1.057-.285,1.057-.566s-.32-.564-1.034-.564H106.13a11.056,11.056,0,0,1-7.864-3.272c-2.61-2.609-2.92-5.207-3.248-7.955s-.664-5.575-3.469-8.379a12.058,12.058,0,0,0-2.034-1.636,11.9,11.9,0,0,0-2.29-1.136,11.862,11.862,0,0,0,2.289-1.137,12.015,12.015,0,0,0,2.036-1.635c2.649-2.648,3.126-5.4,3.586-8.065a15.865,15.865,0,0,1,1.584-5.308c1.793-3.217,6.186-4.953,9.409-4.953h87.334c3.223,0,7.617,1.736,9.409,4.953a15.862,15.862,0,0,1,1.583,5.308c.462,2.663.938,5.417,3.588,8.065a11.974,11.974,0,0,0,4.325,2.771,11.932,11.932,0,0,0-4.325,2.771c-2.8,2.8-3.142,5.639-3.47,8.379s-.637,5.347-3.247,7.955a11.051,11.051,0,0,1-7.863,3.272H123.642c-.714,0-1.034.284-1.034.564s.327.566,1.057.566h69.8a12.182,12.182,0,0,0,8.663-3.6c2.976-2.911,3.27-5.747,3.554-8.49.28-2.688.542-5.226,3.162-7.846a10.882,10.882,0,0,1,2.606-1.923,9.7,9.7,0,0,1,2.384-.979.708.708,0,0,0,0-1.333" transform="translate(0)"/><path class="a" d="M198.39,432.791a11.431,11.431,0,0,1,1.164,3.639l.013.066a16.656,16.656,0,0,1,.34,2.1.592.592,0,0,0,.536.616c.208-.014.42-.2.388-.689a16.965,16.965,0,0,0-.33-2.07l-.018-.085a12.989,12.989,0,0,0-1.231-4.059c-1.178-2.18-4.546-4.5-8.472-4.5h-85.8c-3.925,0-7.295,2.319-8.471,4.5a12.94,12.94,0,0,0-1.231,4.058l-.014.066a16.993,16.993,0,0,0-.335,2.089c-.025.385.1.555.213.629a.35.35,0,0,0,.2.061.409.409,0,0,0,.178-.044.669.669,0,0,0,.334-.573,16.81,16.81,0,0,1,.339-2.1l.014-.069a11.441,11.441,0,0,1,1.164-3.639c1.45-2.6,5-4,7.611-4h85.8c2.608,0,6.162,1.4,7.611,4" transform="translate(1.894 0.464)"/><path class="a" d="M117.3,463.019h69.243c3.926,0,7.295-2.319,8.472-4.5a12.979,12.979,0,0,0,1.231-4.059l.018-.085a16.989,16.989,0,0,0,.33-2.069c.031-.486-.179-.675-.388-.689-.238-.017-.51.217-.536.616a16.824,16.824,0,0,1-.339,2.1l-.014.068a11.434,11.434,0,0,1-1.164,3.638c-1.45,2.6-5,4-7.611,4H117.275c-.554,0-.8.241-.8.477s.257.5.824.5" transform="translate(6.133 5.145)"/><path class="a" d="M104.975,462.045c-2.608,0-6.16-1.4-7.611-4A11.435,11.435,0,0,1,96.2,454.4l-.016-.072a16.983,16.983,0,0,1-.337-2.1.669.669,0,0,0-.334-.573.369.369,0,0,0-.377.017c-.111.074-.238.244-.212.629a16.672,16.672,0,0,0,.334,2.086l.013.069A13.032,13.032,0,0,0,96.5,458.52c1.176,2.18,4.545,4.5,8.471,4.5h23.051c.567,0,.824-.257.824-.5s-.248-.477-.8-.477Z" transform="translate(1.894 5.145)"/><path class="a" d="M125.274,447.022c.185-.218.444-.542.777-.976a8.034,8.034,0,0,0,.856-1.391,3.758,3.758,0,0,0,.4-1.41.988.988,0,0,0-.558-.994,1.553,1.553,0,0,0-1.552.036,6.112,6.112,0,0,0-1.513,1.193,12.352,12.352,0,0,0-1.295,1.626q-.576.867-.856,1.338-.4.65-.835,1.553a14.682,14.682,0,0,0-.756,1.88,7.385,7.385,0,0,0,2.945-.975,10.957,10.957,0,0,0,2.389-1.88m-4.7,7.084a2.017,2.017,0,0,0,1.513.56,8.385,8.385,0,0,0,1.712-.2,8.583,8.583,0,0,0,2.13-.759,11.8,11.8,0,0,0,1.85-1.193,20.978,20.978,0,0,0,1.572-1.428,12.731,12.731,0,0,0,1.333-1.572l1.036-1.446a4.16,4.16,0,0,0,.318-.524,1.019,1.019,0,0,1,.437-.452.459.459,0,0,1,.617.109.454.454,0,0,1,.02.578c-.134.217-.273.434-.418.651s-.3.422-.458.615q-.637.831-1.314,1.626a16.273,16.273,0,0,1-1.473,1.517q-.756.652-1.672,1.3a14,14,0,0,1-1.951,1.156,10.636,10.636,0,0,1-2.129.778,6.5,6.5,0,0,1-2.21.163,3.955,3.955,0,0,1-2.03-.724,4.675,4.675,0,0,1-1.334-1.5,5.974,5.974,0,0,1-.676-1.916,5.6,5.6,0,0,1-.02-1.934,11,11,0,0,1,.816-2.873,10.7,10.7,0,0,1,1.572-2.585,12.19,12.19,0,0,1,1.254-1.32,6.929,6.929,0,0,1,1.513-1.048,6.6,6.6,0,0,1,1.732-.595,5.287,5.287,0,0,1,1.951,0,2.594,2.594,0,0,1,1.294.541,3.6,3.6,0,0,1,.876,1.03,3.992,3.992,0,0,1,.458,1.283,4.368,4.368,0,0,1,.039,1.3,5.2,5.2,0,0,1-1.752,3.163,8.122,8.122,0,0,1-3.383,1.825,10.7,10.7,0,0,1-1.851.272,16.411,16.411,0,0,0-2.21.308,5.205,5.205,0,0,0,0,1.807,2.59,2.59,0,0,0,.836,1.481" transform="translate(6.307 3.058)"/><path class="a" d="M143.794,442.291a1.7,1.7,0,0,0-1.508-.018,5.435,5.435,0,0,0-1.467.993,10.587,10.587,0,0,0-1.26,1.392q-.556.741-.846,1.175-.537.759-1.2,1.771a15.48,15.48,0,0,0-1.157,2.115,7.8,7.8,0,0,0-.639,2.186,3.166,3.166,0,0,0,.349,1.989c.331.627.744.9,1.241.83a3.236,3.236,0,0,0,1.507-.7,9.4,9.4,0,0,0,1.4-1.357,11.56,11.56,0,0,0,.888-1.155,31.483,31.483,0,0,0,1.941-3.381q.869-1.752,1.693-3.7a3.755,3.755,0,0,0-.207-1.247,1.543,1.543,0,0,0-.742-.886m5.038.542q-.867,1.266-1.631,2.621t-1.383,2.728a6.717,6.717,0,0,0-.29.651q-.206.506-.475,1.193t-.536,1.464a12.522,12.522,0,0,0-.414,1.446,5.586,5.586,0,0,0-.145,1.139q0,.47.249.506a1.546,1.546,0,0,0,1.032-.254,6.224,6.224,0,0,0,1.054-.814,9.965,9.965,0,0,0,.949-1.029q.434-.544.765-.9.5-.616.95-1.266l.909-1.3c.191-.264.385-.56.578-.885a5.021,5.021,0,0,1,.62-.85.722.722,0,0,1,.5-.234.481.481,0,0,1,.455.234.379.379,0,0,1,0,.47c-.111.145-.208.278-.29.4q-.456.616-.889,1.247t-.888,1.247q-.454.578-.969,1.247t-1.095,1.3a13.251,13.251,0,0,1-1.219,1.174,6.6,6.6,0,0,1-1.383.9,2.023,2.023,0,0,1-1.073.236,1.492,1.492,0,0,1-.785-.326,2.522,2.522,0,0,1-.579-.7,5.593,5.593,0,0,1-.413-.9,3.017,3.017,0,0,1-.248-.977,6.2,6.2,0,0,1,0-1.011,17.363,17.363,0,0,1-1.528,2.024,7.408,7.408,0,0,1-1.9,1.554,2.828,2.828,0,0,1-1.776.433,3.013,3.013,0,0,1-1.466-.6,4.723,4.723,0,0,1-1.115-1.229,4.613,4.613,0,0,1-.641-1.5,5.828,5.828,0,0,1,.1-3.254,15.779,15.779,0,0,1,1.343-3.072,15.96,15.96,0,0,1,1.754-2.458,6.814,6.814,0,0,1,2.459-1.844,9.419,9.419,0,0,1,1.115-.4,6.476,6.476,0,0,1,2.539-.217,2.863,2.863,0,0,1,1.137.361,2.309,2.309,0,0,1,.826.832,5.177,5.177,0,0,1,.455,1.047c.11-.191.226-.39.351-.6s.254-.4.392-.6a2.53,2.53,0,0,1,.516-.686,1.332,1.332,0,0,1,.847-.326,1.28,1.28,0,0,1,.7.127,1.322,1.322,0,0,1,.517.433,1.177,1.177,0,0,1,.206.6.929.929,0,0,1-.187.614" transform="translate(9.495 3.054)"/><path class="a" d="M149.744,450.9q-.454.869-.907,1.918a4.287,4.287,0,0,0-.371,2.063q.041.652.474.742a1.729,1.729,0,0,0,.969-.109,5.13,5.13,0,0,0,1.051-.542,7.825,7.825,0,0,0,.762-.561,16.69,16.69,0,0,0,2.515-2.841q1.07-1.538,2.142-3.095.783-1.736,1.691-3.42t1.854-3.383l.536-1.014a2.392,2.392,0,0,1-.412.036h-.412q-1.073.074-2.165.109t-2.205-.036q-1.443,2.5-2.864,5.012t-2.659,5.12m15.292-13.137a.2.2,0,0,0-.083.146q1.318-.47,2.72-1.122a4.769,4.769,0,0,1,.927-.308,1.684,1.684,0,0,1,1.01.163,1.292,1.292,0,0,1,.8.887,1.033,1.033,0,0,1-.393,1.067,3.814,3.814,0,0,1-.886.506,7.5,7.5,0,0,1-1.093.363q-.578.145-1.175.253t-1.091.218q-.578.109-1.113.217t-1.113.182q-1.526,2.606-2.988,5.229t-2.782,5.337q-.454.869-.907,1.918a4.273,4.273,0,0,0-.371,2.063q.041.652.474.742a1.732,1.732,0,0,0,.969-.109,5.192,5.192,0,0,0,1.051-.542,7.978,7.978,0,0,0,.762-.561,19.727,19.727,0,0,0,2.576-2.914q1.133-1.574,2.205-3.166a.9.9,0,0,1,.329-.29.448.448,0,0,1,.454.036c.274.145.351.326.226.543s-.241.41-.351.579a35.431,35.431,0,0,1-2.266,3.077q-.454.578-1.155,1.429a11.716,11.716,0,0,1-1.545,1.556,7.039,7.039,0,0,1-1.793,1.1,2.571,2.571,0,0,1-1.937.036,1.745,1.745,0,0,1-1.2-1.067,6.39,6.39,0,0,1-.371-1.538,4.293,4.293,0,0,1,.083-1.665l-.124.145q-.452.578-1.154,1.429a11.8,11.8,0,0,1-1.546,1.556,7.019,7.019,0,0,1-1.793,1.1,2.571,2.571,0,0,1-1.937.036,1.75,1.75,0,0,1-1.2-1.067,6.506,6.506,0,0,1-.371-1.538,5.029,5.029,0,0,1,.207-2.135q.33-1.012.783-2.063a38.9,38.9,0,0,1,1.876-4.017q1.05-1.955,2.122-3.908l.619-1.231-.516-.126a1.824,1.824,0,0,1-.433-.164.621.621,0,0,1-.452-.2.394.394,0,0,1-.083-.343.5.5,0,0,1,.226-.308.759.759,0,0,1,.516-.091,5.987,5.987,0,0,0,.659.109,6.053,6.053,0,0,1,.659.109q.287-.58.6-1.122c.207-.361.419-.736.639-1.122a2.984,2.984,0,0,1,.558-.8,1.24,1.24,0,0,1,1.009-.326,1.309,1.309,0,0,1,1.072.579.99.99,0,0,1,.041,1.122l-1.03,1.772q1.4-.072,2.782-.272t2.7-.488l.907-1.593a2.979,2.979,0,0,1,.556-.8,1.241,1.241,0,0,1,1.01-.326,1.305,1.305,0,0,1,1.071.579.986.986,0,0,1,.042,1.121" transform="translate(12.11 2.085)"/><path class="a" d="M170.527,442.291a1.665,1.665,0,0,0-1.453.018,4.984,4.984,0,0,0-1.393.994,12.028,12.028,0,0,0-1.194,1.373q-.539.723-.816,1.157-.517.759-1.155,1.771a15.62,15.62,0,0,0-1.114,2.115,8.072,8.072,0,0,0-.617,2.186,3.271,3.271,0,0,0,.337,1.989q.479.939,1.2.83a3.055,3.055,0,0,0,1.453-.7,9.285,9.285,0,0,0,1.353-1.355,11.328,11.328,0,0,0,.856-1.157,31.644,31.644,0,0,0,1.872-3.379q.836-1.752,1.631-3.7a3.9,3.9,0,0,0-.2-1.247,1.5,1.5,0,0,0-.756-.886m-1.273,11.277a3.076,3.076,0,0,1-.239-.977,6.5,6.5,0,0,1,0-1.012,17.075,17.075,0,0,1-1.473,2.025,7.218,7.218,0,0,1-1.831,1.554,2.647,2.647,0,0,1-1.711.433,2.845,2.845,0,0,1-1.413-.6,4.635,4.635,0,0,1-1.075-1.229,4.682,4.682,0,0,1-.617-1.5,6.037,6.037,0,0,1,.1-3.253,16.224,16.224,0,0,1,1.295-3.073,15.991,15.991,0,0,1,1.691-2.457,6.61,6.61,0,0,1,2.368-1.844,8.992,8.992,0,0,1,1.076-.4,5.922,5.922,0,0,1,1.213-.235,6.078,6.078,0,0,1,1.234.018,2.687,2.687,0,0,1,1.095.361,2.267,2.267,0,0,1,.8.831,5.293,5.293,0,0,1,.438,1.049c.107-.193.219-.393.339-.6s.245-.4.378-.6a2.532,2.532,0,0,1,.5-.687,1.259,1.259,0,0,1,.816-.326,1.189,1.189,0,0,1,.676.127,1.272,1.272,0,0,1,.5.433,1.215,1.215,0,0,1,.2.6.957.957,0,0,1-.179.615q-.836,1.266-1.572,2.621t-1.333,2.728q-.081.217-.477,1.175t-.757,2.061a13.091,13.091,0,0,0-.5,2.006c-.093.6.007.939.3,1.012a1.936,1.936,0,0,0,1.374-.145,3.877,3.877,0,0,0,1.194-.939,7.1,7.1,0,0,0,.955-1.428,8.191,8.191,0,0,0,.638-1.645,6.97,6.97,0,0,0,.238-1.572,2.314,2.314,0,0,0-.219-1.174q-.16-.289.06-.416a.882.882,0,0,1,.577-.072,1.565,1.565,0,0,1,.737.361,1.911,1.911,0,0,1,.577.885,2.956,2.956,0,0,1-.179,1.9,9.209,9.209,0,0,1-1.194,2.17,9.892,9.892,0,0,1-1.811,1.9A5.458,5.458,0,0,1,172,455.339a2.021,2.021,0,0,1-1.831-.29,3.433,3.433,0,0,1-.915-1.481" transform="translate(14.834 3.054)"/><path class="a" d="M133.581,443.748a8.8,8.8,0,0,0,2.818-2.179,11.761,11.761,0,0,0,2.781-5.074,3.925,3.925,0,0,0,.079-1.4l-.158-.1c-.11-.16-.218-.16-.458-.035-1.146.693-3.235,4.339-5.062,8.782m-.3.761c-1.927,4.919-2.781,8.986-2.122,10.1.126.255.306.415.9.132a27.394,27.394,0,0,0,4.3-5.16.435.435,0,0,1,.5-.157.273.273,0,0,1,.127.414c-3.084,4.468-5.527,6.744-7.313,6.735-.572,0-1.3-.294-1.48-1.631a11.527,11.527,0,0,1,.3-3.623,52.229,52.229,0,0,1,4.2-11.489c2.69-5.488,4.358-6.623,5.251-6.619a1.936,1.936,0,0,1,1.828,1,3.67,3.67,0,0,1,.126,2.29,12.334,12.334,0,0,1-2.956,5.391,8.751,8.751,0,0,1-3.659,2.62" transform="translate(8.428 1.526)"/><path class="a" d="M110.355,459.555a1.628,1.628,0,0,0,1.869-.562,9.416,9.416,0,0,0,1.811-4.188,3.571,3.571,0,0,0-1.391.661,5.683,5.683,0,0,0-2.289,4.09m11.039-9.671c-1.91,3.139-3.5,4.083-4.868,4.458a16.492,16.492,0,0,1-2.355,5.426,3.34,3.34,0,0,1-2.561,1.639,1.754,1.754,0,0,1-1.917-1.25c-.372-1.465.793-3.78,2.544-5.137a4.613,4.613,0,0,1,1.936-.881,29.586,29.586,0,0,0,.427-3.56,6.234,6.234,0,0,1-1.02,1.617,5.006,5.006,0,0,1-3.915,1.791c-3.927-.02-5.7-2.288-4.882-6.2a22.262,22.262,0,0,1,5.4-9.543c2.959-3.2,6.132-5.022,8.7-5.009a2.95,2.95,0,0,1,1.887.552h.035c.03.032.065.032.093.065a2.5,2.5,0,0,1,.737,2.452,4.055,4.055,0,0,1-1.531,2.345,5.8,5.8,0,0,1-3.433,1.03.269.269,0,0,1-.29-.32.439.439,0,0,1,.422-.316,4.569,4.569,0,0,0,2.9-.875,3.145,3.145,0,0,0,1.213-1.869,1.828,1.828,0,0,0-.651-2.008c-1.272-.579-3.043.366-4.307,1.28-4.721,3.411-9.961,11.682-8.785,15.44.471,1.5,1.9,2.173,4.235,1.963.072,0,.107,0,.136.034a4.259,4.259,0,0,0,1.49-1.137,6.428,6.428,0,0,0,1.132-6.068c-.081-.128-.077-.318.262-.571a8.194,8.194,0,0,1,.919-.631c.567-.316.85-.474,1.06-.281.029.032.086.1.073.16,1.162,1.787,1.033,5.634.185,9.159,1.187-.375,2.458-1.322,4.09-3.984a.441.441,0,0,1,.5-.189.3.3,0,0,1,.128.414" transform="translate(3.795 1.531)"/></g></g></svg>