<svg xmlns="http://www.w3.org/2000/svg" width="39.73" height="84.788" viewBox="0 0 39.73 84.788"><defs><style>.a{fill:#006198;}</style></defs><g transform="translate(-514 -879.882)"><g transform="matrix(1, -0.017, 0.017, 1, 514, 880.55)"><path class="a" d="M295.939,1527.726c-.718-2.233-2.615-3.7-5.342-4.141l-.723-.118.353-.642a7.62,7.62,0,0,0,.588-5.738c-1.1-3.8-4.7-3.839-6.846-3.861l-.843-.007.389-.748a10.652,10.652,0,0,0,1.129-6.935c-.4-1.764-1.72-4.075-5.7-5.072a18.184,18.184,0,0,0-4.434-.5c-.648,0-1.308.028-1.958.085h0a.877.877,0,0,0-.194,1.714,3.975,3.975,0,0,1,2.887,2.765c.444,1.912-.117,4.578-8.485,8.25-2.564,1.126-4.128,2.69-4.644,4.652-.62,2.346.393,4.678,1.354,6.222l.363.587-.664.185a8.383,8.383,0,0,0-2.549,1.192,5.378,5.378,0,0,0-2.436,4.5,7.011,7.011,0,0,0,1.666,4.894l.239.266-.164.317a1.683,1.683,0,0,0-.189.77v1.613a5.937,5.937,0,0,0,4.356,5.708l.285.079,10.287,38.358a2.676,2.676,0,0,0,5.168,0l10.287-38.358.285-.079a5.935,5.935,0,0,0,4.358-5.708v-1.613a1.684,1.684,0,0,0-.177-.745l-.164-.331.258-.262C296.484,1533.192,296.91,1530.738,295.939,1527.726Zm-17.527,54.014a1.212,1.212,0,0,1-2.343,0v0l-2.223-8.291.975.414c1.511.637,3.1,1.257,4.721,1.842l.449.16Zm4.057-15.12-1.639-.626a.735.735,0,0,0-.524,1.373l1.787.656-1.724,6.431-.531-.192c-2.227-.814-4.331-1.664-6.254-2.528l-.224-.1-2.268-8.454,1.042.541q1.339.693,2.7,1.323a.732.732,0,0,0,.616-1.327c-1.55-.726-3.123-1.522-4.68-2.364l-.2-.105-2.422-9.046,1.121.71a78.407,78.407,0,0,0,14.466,7.189l.44.165Zm2.085-7.78-.533-.2a75.332,75.332,0,0,1-16.3-8.509l-.157-.108-1.644-6.128h4.025l.134.1a69.415,69.415,0,0,0,15.722,8.428l.435.165Zm2.061-7.674-.538-.207a68.931,68.931,0,0,1-12.131-6.111l-1.5-.953h16.116Zm6.341-16.582-.137.1h-21.2a.734.734,0,0,0,0,1.468h21.677v1.827a4.469,4.469,0,0,1-3.853,4.413,2.824,2.824,0,0,1-.331.025,1.836,1.836,0,0,1-.26.01H265.638a2.519,2.519,0,0,1-.316-.014,1.861,1.861,0,0,1-.267-.022,4.469,4.469,0,0,1-3.863-4.413v-1.827h4.575a.734.734,0,0,0,0-1.468h-4.129l-.14-.112a5.329,5.329,0,0,1-1.858-4.447c.018-3.229,3.576-4.332,4.821-4.465l.278-.029.333.193a18.853,18.853,0,0,0,1.475,1.652.729.729,0,0,0,1.229-.562.706.706,0,0,0-.228-.5,33.972,33.972,0,0,1-2.457-2.938c-.835-1.206-2.134-3.52-1.567-5.665.4-1.516,1.686-2.755,3.821-3.687,4.912-2.152,10.411-5.224,9.319-9.917a4.711,4.711,0,0,0-.887-1.865l-.739-.935,1.188.1c4,.336,6.417,1.842,6.994,4.352a9.354,9.354,0,0,1-1.177,6.264c-.023.04-1.814,2.984-3.894,3.95a.736.736,0,0,0-.355.972.708.708,0,0,0,.979.352,9.758,9.758,0,0,0,3.13-2.6l.155-.182.483.041c.286.027.7.032,1.131.039l.258.005c2.651.021,4.742.243,5.48,2.8a6.151,6.151,0,0,1-.559,4.784,23.74,23.74,0,0,1-3.663,3.893.725.725,0,0,0-.262.491.716.716,0,0,0,.163.534.746.746,0,0,0,1.022.106,21.511,21.511,0,0,0,2.357-2.267l.219-.242.312.093a1.283,1.283,0,0,0,.233.035c2.815.1,4.664,1.223,5.318,3.249C295.458,1531,294.92,1533.155,292.955,1534.583Z" transform="translate(-258.178 -1499.967)"/></g></g></svg>