<svg xmlns="http://www.w3.org/2000/svg" width="52.994" height="54.302" viewBox="0 0 52.994 54.302"><defs><style>.a{fill:#006198;}</style></defs><path class="a" d="M-746.317,4405.319a15.166,15.166,0,0,0,1.979-2.171c1.481-1.891,1.481-2.434,1.481-2.612,0-.3.005-.588.011-.873l0-.152c.059-2.757-.119-4.447-3.068-4.681l-.181-.016-.494-.376a18.5,18.5,0,0,0-3.594-2.3,8.4,8.4,0,0,0-2.865-.45,9.933,9.933,0,0,1-2.378-.3,15.909,15.909,0,0,1-3.118-1.549,6.264,6.264,0,0,0-2.547-1.1c-1.277-.125-1.789-1.936-2.094-3.018l-.058-.2c-.054-.184-.125-.565-.191-.934a6.527,6.527,0,0,0-.735-2.475,1.767,1.767,0,0,0-2-.607,2.181,2.181,0,0,0-1.215,2.328l.006.1-.029.1a1.74,1.74,0,0,1-.923.954,1.427,1.427,0,0,1-1.312.016,2.837,2.837,0,0,0-3.039.277,4.46,4.46,0,0,1-2.578.727l-.724-.042.147-.712c.044-.214.107-.468.158-.665a5.915,5.915,0,0,0,.276-2.171,1.856,1.856,0,0,0-1.343-1.547,2.4,2.4,0,0,0-2.537,1.163c-.378.482-1.214.545-2.612.481-1.073-.046-1.566-.021-1.792.412a.946.946,0,0,0,.228,1.019,7.317,7.317,0,0,1,.512,1.06l.24.6-.609.221a5.934,5.934,0,0,0-.684.313,2.308,2.308,0,0,1-1.041.345,1.979,1.979,0,0,1-1.266-.761,3.351,3.351,0,0,0-3.415-.541,1.712,1.712,0,0,0-1.219,1.579,2.276,2.276,0,0,0,.394,1.147c.492.879.828,1.776-.038,3.868a2.148,2.148,0,0,0,.086,1.426l.24.8-.835.008c-.122,0-.282,0-.479-.016-1.62-.1-3.05,1.273-3.766,2.69a3.064,3.064,0,0,0-.149,3.072l.1.215a5.6,5.6,0,0,0,1.053,2.286,4.746,4.746,0,0,0,2.014,1.326l.311.118a8.9,8.9,0,0,0,1.52.394l.137.013.12.067c.081.046.24.166.353.251a1.884,1.884,0,0,0,2.775-.044,13.64,13.64,0,0,1,1.3-1l.874-.543.082,1.026c.009.108.015.242.015.4,0,1.7,2.849,2.607,4.734,3.209.313.1.494.156.638.207l.994.343.114.143a7.291,7.291,0,0,0,.756.822l.174.162.049.528c.033.384.073.832.141,1.385.106.865.746,1.067,1.449,1.211a1.771,1.771,0,0,1,.765.26l.125.132a.937.937,0,0,1,.153.458,11.015,11.015,0,0,1-.119,1.953,20.809,20.809,0,0,0-.162,2.143c0,.918.22,1.406.678,1.538a2.5,2.5,0,0,1,1.709,1.461,2.412,2.412,0,0,0,1.809,1.483c.693.128.786.914.877,1.674a4.325,4.325,0,0,0,.147.823.881.881,0,0,0,.427.55l.493.254-.191.521a1.581,1.581,0,0,1-1.105,1.034,8.12,8.12,0,0,0-2.315,1.743c-.179.161-.334.3-.432.384-.65.552-.6.988-.588,1.13.071.66.736,1.048,1.816,1.626a7.618,7.618,0,0,1,2.763,2.079,3.3,3.3,0,0,1,.184.364c.267.6.539,1.118,1.105,1.214a1,1,0,0,0,.177.015,2.216,2.216,0,0,0,1.417-.836c.533-.564,1.718-1.915,2.8-3.329,1.889-2.468,2.107-3.341,2.107-3.783a5.513,5.513,0,0,1,2.411-4.7,10.189,10.189,0,0,1,3.445-1.4c.59-.146,1.256-.31,2.157-.616a4.976,4.976,0,0,0,1.95-1.55.461.461,0,0,0,.108-.334.457.457,0,0,0-.16-.31.464.464,0,0,0-.335-.109.45.45,0,0,0-.311.16,4.2,4.2,0,0,1-1.547,1.275c-.857.294-1.506.453-2.078.594a11.077,11.077,0,0,0-3.7,1.512,6.354,6.354,0,0,0-2.853,5.47c-.187,1.308-3.45,5.218-4.659,6.5l-.825.809-.343-.882a3.387,3.387,0,0,0-.3-.575,8.413,8.413,0,0,0-3.082-2.362c-.285-.154-.555-.3-.769-.43l-.731-.441.879-.78a15.653,15.653,0,0,1,1.814-1.488l.152-.061a2.555,2.555,0,0,0,1.843-2.508,1.065,1.065,0,0,0-.575-.922l-.31-.145-.08-.593c-.127-1.072-.368-2.234-1.621-2.467-.678-.125-.874-.481-1.172-1.022a3.379,3.379,0,0,0-1.872-1.77l-.369-.143-.072-1.708,1.311.843a.472.472,0,0,0,.5,0l20.237-12.993a.455.455,0,0,0,.21-.386.456.456,0,0,0-.211-.385l-20.236-12.993a.455.455,0,0,0-.5,0l-19.344,12.421-.317-.157a3.216,3.216,0,0,1-1.125-.824,4.652,4.652,0,0,1-.868-1.889,1.14,1.14,0,0,0-.2-.5,2.158,2.158,0,0,1,.167-2.2c.579-1.143,1.76-2.272,2.884-2.187.706.046,1.567.039,1.972-.467.333-.417.223-.9.045-1.5a4.066,4.066,0,0,1-.139-.577l-.014-.154.057-.142c1.073-2.638.409-3.825-.031-4.611l-.043-.077h-.236v-.548l-.056-.221.2-.244a1.723,1.723,0,0,1,1.134-.494,2.237,2.237,0,0,1,1.777.475c1.486,1.569,2.539,1.034,3.387.6a2.217,2.217,0,0,1,1.165-.359.567.567,0,0,0,.568-.3c.123-.224.178-.575-.24-1.625-.038-.093-.089-.217-.148-.353l-.4-.914,1,.037c1.141.05,2.411.019,3.083-.844.517-.664,1.1-.967,1.58-.841a.953.953,0,0,1,.67.793,5.273,5.273,0,0,1-.259,1.814c-.336,1.329-.381,2.065.305,2.407a.343.343,0,0,0,.108.036,5.155,5.155,0,0,0,3.905-.718c.905-.488,1.373-.7,2.174-.276a2.413,2.413,0,0,0,2.454-.172,2.252,2.252,0,0,0,1.154-1.835c-.04-.737.19-1.274.614-1.437a.843.843,0,0,1,.943.285,6.36,6.36,0,0,1,.575,2.1c.077.427.138.769.212,1.027l.056.195c.345,1.223.987,3.5,2.886,3.682a5.674,5.674,0,0,1,2.163.972,16.909,16.909,0,0,0,3.287,1.63,10.358,10.358,0,0,0,2.622.35,7.938,7.938,0,0,1,2.536.365,17.676,17.676,0,0,1,3.42,2.19c.588.458.734.558.947.568,1.539.075,1.973.568,2.179.991a6.628,6.628,0,0,1,.265,2.763c-.007.321-.013.64-.014.978l-.033.2a16.266,16.266,0,0,1-3.056,3.923c-2.719,2.022-2.58,2.99-2.4,4.212a5.638,5.638,0,0,1,.082,1.226.457.457,0,0,0,.43.485.47.47,0,0,0,.485-.43,6.582,6.582,0,0,0-.088-1.411,2.2,2.2,0,0,1,.074-1.361A6.2,6.2,0,0,1-746.317,4405.319Zm-32.7-1.695a6.414,6.414,0,0,1,.174-1.474l.1-.435.444-.045c4.389-.447,8.844.847,11.623,3.38l.305.277-.135.392a6.439,6.439,0,0,1-6.08,4.338A6.442,6.442,0,0,1-779.019,4403.625Zm.544-2.909.828-1.053a6.394,6.394,0,0,1,5.061-2.471,6.427,6.427,0,0,1,6.389,5.7l.159,1.395-1.145-.812a16.553,16.553,0,0,0-9.953-2.8Zm5.888-9.539,19.389,12.448-19.389,12.45-1.363-.877.04-.384a9.181,9.181,0,0,0,.08-1.793,1.741,1.741,0,0,0-.476-1.077l-1.409-1.383,1.949.317a7.366,7.366,0,0,0,8.32-5.513l.642,0-.611-.137a7.322,7.322,0,0,0,.179-1.607,7.356,7.356,0,0,0-7.349-7.348,7.377,7.377,0,0,0-6.906,4.836l-.042.123a7.3,7.3,0,0,0-.4,2.39,7.351,7.351,0,0,0,.282,2.01l.324,1.138-1.123-.372a16.929,16.929,0,0,1-1.913-.738c-1.018-.484-1.373-.89-1.49-1.143l-.059-.125v-.139c0-.392,0-1.584-.779-1.947-.869-.408-1.956.5-3,1.374a2.78,2.78,0,0,1-.275.207l-.059.348-.649-.149a1.721,1.721,0,0,1-.612-.365,3.794,3.794,0,0,0-.535-.371l-.944-.5Z" transform="translate(795.829 -4380.815)"/><path class="a" d="M-753.94,4410.9a.51.51,0,0,0-.118-.016.46.46,0,0,0-.229.062.457.457,0,0,0-.213.278.46.46,0,0,0,.325.562.463.463,0,0,0,.56-.326.448.448,0,0,0-.046-.346A.456.456,0,0,0-753.94,4410.9Z" transform="translate(800.183 -4377.646)"/></svg>