<svg xmlns="http://www.w3.org/2000/svg" xmlns:xlink="http://www.w3.org/1999/xlink" width="47.826" height="47.827" viewBox="0 0 47.826 47.827"><defs><style>.a{fill:url(#a);}.b{fill:url(#b);}</style><linearGradient id="a" x1="-2.22" y1="-7.688" x2="1.702" y2="4.112" gradientUnits="objectBoundingBox"><stop offset="0" stop-color="#45a735"/><stop offset="1" stop-color="#004cac"/></linearGradient><linearGradient id="b" x1="-5.603" y1="-9.409" x2="3.211" y2="4.771" xlink:href="#a"/></defs><g transform="translate(-349.814 -1086.9)"><g transform="translate(349.814 1086.9)"><path class="a" d="M373.728,1134.726a23.837,23.837,0,0,1-6.573-.922.345.345,0,0,1-.237-.427.341.341,0,0,1,.427-.236,23.224,23.224,0,1,0-16.842-22.329c0,8.825,6,17.7,14.588,21.574a.345.345,0,1,1-.284.629c-8.828-3.985-14.993-13.115-14.993-22.2a23.913,23.913,0,1,1,23.914,23.914Z" transform="translate(-349.814 -1086.9)"/></g><g transform="translate(361.844 1094.019)"><path class="b" d="M366.182,1133.187a.336.336,0,0,1-.194-.06.345.345,0,0,1-.09-.48l15.15-22.125-7.964.241a.388.388,0,0,1-.3-.157.348.348,0,0,1-.021-.337l7-14.524-17.868,19.789,9,.109a.345.345,0,0,1,.313.483l-7.009,16.082a.345.345,0,0,1-.632-.275l6.8-15.606-9.249-.112a.342.342,0,0,1-.312-.206.346.346,0,0,1,.059-.37l19.99-22.137a.345.345,0,0,1,.567.381l-7.792,16.174,8.074-.245a.36.36,0,0,1,.314.179.348.348,0,0,1-.019.361l-15.533,22.686A.347.347,0,0,1,366.182,1133.187Z" transform="translate(-360.777 -1093.388)"/></g></g></svg>