<svg xmlns="http://www.w3.org/2000/svg" width="53.387" height="51" viewBox="0 0 53.387 51"><defs><style>.a{fill:#0091cd;}</style></defs><g transform="translate(-1028 -2156)"><g transform="translate(677.862 1456.79)"><g transform="translate(350.138 699.21)"><path class="a" d="M403.135,730.568H400.4a.39.39,0,1,1,0-.781h2.348v-29.8H350.919v29.8h24.258a.39.39,0,0,1,0,.781H350.528a.39.39,0,0,1-.39-.39V699.6a.39.39,0,0,1,.39-.39h52.606a.39.39,0,0,1,.39.39v30.577A.39.39,0,0,1,403.135,730.568Z" transform="translate(-350.138 -699.21)"/></g><g transform="translate(356.541 701.689)"><path class="a" d="M355.679,711.291a.392.392,0,0,1-.252-.69l11.015-9.306a.391.391,0,0,1,.5.6L355.931,711.2A.4.4,0,0,1,355.679,711.291Z" transform="translate(-355.288 -701.203)"/></g><g transform="translate(351.698 701.17)"><path class="a" d="M351.784,719.327a.391.391,0,0,1-.255-.688l20.7-17.757a.391.391,0,1,1,.509.593l-20.7,17.757A.388.388,0,0,1,351.784,719.327Z" transform="translate(-351.393 -700.786)"/></g><g transform="translate(376.707 710.005)"><g transform="translate(17.989 19.276)"><path class="a" d="M388.175,744.323h-1.812a.391.391,0,0,1,0-.782h1.421v-1.507a6.7,6.7,0,0,1,.987-3.5l.535-.875a5.922,5.922,0,0,0,.873-3.1v-7.271c0-.041.1-1.948-.788-2.758a1.513,1.513,0,0,0-1.332-.323.383.383,0,0,1-.445-.327.389.389,0,0,1,.327-.445,2.281,2.281,0,0,1,1.978.518c1.164,1.063,1.046,3.265,1.041,3.36v7.247a6.693,6.693,0,0,1-.987,3.5l-.535.875a5.925,5.925,0,0,0-.873,3.1v1.9A.391.391,0,0,1,388.175,744.323Z" transform="translate(-385.973 -723.395)"/></g><g transform="translate(16.121 16.989)"><path class="a" d="M387.372,728.593a.39.39,0,0,1-.39-.391v-4.957h0a1.518,1.518,0,0,0-.614-.771,1.676,1.676,0,0,0-1.371.022.391.391,0,0,1-.266-.736,2.39,2.39,0,0,1,2.022.034,2.205,2.205,0,0,1,1,1.36l.009,5.048A.39.39,0,0,1,387.372,728.593Z" transform="translate(-384.47 -721.555)"/></g><g transform="translate(11.485 14.645)"><path class="a" d="M384.776,727.416a.39.39,0,0,1-.39-.39v-5.354a2.1,2.1,0,0,0-1.153-1.164,2.187,2.187,0,0,0-1.869.546.392.392,0,1,1-.461-.633,2.9,2.9,0,0,1,2.563-.66,2.94,2.94,0,0,1,1.679,1.7.4.4,0,0,1,.022.133v5.432A.391.391,0,0,1,384.776,727.416Z" transform="translate(-380.742 -719.67)"/></g><g transform="translate(0 6.474)"><path class="a" d="M386.149,746.829h-7.068a.39.39,0,0,1-.387-.451c.959-6.085-5.812-16.192-5.879-16.292-.772-1.031-1.228-1.631-1.23-1.633a.385.385,0,0,1-.078-.274,3.69,3.69,0,0,1,1.248-2.482,1.9,1.9,0,0,1,1.723-.128c1.564.551,3.27,2.648,4.211,3.95v-14.5a.408.408,0,0,1,.019-.122,2.565,2.565,0,0,1,2.476-1.8h.022a2.563,2.563,0,0,1,2.467,1.835l.1,1.5v9.89a.39.39,0,1,1-.781,0v-9.868l-.08-1.385a1.768,1.768,0,0,0-1.71-1.191h-.015a1.776,1.776,0,0,0-1.715,1.2v15.7a.392.392,0,0,1-.722.208c-.024-.04-2.522-3.982-4.529-4.687a1.131,1.131,0,0,0-1.043.049,2.723,2.723,0,0,0-.873,1.752c.174.228.573.757,1.146,1.523.292.43,6.713,10.019,6.074,16.416h6.624a.391.391,0,0,1,0,.782Z" transform="translate(-371.505 -713.099)"/></g><g transform="translate(3.973 3.213)"><path class="a" d="M375.85,719.141a.388.388,0,0,1-.342-.2,6.823,6.823,0,0,1-.556-4.908,5.982,5.982,0,0,1,3.357-3.516.391.391,0,1,1,.338.7,5.243,5.243,0,0,0-2.948,3.044,6.143,6.143,0,0,0,.492,4.3.39.39,0,0,1-.342.579Z" transform="translate(-374.701 -710.476)"/></g><g transform="translate(0.456)"><path class="a" d="M374.115,722.077a.39.39,0,0,1-.267-.106c-.113-.106-2.753-2.647-1.748-7.459a8.53,8.53,0,0,1,6.895-6.62.391.391,0,0,1,.053.781,7.8,7.8,0,0,0-6.182,6c-.916,4.388,1.492,6.707,1.517,6.731a.39.39,0,0,1-.267.675Z" transform="translate(-371.872 -707.892)"/></g><g transform="translate(11.692 3.213)"><path class="a" d="M383.928,719.141a.39.39,0,0,1-.342-.579,6.136,6.136,0,0,0,.492-4.3,5.239,5.239,0,0,0-2.948-3.044.391.391,0,1,1,.338-.7,5.982,5.982,0,0,1,3.357,3.516,6.823,6.823,0,0,1-.556,4.908A.388.388,0,0,1,383.928,719.141Z" transform="translate(-380.908 -710.476)"/></g><g transform="translate(11.839)"><path class="a" d="M386.324,722.077a.39.39,0,0,1-.284-.66c.021-.022,2.147-2.328,1.527-6.772a7.29,7.29,0,0,0-6.15-5.972.39.39,0,1,1,0-.781,8,8,0,0,1,6.925,6.646c.675,4.839-1.639,7.316-1.736,7.419A.391.391,0,0,1,386.324,722.077Z" transform="translate(-381.027 -707.892)"/></g></g></g></g></svg>