<svg xmlns="http://www.w3.org/2000/svg" width="81.23" height="66.608" viewBox="0 0 81.23 66.608"><defs><style>.a{fill:#f2f2f2;}.b{fill:#898c8d;}</style></defs><g transform="translate(-1185 -1163.29)"><g transform="translate(-20.804)"><rect class="a" width="43" height="51" rx="10" transform="matrix(0.799, 0.602, -0.602, 0.799, 1252.693, 1163.29)"/><g transform="translate(1199.016 1146.972)"><path class="b" d="M60.49,29.712a1.143,1.143,0,0,0-.818-.254l-3.241,0q-6.3,0-12.6.006c-.3,0-.6,0-.905-.009a15.1,15.1,0,0,0-2.867.134,3.71,3.71,0,0,0-3.117,2.993q-1.357,5.687-2.692,11.4l-1.081,4.6H24.392l-.023-.476c-.008-.137-.017-.274-.017-.41l-.007-2.344c-.007-1.906-.016-3.879.016-5.819a2.947,2.947,0,0,0-.952-2.209,2.734,2.734,0,0,0-2.027-.793c-.832.063-1.677.046-2.494.034-.417-.007-.837-.017-1.25-.012a.721.721,0,0,0-.782.643c-.029.366.244.658.695.742a1.417,1.417,0,0,1,1.312,1.445q.008,3.377,0,6.755V47.95a2.046,2.046,0,0,1-.019.238l-.043.434H16.682a5.874,5.874,0,0,0-4.274,1.62,5.835,5.835,0,0,0-1.6,4.25l0,.741c0,.957.008,1.915-.011,2.871a1.1,1.1,0,0,1-.417.821,7.729,7.729,0,0,0-3.508,5.35.478.478,0,0,1-.086.2v2.1c.043.146.083.293.123.441.094.339.186.678.305,1.008a7.744,7.744,0,0,0,14.928-.977c.028-.129.06-.256.1-.4l.117-.465H37.49c.777,0,.946-.171.956-.959.008-.607.009-1.214.01-1.822,0-1.422,0-2.893.1-4.337a14.563,14.563,0,0,1,4.517-9.6,15.133,15.133,0,0,1,10.915-4.453c.788,0,1.576,0,2.365,0s1.576,0,2.364,0a1.042,1.042,0,0,0,.75-.232.645.645,0,0,0,.165-.481c0-.17-.007-.684-.881-.7-.642-.011-1.284-.008-1.939-.006l-1.174,0V30.884H58.3c.455,0,.909,0,1.363,0,1-.008,1-.533,1-.706A.629.629,0,0,0,60.49,29.712ZM20.258,37.93h.724a2.091,2.091,0,0,1,1.511.4,2.068,2.068,0,0,1,.409,1.5l0,7.85c0,.135-.008.27-.017.406l-.024.484h-2.6ZM14.55,71.84h-.025a6.342,6.342,0,0,1-4.515-1.9,6.275,6.275,0,0,1-1.835-4.484,6.4,6.4,0,0,1,6.356-6.323h.032a6.248,6.248,0,0,1,4.454,1.849A6.359,6.359,0,0,1,14.55,71.84ZM40.162,50.7a2.188,2.188,0,0,1-.119.207,16.914,16.914,0,0,0-2.989,10.334c.026.725.019,1.453.012,2.189,0,.34-.006.68-.006,1.024v.315H22.316l-.045-.263a7.787,7.787,0,0,0-3.36-5.431,7.658,7.658,0,0,0-6.271-1.131l-.386.089V55.085l1.975,0c.79,0,1.584,0,2.375-.014a.656.656,0,0,0,.666-.669.708.708,0,0,0-.7-.714c-.137-.007-.276,0-.414,0l-.217,0H12.2l.141-.417c.039-.113.071-.218.1-.315a4.219,4.219,0,0,1,.207-.572,4.016,4.016,0,0,1,4.03-2.318h.009q8.444.007,16.891,0h6.927Zm14-7.182-.285.027c-.3.028-.592.051-.882.072-.618.047-1.2.092-1.778.188a16.972,16.972,0,0,0-8.987,4.482,1.047,1.047,0,0,1-.657.324c-1.3.009-2.608.011-3.924.011H34.736l.036-.519a1.705,1.705,0,0,1,.034-.305l.4-1.677q1.538-6.528,3.085-13.056A2.641,2.641,0,0,1,41.1,30.885H54.161Z" transform="translate(0 0)"/><path class="b" d="M56.608,49.063h-.033a12.65,12.65,0,0,0-9.084,3.764A13.127,13.127,0,0,0,43.755,62.1a12.892,12.892,0,0,0,12.6,12.591h.009A12.971,12.971,0,0,0,69.39,62.043,12.746,12.746,0,0,0,65.6,52.812,12.433,12.433,0,0,0,56.608,49.063Zm7.946,20.909a11.194,11.194,0,0,1-7.891,3.286h-.095A11.479,11.479,0,0,1,48.407,69.8a11.255,11.255,0,0,1-3.246-8.059,11.413,11.413,0,0,1,22.825.186A11.335,11.335,0,0,1,64.554,69.972Z" transform="translate(-2.672 -1.418)"/><path class="b" d="M13.295,68.176a1.721,1.721,0,0,0,.522,1.211,1.64,1.64,0,0,0,1.195.511,1.751,1.751,0,0,0,1.721-1.726,1.655,1.655,0,0,0-.491-1.2,1.729,1.729,0,0,0-2.947,1.2Z" transform="translate(-0.47 -2.677)"/><path class="b" d="M57.434,61.058h0a1.719,1.719,0,0,0-1.238.489,1.656,1.656,0,0,0-.463,1.193,1.707,1.707,0,0,0,1.713,1.707h.006a1.666,1.666,0,0,0,1.187-.484,1.724,1.724,0,0,0,.5-1.231,1.648,1.648,0,0,0-.466-1.2A1.722,1.722,0,0,0,57.434,61.058Z" transform="translate(-3.538 -2.285)"/></g></g></g></svg>