<svg xmlns="http://www.w3.org/2000/svg" width="86.053" height="66.608" viewBox="0 0 86.053 66.608"><defs><style>.a{fill:#f2f2f2;}.b{fill:#898c8d;}</style></defs><g transform="translate(-812 -1496)"><g transform="translate(174.019)"><rect class="a" width="43" height="51" rx="10" transform="matrix(0.799, 0.602, -0.602, 0.799, 689.693, 1496)"/><g transform="translate(629.912 1477.105)"><path class="b" d="M74.982,64.3V39.285a3.55,3.55,0,0,0-3.618-3.628c-.865,0-1.728,0-2.6,0h-1.3l-.2-.96c-.117-.576-.232-1.139-.344-1.7a1.215,1.215,0,0,0-1.338-1.1q-1.68,0-3.356,0l-4.678.005A1.209,1.209,0,0,0,56.2,32.992c-.113.553-.224,1.106-.336,1.671l-.2,1H52.794q-9.359,0-18.714,0h0a.579.579,0,0,1-.663-.549c-.074-.475-.171-.946-.267-1.418q-.07-.335-.136-.671a1.228,1.228,0,0,0-1.353-1.12q-4.037-.009-8.069,0a1.234,1.234,0,0,0-1.325,1.116c-.106.554-.215,1.108-.329,1.675l-.19.962-5.037,0a3.593,3.593,0,0,0-3.585,2.614Q11.563,43.054,10,47.834l-.637,1.938C9,50.861,8.642,51.949,8.3,53.044a5.288,5.288,0,0,0-.218,1.378c-.021.651-.016,1.3-.012,1.953,0,.411.005.823,0,1.233a3.7,3.7,0,0,0,.5,1.922,1.7,1.7,0,0,1,.213,1.233,20.416,20.416,0,0,0-.341,2.289,1.862,1.862,0,0,0,.167.991l.062.112a20.419,20.419,0,0,0,1.657,2.714,3.042,3.042,0,0,0,2.482,1.08q3.965.008,7.929,0h0a.727.727,0,0,1,.7.391,5.954,5.954,0,0,0,5.318,3.155h.089a5.993,5.993,0,0,0,5.4-3.154.69.69,0,0,1,.655-.395h0q10.105.009,20.211,0a.693.693,0,0,1,.665.381,5.971,5.971,0,0,0,5.349,3.165h.024a5.986,5.986,0,0,0,5.407-3.141.742.742,0,0,1,.716-.4h.009q3.035.014,6.068,0A3.525,3.525,0,0,0,74.982,64.3Zm-17.7-29.4c.078-.363.151-.706.2-1.053a.554.554,0,0,1,.642-.535h.008c1.111.005,2.22,0,3.331,0l1.678,0c.635,0,1.265,0,1.9.007.151,0,.5.09.56.331.1.421.183.848.267,1.284l.138.71H57.126ZM23.658,33.334h7.96l.454,2.307H23.2Zm-9.681,6.92h2.282l-.154.689-1.421,5.883q-.584,2.419-1.176,4.837a.683.683,0,0,1-.341.456c-.773.291-1.551.571-2.365.863l-1.122.4ZM26.922,70.061h-.082a4.861,4.861,0,0,1-3.35-1.374A4.529,4.529,0,0,1,22.062,65.5a4.971,4.971,0,0,1,1.384-3.573,4.605,4.605,0,0,1,3.263-1.411,4.775,4.775,0,1,1,.213,9.546Zm32.383.011h-.071a4.647,4.647,0,0,1-3.356-1.324,4.769,4.769,0,0,1-1.392-3.387,4.693,4.693,0,0,1,4.7-4.653h0a4.686,4.686,0,0,1,4.686,4.666A4.622,4.622,0,0,1,59.3,70.072ZM73.564,64.3a2.128,2.128,0,0,1-2.213,2.231c-1.335,0-2.672,0-4.008,0H65.227l.03-.267a6.157,6.157,0,0,0-5.479-6.956,5.977,5.977,0,0,0-4.491,1.378,6.1,6.1,0,0,0-2.18,5.555l.025.262H32.972l.034-.27a6.3,6.3,0,0,0-1.375-4.887,6.193,6.193,0,0,0-4.388-2.244A6,6,0,0,0,22.71,60.67a6.171,6.171,0,0,0-2.018,5.57l.026.219L20.5,66.5a.758.758,0,0,1-.177.03l-1.853,0H16.139q-1.681,0-3.361-.008a1.982,1.982,0,0,1-1.723-.971c-.329-.515-.636-1.044-.941-1.572a2.025,2.025,0,0,1-.239-1.415l.044-.256a10.412,10.412,0,0,1,.215-1.036,3.09,3.09,0,0,0-.381-2.564,1.694,1.694,0,0,1-.245-.814c-.018-.668-.015-1.335-.012-2.008l0-.9.257-.107c.078-.034.154-.067.231-.095l.614-.222q1.669-.6,3.339-1.2a1.188,1.188,0,0,0,.842-.906q1.451-6.025,2.922-12.046a1.161,1.161,0,0,0-1.241-1.6c-.376,0-.752,0-1.138,0h-.888l.166-.422a1.2,1.2,0,0,1,.081-.189,2.106,2.106,0,0,1,1.9-1.124q2.162-.006,4.325,0H71.179a2.148,2.148,0,0,1,2.386,2.378Q73.566,51.879,73.564,64.3Z" transform="translate(0 0)"/><path class="b" d="M69.631,38.616c-.635,0-1.267,0-1.9,0h-36.9a1.3,1.3,0,0,0-1.458,1.45l0,3.646.005,1.883a1.3,1.3,0,0,0,1.456,1.45l15.031,0,4.534,0h19.2a1.321,1.321,0,0,0,1.461-1.335c.019-1.957.016-3.891-.008-5.748A1.312,1.312,0,0,0,69.631,38.616ZM36.4,45.63H34.931c-1.218,0-2.427,0-3.634.005h0a.548.548,0,0,1-.415-.147.532.532,0,0,1-.132-.409c0-.1.009-.2.015-.3.008-.152.016-.3.018-.456l.009-3.646c0-.09.006-.179.014-.271l.022-.343H36.4Zm12.354-.015H37.874V40.058H48.757ZM61.123,45.6H50.23V40.059H61.123Zm8.488.006H62.584V40.059h7.027Z" transform="translate(0.644 0.203)"/><path class="b" d="M24.284,38.616h0l-3.892,0c-.607,0-.866.254-.866.849v8.474q0,2.128,0,4.255A2.991,2.991,0,0,0,22.6,55.28q2,0,4-.005c.565,0,.817-.256.817-.819V52.165q0-5.237,0-10.473A3,3,0,0,0,24.284,38.616Zm1.7,15.246H22.689A1.6,1.6,0,0,1,20.94,52.1q0-5.732,0-11.464c0-.078.006-.157.011-.242l.02-.36H24.23a1.6,1.6,0,0,1,1.754,1.753V53.862Z" transform="translate(0.346 0.203)"/><path class="b" d="M63.708,60.226a.653.653,0,0,0,.322.768,1.182,1.182,0,0,0,.5.105c.518.01,1.04.007,1.559.006l.608-.005h.634c.5,0,1,0,1.5,0s.8-.278.8-.7a.724.724,0,0,0-.79-.724q-1.167-.008-2.335-.007-1,0-2.007.005A.717.717,0,0,0,63.708,60.226Z" transform="translate(1.683 0.84)"/><path class="b" d="M37.138,61.1c.542,0,1.085.005,1.626-.006a.665.665,0,0,0,.643-.538.68.68,0,0,0-.351-.773,1.02,1.02,0,0,0-.431-.105c-1.471-.009-2.943-.012-4.417,0a.694.694,0,0,0-.72.658.719.719,0,0,0,.178.54.7.7,0,0,0,.512.215c.532.009,1.064.009,1.594.005h.921v0Z" transform="translate(0.769 0.84)"/></g></g></g></svg>