<svg xmlns="http://www.w3.org/2000/svg" width="83.151" height="66.608" viewBox="0 0 83.151 66.608"><defs><style>.a{fill:#f2f2f2;}.b{fill:none;stroke:#898c8d;stroke-miterlimit:10;stroke-width:0.783px;}</style></defs><g transform="translate(-1381.609 -1163.29)"><g transform="translate(-6.38)"><rect class="a" width="43" height="51" rx="10" transform="matrix(0.799, 0.602, -0.602, 0.799, 1436.798, 1163.29)"/><g transform="translate(1388.38 1185.886)"><g transform="translate(3.974 4.445)"><path class="b" d="M22.262,42.825H15.913a.7.7,0,0,1-.7-.7V41.5a.7.7,0,0,1,.7-.7h6.349a.7.7,0,0,1,.7.7v.626A.7.7,0,0,1,22.262,42.825Zm-6.349-1.363a.042.042,0,0,0-.042.042v.626l6.391.042L22.3,41.5Z" transform="translate(-15.216 -40.807)"/></g><path class="b" d="M64.021,60.038H61.26a.328.328,0,1,1,0-.655h2.761a2.017,2.017,0,0,0,2.016-2.016V54.794l.248-.232a1.627,1.627,0,0,0,.517-1.185V38.688a2.017,2.017,0,0,0-2.016-2.015H13.6a2.017,2.017,0,0,0-2.016,2.015V53.377a1.636,1.636,0,0,0,.517,1.187l.247.229v2.574a2.017,2.017,0,0,0,2.016,2.016h2.762a.328.328,0,0,1,0,.655H14.369A2.674,2.674,0,0,1,11.7,57.367l-.038-2.324a2.3,2.3,0,0,1-.726-1.667V38.688a2.674,2.674,0,0,1,2.671-2.67H64.786a2.674,2.674,0,0,1,2.671,2.67V53.377a2.286,2.286,0,0,1-.725,1.664l-.04.037v2.29A2.674,2.674,0,0,1,64.021,60.038Z" transform="translate(-10.934 -36.018)"/><g transform="translate(8.342 23.365)"><path class="b" d="M59.433,61.849H20.25a.328.328,0,0,1,0-.655H59.433a.328.328,0,1,1,0,.655Z" transform="translate(-19.923 -61.194)"/></g></g><g transform="translate(1389.144 1204.476)"><path class="b" d="M66.423,56.7H12.085a.328.328,0,0,1,0-.655H66.423a.328.328,0,0,1,0,.655Z" transform="translate(-11.757 -56.049)"/></g><g transform="translate(1429.086 1211.752)"><path class="b" d="M55.122,75.265a.328.328,0,0,1-.328-.328V64.216a.328.328,0,0,1,.655,0V74.938A.328.328,0,0,1,55.122,75.265Z" transform="translate(-54.794 -63.888)"/></g><g transform="translate(1420.571 1211.752)"><path class="b" d="M45.947,75.265a.328.328,0,0,1-.328-.328V64.216a.328.328,0,0,1,.655,0V74.938A.328.328,0,0,1,45.947,75.265Z" transform="translate(-45.619 -63.888)"/></g><g transform="translate(1412.056 1211.752)"><path class="b" d="M36.772,75.265a.328.328,0,0,1-.328-.328V64.216a.328.328,0,0,1,.655,0V74.938A.328.328,0,0,1,36.772,75.265Z" transform="translate(-36.444 -63.888)"/></g><g transform="translate(1403.541 1211.752)"><path class="b" d="M27.6,75.265a.328.328,0,0,1-.328-.328V64.216a.328.328,0,0,1,.655,0V74.938A.328.328,0,0,1,27.6,75.265Z" transform="translate(-27.269 -63.888)"/></g></g></g></svg>