<svg xmlns="http://www.w3.org/2000/svg" width="74.14" height="66.608" viewBox="0 0 74.14 66.608"><defs><style>.a{fill:#f2f2f2;}.b{fill:#898c8d;}</style></defs><g transform="translate(-463 -1324.29)"><g transform="translate(-5)"><rect class="a" width="43" height="51" rx="10" transform="matrix(0.799, 0.602, -0.602, 0.799, 507.798, 1324.29)"/><g transform="translate(611.029 1396.808)"><path class="b" d="M-83.662-21.8h-13.27l.2-.572a3.126,3.126,0,0,0,.18-1.047v-1.618h6.306a7.291,7.291,0,0,0,7.282-7.282A7.237,7.237,0,0,0-85.1-37.47L-95.922-48.3A19.914,19.914,0,0,0-110.1-54.167h-32.172a.762.762,0,0,0-.762.761.762.762,0,0,0,.762.761H-110.1A18.4,18.4,0,0,1-97-47.219l2.1,2.1h-14.746a4.1,4.1,0,0,0-4.093,4.093,4.1,4.1,0,0,0,4.093,4.093h22.932l.545.545a5.72,5.72,0,0,1,1.687,4.072,5.766,5.766,0,0,1-5.759,5.76h-52.024a.762.762,0,0,0-.762.761.762.762,0,0,0,.762.761h5.726v1.618a3.146,3.146,0,0,0,.179,1.047l.2.572h-6.048a.763.763,0,0,0-.761.761.763.763,0,0,0,.761.761h19.991a.763.763,0,0,0,.762-.761.763.763,0,0,0-.762-.761h-8.427l.2-.572a3.126,3.126,0,0,0,.18-1.047v-1.618h27.428v1.618a3.126,3.126,0,0,0,.18,1.047l.2.572h-10.481a.762.762,0,0,0-.761.761.762.762,0,0,0,.761.761h29.267a.763.763,0,0,0,.761-.761A.763.763,0,0,0-83.662-21.8Zm-25.986-16.659a2.573,2.573,0,0,1-2.571-2.571,2.573,2.573,0,0,1,2.571-2.571H-93.38l5.142,5.141Zm-22.134,15.04A1.621,1.621,0,0,1-133.4-21.8a1.62,1.62,0,0,1-1.618-1.619v-1.618h3.237Zm33.711,0A1.621,1.621,0,0,1-99.69-21.8a1.621,1.621,0,0,1-1.619-1.619v-1.618h3.238Z" transform="translate(0 0)"/><path class="b" d="M-143.029-36.2a.762.762,0,0,0,.762.761h18.562a4.1,4.1,0,0,0,4.094-4.093,4.1,4.1,0,0,0-4.094-4.093h-14.019a.762.762,0,0,0-.761.761.762.762,0,0,0,.761.761h14.019a2.574,2.574,0,0,1,2.571,2.571,2.574,2.574,0,0,1-2.571,2.571h-18.562A.762.762,0,0,0-143.029-36.2Z" transform="translate(0 -1.502)"/></g></g></g></svg>