<svg xmlns="http://www.w3.org/2000/svg" width="65.034" height="66.608" viewBox="0 0 65.034 66.608"><defs><style>.a{fill:#f2f2f2;}.b{fill:#898c8d;}.c{fill:none;stroke:#898c8d;stroke-miterlimit:10;}</style></defs><g transform="translate(-1021 -1496.29)"><rect class="a" width="43" height="51" rx="10" transform="matrix(0.799, 0.602, -0.602, 0.799, 1051.693, 1496.29)"/><g transform="translate(130.265 -29.852)"><g transform="translate(893 1532)"><path class="b" d="M41.688,15.592c-4.248-.012-8.492-.012-12.613,0a4.77,4.77,0,0,0-4.905,4.936q0,9.931,0,19.862a4.772,4.772,0,0,0,1.756,3.755c1.064.912,2.12,1.835,3.175,2.757l.29.254c.137.119.283.248.289.419.016.477.014.956.012,1.451l0,.677H24.2V71.62h22.38V49.686H40.2v-.177c0-.166,0-.327,0-.484a10.949,10.949,0,0,1,.019-1.123,1.051,1.051,0,0,1,.379-.7c.875-.641,1.762-1.267,2.647-1.893q.605-.428,1.209-.857a4.849,4.849,0,0,0,2.161-4.216Q46.6,33.29,46.6,26.349V20.564A4.792,4.792,0,0,0,41.688,15.592ZM45.376,50.9v19.53H25.4V50.9Zm-.18-9.267A3.332,3.332,0,0,1,43.985,43.3l-.173.126c-1.381,1-2.809,2.03-4.241,3.007a1.147,1.147,0,0,0-.576,1.128c.026.437.02.868.014,1.324,0,.2,0,.4,0,.607v.178h-8.08V47.755h5.946a1.9,1.9,0,0,0,.263-.013.6.6,0,0,0,.556-.6.576.576,0,0,0-.581-.567c-.283-.018-.576-.015-.859-.012l-1.58,0c-1.212,0-2.427,0-3.642-.012a1.414,1.414,0,0,1-.842-.3c-1.093-.921-2.377-2.015-3.613-3.144a5.359,5.359,0,0,1-.721-.877c-.1-.136-.193-.272-.294-.4l-.083-.107.239-.317H45.279Zm.191-1.47H25.382v-3.8H45.387ZM25.4,35.151V22.664H45.385V35.151Zm19.453-13.7H44.8l-9.243,0-.178,0H33.224c-2.39,0-4.781,0-7.172.009h-.015a.578.578,0,0,1-.69-.679A4.061,4.061,0,0,1,26.4,17.831a4.062,4.062,0,0,1,2.953-1.058h0q6.088,0,12.175,0h0a3.917,3.917,0,0,1,2.92,1.167,3.96,3.96,0,0,1,.966,3.029C45.392,21.463,45.056,21.462,44.85,21.456Z" transform="translate(-24.17 -15.583)"/><path class="b" d="M46.416,28.864c0-.458-.224-.735-.6-.742H45.81a.512.512,0,0,0-.37.143.833.833,0,0,0-.2.6q-.007,2.825,0,5.649c0,.279.076.751.567.763a.516.516,0,0,0,.4-.146.848.848,0,0,0,.208-.618q0-1.05,0-2.1V30.8Q46.419,29.831,46.416,28.864Z" transform="translate(-28.173 -17.966)"/><circle class="c" cx="3.08" cy="3.08" r="3.08" transform="translate(8.611 41.651)"/></g></g></g></svg>