<svg xmlns="http://www.w3.org/2000/svg" width="70.875" height="66.608" viewBox="0 0 70.875 66.608"><defs><style>.a{fill:#f2f2f2;}.b{fill:none;stroke:#898c8d;stroke-linecap:round;stroke-linejoin:round;stroke-width:1.3px;}</style></defs><g transform="translate(-1195.35 -1496.29)"><g transform="translate(-212.914)"><rect class="a" width="43" height="51" rx="10" transform="matrix(0.799, 0.602, -0.602, 0.799, 1444.798, 1496.29)"/><g transform="translate(1396.91 1489.365)"><rect class="b" width="39.919" height="39.919" rx="4.347" transform="translate(12.004 21.549)"/><g transform="translate(19.001 27.71)"><path class="b" d="M40.292,46.224a2.405,2.405,0,1,0,2.376,2.4A2.393,2.393,0,0,0,40.292,46.224Z" transform="translate(-26.712 -35.054)"/><path class="b" d="M47.566,39.564a4.094,4.094,0,0,0-3.144-1.8A2.841,2.841,0,0,0,42.153,38.9a4.313,4.313,0,0,0-.256.388,9.519,9.519,0,0,1-1.153,1.422l-.509.522.212-.7c.816-2.692.957-4.849.417-6.411a5.2,5.2,0,0,0-3.57-3.467,8.209,8.209,0,0,0-2.252-.328,5.7,5.7,0,0,0-5.536,3.359,2.956,2.956,0,0,0,.923,3.386,2.843,2.843,0,0,0,.4.27A3.919,3.919,0,0,1,32.192,38.6l.35.518-.568-.252a8.827,8.827,0,0,0-3.362-.948c-3.337,0-5.582,1.442-6.32,4.061a7.157,7.157,0,0,0,.93,6.277,4.092,4.092,0,0,0,3.143,1.8,2.844,2.844,0,0,0,2.269-1.129,4.088,4.088,0,0,0,.256-.387,13.078,13.078,0,0,1,1.118-1.509l.53-.615-.225.784c-.546,1.9-1.057,4.573-.39,6.508a5.2,5.2,0,0,0,3.57,3.468,8.128,8.128,0,0,0,2.252.327,5.7,5.7,0,0,0,5.537-3.358,2.963,2.963,0,0,0-.925-3.387,4.334,4.334,0,0,0-.384-.26,11.817,11.817,0,0,1-1.262-.928l-.685-.581.852.271a11.554,11.554,0,0,0,3.3.648c3.338,0,5.583-1.442,6.321-4.061A7.158,7.158,0,0,0,47.566,39.564Z" transform="translate(-21.965 -30.321)"/></g><circle class="b" cx="16.02" cy="16.02" r="16.02" transform="translate(16.409 25.278)"/><circle class="b" cx="1.418" cy="1.418" r="1.418" transform="translate(46.041 24.7)"/><circle class="b" cx="1.418" cy="1.418" r="1.418" transform="translate(15.497 24.7)"/><circle class="b" cx="1.418" cy="1.418" r="1.418" transform="translate(46.041 55.218)"/><circle class="b" cx="1.418" cy="1.418" r="1.418" transform="translate(15.497 55.218)"/></g></g></g></svg>