<svg xmlns="http://www.w3.org/2000/svg" width="83.501" height="66.608" viewBox="0 0 83.501 66.608"><defs><style>.a{fill:#f2f2f2;}.b{fill:#898c8d;stroke:#898c8d;stroke-miterlimit:10;stroke-width:0.3px;}</style></defs><g transform="translate(-476.167 -1138.29)"><rect class="a" width="43" height="51" rx="10" transform="matrix(0.799, 0.602, -0.602, 0.799, 525.326, 1138.29)"/><g transform="translate(476.317 1155.657)"><path class="b" d="M51.972,32.019H34.808a2.083,2.083,0,0,0-2.231,2.208q0,9.081,0,18.162A2.052,2.052,0,0,0,33.7,54.4a2.553,2.553,0,0,0,1.093.237c3.136.019,6.272.011,9.409.01H54.371q7.357,0,14.716,0a2.106,2.106,0,0,0,2.29-2.295q0-9.012,0-18.025A2.106,2.106,0,0,0,69.1,32.019Zm.007,21.513H35.986c-.425,0-.85.008-1.275,0A1.007,1.007,0,0,1,33.693,52.5q0-8.771,0-17.542c0-.288-.014-.575.007-.861a.981.981,0,0,1,.978-.963c.229-.016.459,0,.689,0H69.009c.9,0,1.229.326,1.229,1.219q0,9,0,17.993c0,.835-.356,1.184-1.2,1.184Z" transform="translate(-5.958 -32.019)"/><path class="b" d="M50.5,56.055H37.193c-.779,0-1.561.032-2.338-.008a2.078,2.078,0,0,0-2.118,1.576,6.161,6.161,0,0,0-.148,1.53,7.658,7.658,0,0,0,.129,1.639,2.125,2.125,0,0,0,2.17,1.647c2.205-.045,4.412-.013,6.619-.013q3.82,0,7.641,0c.166,0,.389-.007.483-.106a.746.746,0,0,0,.217-.555c-.035-.169-.252-.318-.417-.436-.078-.055-.223-.02-.337-.02H34.93c-.662,0-1.082-.266-1.154-.926a10.629,10.629,0,0,1,0-2.3c.07-.642.5-.908,1.17-.908H66.132a1.064,1.064,0,0,1,1.181,1.035,12.717,12.717,0,0,1,.006,2.031A1.082,1.082,0,0,1,66.1,61.3c-.861,0-1.723-.006-2.586,0-.5,0-.809.45-.551.825a.723.723,0,0,0,.5.281c1.01.025,2.023.03,3.033,0A2.073,2.073,0,0,0,68.4,60.545a11.424,11.424,0,0,0,0-2.607,2.184,2.184,0,0,0-2.286-1.9C60.91,56.077,55.7,56.055,50.5,56.055Z" transform="translate(-5.958 -32.611)"/><path class="b" d="M28.8,37.8v.743q0,4.292,0,8.583a1.329,1.329,0,0,0,.024.342.523.523,0,0,0,.53.411.515.515,0,0,0,.544-.389,1.19,1.19,0,0,0,.036-.338q0-4.9,0-9.789c0-.487-.187-.693-.651-.693-3.365,0-6.734-.068-10.1.044a8.569,8.569,0,0,0-7.5,4.375A12.334,12.334,0,0,0,10.1,46.179c-.041.4-.053.8-.059,1.2a.568.568,0,0,0,.545.657c.321.012.551-.251.563-.641a12.528,12.528,0,0,1,1.1-4.941,7.533,7.533,0,0,1,5.891-4.511,11.461,11.461,0,0,1,1.845-.151c2.838-.016,5.676-.008,8.514-.007C28.579,37.789,28.659,37.8,28.8,37.8Z" transform="translate(-5.402 -32.133)"/><path class="b" d="M56.995,58.246a6.18,6.18,0,1,0,6.153,6.212A6.183,6.183,0,0,0,56.995,58.246Zm5.02,6.159a5.053,5.053,0,1,1-5.125-5.039A5.075,5.075,0,0,1,62.015,64.405Z" transform="translate(-6.407 -32.665)"/><path class="b" d="M18.845,70.6A6.186,6.186,0,0,0,25,64.54a6.181,6.181,0,0,0-12.361-.182A6.168,6.168,0,0,0,18.845,70.6Zm-5.092-6.122a5.066,5.066,0,1,1,5.129,5A5.123,5.123,0,0,1,13.753,64.482Z" transform="translate(-5.466 -32.666)"/><path class="b" d="M24.615,49.081q-2.534,0-5.068,0a2.883,2.883,0,0,0-.409.039.523.523,0,0,0-.462.587.533.533,0,0,0,.556.5c.448.016.9.007,1.344.007h9c.709,0,.926.214.926.923q0,4.585,0,9.17c0,.567-.25.818-.818.82-1.172,0-2.345,0-3.516,0a1,1,0,0,0-.432.079.513.513,0,0,0-.256.617.49.49,0,0,0,.518.416c1.333,0,2.667.026,4-.012A1.728,1.728,0,0,0,31.619,60.5q.009-4.55,0-9.1a4.164,4.164,0,0,0-.047-.925,1.8,1.8,0,0,0-1.887-1.391q-2.532,0-5.066,0Z" transform="translate(-5.615 -32.439)"/><path class="b" d="M25.034,41.941v3.293c0,.677,0,1.355,0,2.033a.6.6,0,0,0,.545.666.564.564,0,0,0,.585-.625q.01-2.927,0-5.856c0-.443-.216-.643-.671-.643-1.342,0-2.683,0-4.025.022a21.012,21.012,0,0,0-2.672.109,5.145,5.145,0,0,0-4.1,3.1,7.663,7.663,0,0,0-.715,3.2c0,.286.121.53.4.561a1.011,1.011,0,0,0,.608-.191c.09-.059.106-.266.114-.409a7.3,7.3,0,0,1,.529-2.477,4.278,4.278,0,0,1,3.972-2.761c.946-.058,1.9-.02,2.849-.022.721,0,1.441,0,2.161,0Z" transform="translate(-5.499 -32.235)"/><path class="b" d="M10.682,59.211c0-.471.013-.941,0-1.412a1.772,1.772,0,0,0-1.772-1.742q-.9-.013-1.791,0a1.73,1.73,0,0,0-1.782,1.616,28.051,28.051,0,0,0-.014,3.1A1.75,1.75,0,0,0,7.11,62.426c.6.011,1.194.009,1.791,0a1.772,1.772,0,0,0,1.781-1.767c.014-.482,0-.965,0-1.446Zm-4.239.067h0c0-.436,0-.872,0-1.308a.7.7,0,0,1,.741-.793c.562-.015,1.125-.012,1.686,0a.669.669,0,0,1,.69.669q.019,1.393,0,2.787a.655.655,0,0,1-.684.667q-.86.015-1.72,0a.67.67,0,0,1-.709-.717C6.437,60.15,6.443,59.714,6.443,59.278Z" transform="translate(-5.285 -32.611)"/><path class="b" d="M12.118,49.081c-.758,0-1.516,0-2.274,0a1.818,1.818,0,0,0-1.92,1.892c-.01,1.137-.006,2.274,0,3.412,0,.432.2.672.559.682s.574-.243.575-.7c0-1.1,0-2.205,0-3.307,0-.615.235-.842.858-.843,1.539,0,3.078.007,4.616-.008a.807.807,0,0,0,.556-.184.642.642,0,0,0,.1-.579.789.789,0,0,0-.56-.349c-.837-.038-1.676-.017-2.514-.017Z" transform="translate(-5.35 -32.439)"/><path class="b" d="M11.631,62.558a.556.556,0,0,0,.6-.562.574.574,0,0,0-.582-.556.559.559,0,1,0-.022,1.118Z" transform="translate(-5.428 -32.744)"/></g></g></svg>