<svg xmlns="http://www.w3.org/2000/svg" width="84.273" height="66.608" viewBox="0 0 84.273 66.608"><defs><style>.a{fill:#f2f2f2;}.b{fill:#a7a7a7;stroke:#fff;stroke-width:1.2px;}</style></defs><g transform="translate(-1300.761 -860.29)"><rect class="a" width="43" height="51" rx="10" transform="matrix(0.799, 0.602, -0.602, 0.799, 1350.693, 860.29)"/><g transform="translate(1301.367 849.886)"><g transform="translate(19.092 60.261)"><path class="b" d="M173.734,402.828a4.078,4.078,0,1,0,4.078,4.078A4.083,4.083,0,0,0,173.734,402.828Zm0,5.879a1.8,1.8,0,1,1,1.8-1.8A1.8,1.8,0,0,1,173.734,408.707Z" transform="translate(-169.656 -402.828)"/></g><g transform="translate(36.866 60.261)"><path class="b" d="M331.679,402.828a4.078,4.078,0,1,0,4.078,4.078A4.083,4.083,0,0,0,331.679,402.828Zm0,5.879a1.8,1.8,0,1,1,1.8-1.8A1.8,1.8,0,0,1,331.679,408.707Z" transform="translate(-327.601 -402.828)"/></g><g transform="translate(23.069 34.485)"><path class="b" d="M208.451,165.755H192.135a1.139,1.139,0,1,0,0,2.277h16.317a1.139,1.139,0,0,0,0-2.277Z" transform="translate(-190.996 -165.755)"/></g><g transform="translate(23.889 41.328)"><path class="b" d="M216.481,231.035h-14.54a1.139,1.139,0,1,0,0,2.277h14.54a1.139,1.139,0,0,0,0-2.277Z" transform="translate(-200.802 -231.035)"/></g><g transform="translate(0 19.114)"><g transform="translate(0 0)"><path class="b" d="M55.024,28.917a2.726,2.726,0,0,0-2.118-1H10.354l-.859-4.152a2.726,2.726,0,0,0-1.588-1.946l-6-2.591A1.361,1.361,0,1,0,.822,21.721l6,2.591,6.61,31.937A2.739,2.739,0,0,0,16.1,58.42H48.832a1.36,1.36,0,1,0,0-2.72H16.1l-.8-3.885H49.085a2.739,2.739,0,0,0,2.676-2.171l3.821-18.461A2.7,2.7,0,0,0,55.024,28.917ZM49.085,49.1H14.737L10.916,30.635h41.99Z" transform="translate(0 -19.114)"/></g></g></g></g></svg>