<svg xmlns="http://www.w3.org/2000/svg" width="71.718" height="66.608" viewBox="0 0 71.718 66.608"><defs><style>.a{fill:#f2f2f2;}.b{fill:#898c8d;}</style></defs><g transform="translate(-1014 -1319.29)"><g transform="translate(-15.316)"><rect class="a" width="43" height="51" rx="10" transform="matrix(0.799, 0.602, -0.602, 0.799, 1066.693, 1319.29)"/><path class="b" d="M62.066,47.619c0-.872.008-1.744.007-2.616a4.648,4.648,0,0,0-4.8-4.8q-3.956,0-7.909,0a.83.83,0,0,1-.912-.711,4.04,4.04,0,0,0-5.223-3.078,1.87,1.87,0,0,1-2.548-1.869V31.646q0-3.077,0-6.154a4.923,4.923,0,0,0-3.246-4.738,4.837,4.837,0,0,0-5.5,1.647,1.1,1.1,0,0,1-1.639.3,3.883,3.883,0,0,0-3.743-.1A4.015,4.015,0,0,0,24.3,25.861l-.052.355-2.99,0c-1.577,0-3.153,0-4.729,0a4.747,4.747,0,0,0-4.664,3.234c-.062.186-.115.375-.169.563l-.062.218v9.417a.517.517,0,0,1,.073.188A7.112,7.112,0,0,0,15.7,45a6.413,6.413,0,0,0,3.067.683l.407.009v3.683l-.844,0c-.3-.006-.584-.007-.868.007-.439.024-.614.205-.622.65-.01.513-.007,1.027,0,1.54,0,.173,0,.345,0,.519a7.263,7.263,0,0,0,.039,1.175,2.094,2.094,0,0,0,2.277,1.693q4.714,0,9.43,0h4.551v8.379h-1.17c-.159,0-.317,0-.474,0-.467.007-.7.227-.7.672-.017.889-.034,1.9,0,2.881a2.063,2.063,0,0,0,2.09,2.013q11.041.007,22.078,0a1.941,1.941,0,0,0,2.01-1.712,26.744,26.744,0,0,0,.055-3.244.585.585,0,0,0-.66-.609c-.291-.007-.583,0-.868,0l-.8,0V59.67l.539-.046c.11-.011.207-.021.3-.022a6.827,6.827,0,0,0,4.567-2.165,6.474,6.474,0,0,0,1.978-4.616C62.051,51.085,62.059,49.324,62.066,47.619Zm-13.6-6.232h4.963V63.306H48.554l0-10.4a1.911,1.911,0,0,0-.01-.309.6.6,0,0,0-.6-.48.537.537,0,0,0-.551.513c-.016.233-.013.467-.011.7l0,.273v9.716H40.8V48.854a4.3,4.3,0,0,0-.019-.546.62.62,0,0,0-.584-.568.626.626,0,0,0-.589.546,2.213,2.213,0,0,0-.014.364V63.312H34.386V55.2l.148-.124c.171-.144.34-.28.506-.412a7.8,7.8,0,0,0,.927-.815,2.462,2.462,0,0,0,.52-1.773q-.009-2.56,0-5.12v-.64c0-1.436.594-2.023,2.047-2.024.55,0,1.1,0,1.65-.007,1.289-.007,2.578-.015,3.866.014a4.208,4.208,0,0,0,4.3-2.665Zm-22.9-15.716a2.929,2.929,0,0,1,1.591-2.049,2.833,2.833,0,0,1,2.509.082,2.248,2.248,0,0,0,3.275-.656,3.666,3.666,0,0,1,6.5,2.76l-.041.369H25.451ZM18.8,44.439c-.149.012-.3.019-.44.019a4.431,4.431,0,0,1-2.21-.561,5.823,5.823,0,0,1-3.354-5.43c.04-2.79.038-5.093,0-7.245a3.769,3.769,0,0,1,1.132-2.84,3.511,3.511,0,0,1,2.677-.958c.471.03.945.022,1.447.014.236,0,.474-.007.717-.007h.415V44.408Zm12.47,9.307H19.246a1.278,1.278,0,0,1-.988-.257,1.335,1.335,0,0,1-.245-1c0-.45,0-.9.007-1.352V51.06l.153-.4.3-.061h12.8Zm-.032-8.433q0,1.5,0,2.993v1.034H26.612V34.319a.966.966,0,0,0-.211-.687.552.552,0,0,0-.413-.138.531.531,0,0,0-.545.454,3.868,3.868,0,0,0-.033.628l0,14.759H20.432V27.455H39.458v6.394L39,33.8c-.284-.032-.568-.073-.852-.115a14.448,14.448,0,0,0-1.791-.17,5.3,5.3,0,0,0-5.078,4.939C31.228,40.736,31.234,43.062,31.242,45.312ZM32.429,52.1v-8.53q0-2.267,0-4.536a4.174,4.174,0,0,1,3.643-4.311A4.093,4.093,0,0,1,40.1,36.4a2.809,2.809,0,0,0,3.492,1.158,2.76,2.76,0,0,1,3.06.856,2.689,2.689,0,0,1,.452,3.006,2.783,2.783,0,0,1-2.646,1.682c-1.293.009-2.586.007-3.88.006H38.3a2.859,2.859,0,0,0-3.018,3q0,1.724,0,3.446v2.56a1.709,1.709,0,0,1-.439,1.244,1.359,1.359,0,0,1-.981.374h-.014C32.974,53.734,32.431,53.107,32.429,52.1ZM55.808,64.537l0,.933c0,.5.008,1-.023,1.491-.021.34-.355.575-.633.711a.8.8,0,0,1-.364.076c-.058,0-.113,0-.162-.007l-.1-.006H33.31c-1.066,0-1.328-.261-1.329-1.328V64.537ZM60.9,52.9a5.516,5.516,0,0,1-1.959,4.014,5.579,5.579,0,0,1-3.519,1.507,3.436,3.436,0,0,1-.361-.019l-.369-.042V41.442H55.1c.3,0,.6-.01.889-.02a11.877,11.877,0,0,1,1.994.046,3.38,3.38,0,0,1,2.906,3.362C60.923,47.434,60.913,50.024,60.9,52.9Z" transform="translate(1017.68 1303.442)"/></g></g></svg>