<svg xmlns="http://www.w3.org/2000/svg" width="82.034" height="66.608" viewBox="0 0 82.034 66.608"><defs><style>.a{fill:#f2f2f2;}.b{fill:#a7a7a7;}</style></defs><g transform="translate(-1108 -860.29)"><rect class="a" width="43" height="51" rx="10" transform="matrix(0.799, 0.602, -0.602, 0.799, 1155.693, 860.29)"/><g transform="translate(1108 827.904)"><g transform="translate(0 48.096)"><g transform="translate(0 0)"><path class="b" d="M50.452,89.494h-.881V66.512a7.19,7.19,0,0,0,3.312-6.05.775.775,0,0,0-.1-.384L46.634,49.321a2.436,2.436,0,0,0-2.11-1.225H8.359a2.436,2.436,0,0,0-2.11,1.225L.1,60.078a.776.776,0,0,0-.1.384,7.19,7.19,0,0,0,3.312,6.05V89.494H2.431a.775.775,0,1,0,0,1.549H50.452a.775.775,0,1,0,0-1.549ZM1.6,61.237H4.086a.775.775,0,1,0,0-1.549H2.11l5.485-9.6a.883.883,0,0,1,.765-.444H44.524a.883.883,0,0,1,.765.444l5.485,9.6H48.8a.775.775,0,1,0,0,1.549H51.28a5.641,5.641,0,0,1-11.176,0h5.381a.775.775,0,1,0,0-1.549H7.4a.775.775,0,1,0,0,1.549h5.38a5.641,5.641,0,0,1-11.176,0Zm36.843,0a5.641,5.641,0,0,1-11.175,0Zm-12.833,0a5.641,5.641,0,0,1-11.175,0Zm18.27,28.257H35.5V86.9h8.386Zm0-4.14H35.5V71.172h8.386Zm4.14,4.14H45.431V70.4a.775.775,0,0,0-.775-.775H34.721a.775.775,0,0,0-.775.775v19.1H4.861V67.264a7.184,7.184,0,0,0,8.747-3.557,7.19,7.19,0,0,0,12.833,0,7.19,7.19,0,0,0,12.833,0,7.184,7.184,0,0,0,8.747,3.557Z" transform="translate(0 -48.096)"/></g></g><g transform="translate(7.452 69.623)"><g transform="translate(0 0)"><path class="b" d="M95.275,256.516H72.92a.775.775,0,0,0-.775.775v15.731a.775.775,0,0,0,.775.775H95.275a.775.775,0,0,0,.775-.775V257.291A.775.775,0,0,0,95.275,256.516ZM94.5,272.247H73.694V258.065H94.5Z" transform="translate(-72.145 -256.516)"/></g></g></g></g></svg>