<svg xmlns="http://www.w3.org/2000/svg" width="75.435" height="66.608" viewBox="0 0 75.435 66.608"><defs><style>.a{fill:#f2f2f2;}.b{fill:#898c8d;}</style></defs><g transform="translate(-1147.232 -1138.29)"><rect class="a" width="43" height="51" rx="10" transform="matrix(0.799, 0.602, -0.602, 0.799, 1188.326, 1138.29)"/><g transform="translate(1147.232 1151.455)"><g transform="translate(8.741 31.067)"><path class="b" d="M23.9,65.916a2.981,2.981,0,0,1-.5-.044,6.031,6.031,0,0,1-4.211-4.238,2.435,2.435,0,0,1,.69-2.322,2.259,2.259,0,0,1,2.217-.4,5.813,5.813,0,0,1,4,4.126,1.721,1.721,0,0,1,.059.443l0,.075a2.354,2.354,0,0,1-.782,1.848A2.252,2.252,0,0,1,23.9,65.916Zm-2.6-5.938a.926.926,0,0,0-.632.222,1.284,1.284,0,0,0-.309,1.223A4.894,4.894,0,0,0,23.6,64.7a1.227,1.227,0,0,0,1.01-.2,1.175,1.175,0,0,0,.36-.924l0-.062a.8.8,0,0,0-.013-.142,4.617,4.617,0,0,0-3.209-3.323A1.53,1.53,0,0,0,21.293,59.978Z" transform="translate(-19.133 -58.791)"/></g><g transform="translate(0 0)"><path class="b" d="M28.185,67.756c-.125,0-.252,0-.381-.009a12.254,12.254,0,0,1-5.5-1.756,35.236,35.236,0,0,1-8.7-7.21,23.511,23.511,0,0,1-4.613-6.79,10.8,10.8,0,0,1-.872-3.352A6.783,6.783,0,0,1,10.028,43a50.009,50.009,0,0,1,11.4-8.961,25.939,25.939,0,0,1,8.353-2.988,18.355,18.355,0,0,1,6.379.073.291.291,0,0,0,.092-.026c.749-.619,1.505-1.254,2.261-1.888s1.493-1.254,2.245-1.875a.956.956,0,0,0,.082-.075c-.006-.01-.013-.036-.027-.073a6.163,6.163,0,0,1-.327-3.885,4.976,4.976,0,0,1,4.171-3.672,4.66,4.66,0,0,1,5.018,2.342,7.581,7.581,0,0,1,.9,3.425l.316.036a10.8,10.8,0,0,1,2.276.418,4.3,4.3,0,0,1,2.749,4.909,11.049,11.049,0,0,1-.82,2.73,4.551,4.551,0,0,1-3.73,2.453h0a5.75,5.75,0,0,1-3.285-1.251l-.2-.132-.466.4c-1.03.879-2.073,1.77-3.11,2.669,1.159,2.916,1.17,6.041.036,9.816a36.343,36.343,0,0,1-5.276,10.34A75.1,75.1,0,0,1,32.3,66.045,5.244,5.244,0,0,1,28.185,67.756Zm4.587-35.762a17.241,17.241,0,0,0-2.8.229A24.746,24.746,0,0,0,22,35.08,48.857,48.857,0,0,0,10.87,43.836,5.665,5.665,0,0,0,9.3,48.545a9.655,9.655,0,0,0,.781,2.981,22.357,22.357,0,0,0,4.392,6.448,34.1,34.1,0,0,0,8.412,6.981,11.108,11.108,0,0,0,4.97,1.607,4.214,4.214,0,0,0,3.57-1.322,74,74,0,0,0,6.656-8.134A35.205,35.205,0,0,0,43.2,47.1c1.072-3.568,1.053-6.486-.061-9.181a.971.971,0,0,1,.25-1.076c1.083-.941,2.175-1.872,3.251-2.79l1.129-.965.369.229c.2.125.4.254.594.382a4.679,4.679,0,0,0,2.633,1.056h0a3.41,3.41,0,0,0,2.657-1.772,9.947,9.947,0,0,0,.727-2.441,3.11,3.11,0,0,0-1.956-3.566,9.927,9.927,0,0,0-2.032-.364c-.281-.031-.567-.063-.858-.1l-.513-.07v-.658c0-.1,0-.214,0-.325a6.411,6.411,0,0,0-.757-2.922A3.463,3.463,0,0,0,44.9,20.792a3.822,3.822,0,0,0-3.266,2.817,5.036,5.036,0,0,0,.289,3.155,1.194,1.194,0,0,1-.409,1.486q-1.123.928-2.236,1.868c-.759.637-1.518,1.275-2.282,1.9a1.357,1.357,0,0,1-1.053.267A17.106,17.106,0,0,0,32.772,31.994Zm11.463,5.47v0Z" transform="translate(-8.088 -19.535)"/></g><g transform="translate(4.391 20.725)"><path class="b" d="M35.687,69.118,34.5,69.032c.821-11.3-8.54-21.23-20.867-22.125l.086-1.184C26.7,46.666,36.555,57.16,35.687,69.118Z" transform="translate(-13.636 -45.723)"/></g></g></g></svg>