<svg xmlns="http://www.w3.org/2000/svg" width="70.14" height="66.608" viewBox="0 0 70.14 66.608"><defs><style>.a{fill:#f2f2f2;}.b{fill:#898c8d;}</style></defs><g transform="translate(-1395 -1324.29)"><g transform="translate(-10)"><rect class="a" width="43" height="51" rx="10" transform="matrix(0.799, 0.602, -0.602, 0.799, 1440.798, 1324.29)"/><g transform="translate(1390.72 1314.827)"><path class="b" d="M15.135,63.869h0q11.886-.016,23.773-.01h6.719c.689,0,.838-.147.838-.829q.007-4.966,0-9.932c0-.676-.143-.813-.846-.813H30.954V48.507h14.7c.638,0,.813-.175.814-.811q.007-4.966,0-9.932c0-.69-.134-.82-.835-.82H30.964V33.16H45.589c.649,0,.879-.223.879-.852q0-4.966,0-9.932c0-.639-.228-.865-.867-.865H15.156c-.637,0-.875.232-.875.855q0,4.966,0,9.932c0,.637.229.863.87.863H29.78v3.783H15.159c-.755,0-.878.122-.878.869q0,4.9,0,9.794c0,.757.145.9.909.9H29.78v3.778H15.159c-.746,0-.877.131-.878.876q0,4.921,0,9.84a.92.92,0,0,0,.208.7A.955.955,0,0,0,15.135,63.869Zm.276-32.133v-8.8h29.9v8.8Zm.02,15.35V38.271H45.3v8.815Zm0,6.545H45.322v8.786H15.427Z" transform="translate(0)"/><rect class="b" width="1.051" height="4.687" transform="translate(17.25 55.728)"/><rect class="b" width="1.063" height="4.675" transform="translate(20.227 55.733)"/><rect class="b" width="1.065" height="4.675" transform="translate(23.181 55.734)"/><rect class="b" width="1.044" height="4.686" transform="translate(36.485 55.728)"/><rect class="b" width="1.066" height="4.682" transform="translate(39.43 55.728)"/><rect class="b" width="1.058" height="4.681" transform="translate(42.407 55.731)"/><path class="b" d="M33.369,46.616H19.062c-.556,0-.816.264-.819.832-.005,1.061-.007,2.122,0,3.183a.886.886,0,0,0,.2.645.847.847,0,0,0,.613.176c1.737-.019,3.5-.016,5.21-.013l3.946,0q2.6,0,5.2,0c.571,0,.737-.165.743-.734.011-1.072.011-2.189,0-3.319A.691.691,0,0,0,33.369,46.616ZM32.993,50H19.385V48.047H32.993Z" transform="translate(-1.001 -6.349)"/><rect class="b" width="8.444" height="1.249" transform="translate(35.025 42.06)"/><path class="b" d="M33.345,26.079H19.031c-.557,0-.784.232-.787.8q-.007,1.615,0,3.23c0,.584.21.791.79.791q7.158,0,14.314,0c.611,0,.8-.181.8-.773q.015-1.637,0-3.275C34.147,26.273,33.943,26.079,33.345,26.079ZM33,29.463H19.391V27.5H33Z" transform="translate(-1.002 -1.155)"/><rect class="b" width="8.447" height="1.252" transform="translate(35.024 26.7)"/></g></g></g></svg>