<svg xmlns="http://www.w3.org/2000/svg" width="65.034" height="66.608" viewBox="0 0 65.034 66.608"><defs><style>.a{fill:#f2f2f2;}.b,.c,.e{fill:none;stroke:#898c8d;}.b,.c{stroke-miterlimit:10;}.b{stroke-width:1.367px;}.c{stroke-width:1.08px;}.d{fill:#898c8d;}.e{stroke-linecap:round;stroke-linejoin:round;stroke-width:1.243px;}</style></defs><g transform="translate(-940.633 -1138.29)"><rect class="a" width="43" height="51" rx="10" transform="matrix(0.799, 0.602, -0.602, 0.799, 971.326, 1138.29)"/><g transform="translate(945.163 1142.264)"><path class="b" d="M40.484,62.627c-2.663.687-5.442-1.177-6.214-4.167" transform="translate(-20.714 -23.266)"/><path class="c" d="M55.371,74.854A3.652,3.652,0,0,1,52.9,70.337" transform="translate(-48.186 -25.743)"/><ellipse class="d" cx="1.062" cy="1.062" rx="1.062" ry="1.062" transform="translate(14.419 32.534)"/><ellipse class="d" cx="1.062" cy="1.062" rx="1.062" ry="1.062" transform="translate(5.897 42.831)"/><path class="b" d="M29.333,44.632c-2.663.686-5.442-1.178-6.214-4.167" transform="translate(-3.024 -19.512)"/><ellipse class="d" cx="1.062" cy="1.062" rx="1.062" ry="1.062" transform="translate(21.574 17.567)"/><path class="e" d="M46.165,13.989s13.9,43.831-28.13,53.334" transform="translate(-18.035 -13.989)"/><path class="e" d="M46.794,26s-13.746,1.94-9.328,15.709c0,0-10.473-.194-8.837,13.188,0,0-12.764-.582-9.491,14.546" transform="translate(-16.91 -16.494)"/></g></g></svg>