<svg xmlns="http://www.w3.org/2000/svg" width="70.034" height="66.608" viewBox="0 0 70.034 66.608"><defs><style>.a{fill:#f2f2f2;}.b{fill:#898c8d;}</style></defs><g transform="translate(-1016 -1163.29)"><g transform="translate(-15)"><rect class="a" width="43" height="51" rx="10" transform="matrix(0.799, 0.602, -0.602, 0.799, 1066.693, 1163.29)"/><g transform="translate(1020.838 1150.963)"><path class="b" d="M26.636,70.624c-.4-.322-.3-.827-.328-1.31H13.532c-.048.456.069.986-.339,1.31h-.4c-.413-.321-.293-.854-.345-1.334-.286,0-.543-.017-.8,0-1,.079-1.49-.868-1.482-1.735.024-2.806.01-5.612.012-8.418a1.988,1.988,0,0,1,.016-.353c.059-.318.219-.522.512-.512s.462.2.485.536.019.683.022,1.025c0,.387,0,.775,0,1.169H28.594V56.389c-.5,0-.984.012-1.464,0A2,2,0,0,1,25.3,54.3c-.037-1.368-.025-2.739-.005-4.109a2.09,2.09,0,0,1,.986-1.8,2.416,2.416,0,0,1,1.437-.283c.3,0,.593,0,.906,0v-.544q0-2.648,0-5.3a1.154,1.154,0,0,1,.043-.5c.107-.187.283-.425.44-.437s.374.188.485.365a1.219,1.219,0,0,1,.064.572q.006,9.683.006,19.367c0,1.963-.022,3.926,0,5.888.013.993-.5,1.851-1.516,1.766-.252-.021-.508,0-.775,0-.028.508.071,1.015-.331,1.337Zm-15.4-8.369c-.009.14-.024.266-.025.392q0,2.431,0,4.861c0,.529.053.587.5.587h16.3c.587,0,.6-.014.6-.712q0-2.312.006-4.625v-.5ZM28.6,49.361c-.562,0-1.108-.033-1.65.012-.339.028-.642.483-.645.9q-.016,1.973,0,3.948a.919.919,0,0,0,.79.955c.488.039.98.009,1.509.009Z" transform="translate(0 -5.437)"/><path class="b" d="M29.663,26.506c.013-1.034-.537-1.818-1.523-1.812q-8.233.045-16.465,0c-1.005-.005-1.515.836-1.513,1.787q.025,12.133.013,24.265c0,.079,0,.158,0,.237.024.39.23.66.509.666s.507-.253.516-.648c.018-.83.015-1.66.014-2.489q0-8.32,0-16.638V31.43H12.1c.582,0,1.165,0,1.747,0a.55.55,0,0,0,.58-.6.56.56,0,0,0-.587-.594c-.751,0-1.5,0-2.251,0H11.21v-.885c0-.975,0-1.95,0-2.924,0-.459.067-.539.446-.539q8.25,0,16.5,0c.25,0,.454.043.454.412,0,1.29,0,2.58,0,3.936H16.118c-.447,0-.693.213-.695.594s.244.593.693.593h12.5c0,.816,0,1.566,0,2.316a1.091,1.091,0,0,0,.049.5,1,1,0,0,0,.462.414c.226.075.412-.1.479-.376a2.176,2.176,0,0,0,.048-.506C29.654,31.353,29.633,28.929,29.663,26.506Z"/><path class="b" d="M21.4,75.351h5.88a3.1,3.1,0,0,0,.336-.008.561.561,0,0,0,.481-.6c-.021-.325-.176-.551-.459-.58a8.583,8.583,0,0,0-.873-.015l-11.358,0a1.176,1.176,0,0,0-.334.022.549.549,0,0,0-.394.6.528.528,0,0,0,.438.558,2.494,2.494,0,0,0,.369.013Z" transform="translate(-1.477 -16.162)"/><path class="b" d="M21.388,77.526q-2.973,0-5.946,0c-.513,0-.76.2-.765.592s.259.613.786.613H27.322c.045,0,.09,0,.135,0a.593.593,0,0,0,.646-.621.568.568,0,0,0-.634-.581Q24.429,77.522,21.388,77.526Z" transform="translate(-1.476 -17.265)"/><path class="b" d="M35.095,56.591c0,.434-.008.868,0,1.3.011.453.188.685.5.689s.518-.244.523-.671q.016-1.341,0-2.683c0-.388-.228-.658-.506-.664s-.5.249-.512.647C35.081,55.67,35.095,56.13,35.095,56.591Z" transform="translate(-8.146 -9.762)"/><path class="b" d="M40.2,70.624c-.4-.322-.3-.829-.331-1.337-.267,0-.522-.018-.775,0-1.011.085-1.529-.773-1.516-1.766.026-1.962,0-3.925,0-5.888q0-9.683.005-19.367a1.219,1.219,0,0,1,.064-.572c.111-.176.326-.377.485-.365s.333.25.44.437a1.154,1.154,0,0,1,.043.5q0,2.648,0,5.3v.544c.313,0,.61,0,.906,0a2.419,2.419,0,0,1,1.437.283,2.088,2.088,0,0,1,.985,1.8c.02,1.369.032,2.741,0,4.109a2,2,0,0,1-1.836,2.083c-.479.015-.959,0-1.463,0v4.617H56.031c0-.394,0-.782,0-1.169,0-.342,0-.685.022-1.025s.2-.526.485-.536.452.193.512.512a1.988,1.988,0,0,1,.015.353c0,2.807-.011,5.612.012,8.418.007.867-.478,1.814-1.482,1.735-.255-.02-.512,0-.8,0-.053.479.067,1.012-.346,1.334h-.4c-.409-.324-.291-.854-.34-1.31H40.934c-.023.483.071.988-.329,1.31Zm-1.579-8.369v.5q0,2.312.006,4.625c0,.7.011.712.6.712h16.3c.451,0,.5-.058.5-.587q0-2.431,0-4.861c0-.126-.015-.252-.025-.392Zm.018-7.075c.53,0,1.021.03,1.509-.009a.919.919,0,0,0,.79-.955q.014-1.974,0-3.948c0-.413-.306-.868-.645-.9-.542-.045-1.088-.012-1.65-.012Z" transform="translate(-8.96 -5.437)"/><path class="b" d="M38.629,31.43c0,.816,0,1.566,0,2.316a1.082,1.082,0,0,1-.049.5.992.992,0,0,1-.462.414c-.226.075-.412-.1-.479-.376a2.176,2.176,0,0,1-.048-.506c0-2.424.018-4.848-.011-7.271-.013-1.034.537-1.818,1.523-1.812q8.233.045,16.465,0c1.005-.005,1.515.836,1.513,1.787q-.025,12.133-.012,24.265c0,.079,0,.158,0,.237-.024.39-.23.66-.509.666S56.049,51.4,56.04,51c-.018-.829-.014-1.66-.014-2.489q0-8.32,0-16.638V31.43h-.887c-.582,0-1.165,0-1.747,0a.549.549,0,0,1-.58-.6.56.56,0,0,1,.587-.594c.751,0,1.5,0,2.251,0h.376v-.885c0-.975,0-1.95,0-2.924,0-.459-.068-.539-.447-.539q-8.25,0-16.5,0c-.25,0-.454.043-.454.412v3.936H51.122c.447,0,.693.213.695.594s-.244.593-.693.593h-12.5Z" transform="translate(-8.959)"/><path class="b" d="M48.789,75.351h-5.88a3.108,3.108,0,0,1-.336-.008.561.561,0,0,1-.481-.6c.021-.325.176-.551.46-.58a8.566,8.566,0,0,1,.872-.015l11.358,0a1.175,1.175,0,0,1,.334.022.549.549,0,0,1,.394.6.528.528,0,0,1-.438.558,2.493,2.493,0,0,1-.369.013Z" transform="translate(-10.435 -16.162)"/><path class="b" d="M48.8,77.526q2.973,0,5.946,0c.513,0,.76.2.765.592s-.259.613-.786.613H42.868c-.045,0-.09,0-.135,0a.593.593,0,0,1-.646-.621.568.568,0,0,1,.634-.581Q45.762,77.522,48.8,77.526Z" transform="translate(-10.433 -17.265)"/><path class="b" d="M41.109,56.591c0,.434.008.868,0,1.3-.011.453-.188.685-.5.689s-.518-.244-.523-.671q-.016-1.341,0-2.683c.005-.388.228-.658.506-.664s.5.249.513.647C41.123,55.67,41.109,56.13,41.109,56.591Z" transform="translate(-9.776 -9.762)"/></g></g></g></svg>