<svg xmlns="http://www.w3.org/2000/svg" width="82.284" height="66.608" viewBox="0 0 82.284 66.608"><defs><style>.a{fill:#f2f2f2;}.b{fill:#a7a7a7;stroke:#fff;stroke-width:0.5px;}</style></defs><g transform="translate(-912.75 -860.29)"><rect class="a" width="43" height="51" rx="10" transform="matrix(0.799, 0.602, -0.602, 0.799, 960.693, 860.29)"/><g transform="translate(913 865)"><path class="b" d="M38.577,44.534V42.856A3.358,3.358,0,0,0,35.223,39.5H34.24a2.5,2.5,0,0,0,.144-.839v-.839h1.677a.838.838,0,0,0,.839-.839V34.5A11.675,11.675,0,0,0,30.411,24l-.246-.123a24.43,24.43,0,0,0-21.753,0L8.167,24a11.674,11.674,0,0,0-6.49,10.5v2.487a.838.838,0,0,0,.839.839H4.193v.839a2.5,2.5,0,0,0,.144.839H3.355A3.358,3.358,0,0,0,0,42.856v1.677a3.358,3.358,0,0,0,3.355,3.355h.372a4.514,4.514,0,0,0-.372,1.8V50.4H2.516a.838.838,0,0,0-.839.839V54.6a2.519,2.519,0,0,0,2.516,2.516H34.384A2.519,2.519,0,0,0,36.9,54.6V51.243a.838.838,0,0,0-.839-.839h-.839V49.69a4.511,4.511,0,0,0-.372-1.8h.372A3.358,3.358,0,0,0,38.577,44.534ZM3.355,34.5a10.009,10.009,0,0,1,5.564-9l.244-.122a22.748,22.748,0,0,1,20.251,0l.246.123a10.01,10.01,0,0,1,5.564,9v1.649H3.355ZM5.87,38.663v-.839H32.707v.839a.839.839,0,0,1-.839.839H30.191a.837.837,0,0,0-.75.464l-.928,1.854a1.875,1.875,0,0,1-3.355,0l-.927-1.854a.839.839,0,0,0-.751-.464H6.709A.839.839,0,0,1,5.87,38.663Zm-4.193,5.87V42.856a1.679,1.679,0,0,1,1.677-1.677H22.964l.7,1.39a3.552,3.552,0,0,0,6.355,0l.7-1.39h4.514A1.679,1.679,0,0,1,36.9,42.856v1.677a1.679,1.679,0,0,1-1.677,1.677H33.548a3.975,3.975,0,0,0-1.42-.7,4.144,4.144,0,0,0-3.617.709,4.266,4.266,0,0,0-4.61-.289,4.259,4.259,0,0,0-4.613.292,4.261,4.261,0,0,0-4.613-.292,4.261,4.261,0,0,0-4.61.289,4.143,4.143,0,0,0-3.617-.709,3.968,3.968,0,0,0-1.42.7H3.355a1.679,1.679,0,0,1-1.677-1.677ZM35.223,54.6a.839.839,0,0,1-.839.839H4.193a.839.839,0,0,1-.839-.839V52.081H35.223ZM5.032,50.4V49.69a2.61,2.61,0,0,1,1.839-2.553,2.5,2.5,0,0,1,2.561.782.839.839,0,0,0,1.263,0,2.54,2.54,0,0,1,3.457-.319.839.839,0,0,0,1.049,0,2.541,2.541,0,0,1,3.457.319.867.867,0,0,0,1.263,0,2.541,2.541,0,0,1,3.457-.319.839.839,0,0,0,1.049,0,2.541,2.541,0,0,1,3.457.319.867.867,0,0,0,1.263,0,2.505,2.505,0,0,1,2.561-.782,2.612,2.612,0,0,1,1.837,2.553V50.4Z" transform="translate(0 -3.44)"/><path class="b" d="M0,0H2.372V1.677H0Z" transform="translate(9.466 28.502) rotate(-45)"/><path class="b" d="M0,0H2.372V1.677H0Z" transform="translate(11.983 24.309) rotate(-45)"/><path class="b" d="M0,0H2.372V1.677H0Z" transform="translate(15.337 28.502) rotate(-45)"/><path class="b" d="M0,0H2.372V1.677H0Z" transform="translate(17.853 23.471) rotate(-45)"/><path class="b" d="M0,0H2.372V1.677H0Z" transform="translate(20.368 28.503) rotate(-45)"/><path class="b" d="M0,0H2.372V1.677H0Z" transform="translate(23.722 24.311) rotate(-45)"/><path class="b" d="M0,0H2.372V1.677H0Z" transform="translate(26.237 28.504) rotate(-45)"/><path class="b" d="M56.836,8.386H53.482v1.677h3.355v3.355H31.677V10.064H51.8V8.386H47.133l1.3-7.4A.84.84,0,0,0,47.611,0h-3.25a.84.84,0,0,0-.826.693L42.18,8.386h-10.5A1.679,1.679,0,0,0,30,10.064v3.355A1.679,1.679,0,0,0,31.677,15.1v2.516h1.677V15.1h21.8v8.386H41.741v1.677H55.048L53.58,36.9H45.1v1.677h8.381L51.985,51.254a.839.839,0,0,1-.833.741H43.418v1.677h7.734a2.515,2.515,0,0,0,2.5-2.222l3.18-27.032c0-.007,0-.014,0-.021a.205.205,0,0,0,0-.023.19.19,0,0,0,0-.022c0-.008,0-.016,0-.024V15.1a1.679,1.679,0,0,0,1.677-1.677V10.064a1.678,1.678,0,0,0-1.676-1.677ZM45.065,1.677h1.546L45.429,8.386H43.883Z" transform="translate(-4.841 0)"/></g></g></svg>