<svg xmlns="http://www.w3.org/2000/svg" width="85.066" height="66.608" viewBox="0 0 85.066 66.608"><defs><style>.a{fill:#f2f2f2;}.b{fill:#a7a7a7;stroke:#fff;stroke-width:0.7px;}</style></defs><g transform="translate(-519.968 -860.29)"><rect class="a" width="43" height="51" rx="10" transform="matrix(0.799, 0.602, -0.602, 0.799, 570.692, 860.29)"/><g transform="translate(520.33 864.997)"><g transform="translate(16.894 8.005)"><path class="b" d="M156.452,72H152.9a.889.889,0,0,0-.889.889v3.556a.889.889,0,0,0,.889.889h3.556a.889.889,0,0,0,.889-.889V72.893A.889.889,0,0,0,156.452,72Zm-.889,3.556h-1.778V73.782h1.778Z" transform="translate(-152.007 -72.004)"/></g><g transform="translate(24.007 8.005)"><path class="b" d="M220.452,72H216.9a.889.889,0,0,0-.889.889v3.556a.889.889,0,0,0,.889.889h3.556a.889.889,0,0,0,.889-.889V72.893A.889.889,0,0,0,220.452,72Zm-.889,3.556h-1.778V73.782h1.778Z" transform="translate(-216.007 -72.004)"/></g><g transform="translate(31.119 8.005)"><path class="b" d="M284.452,72H280.9a.889.889,0,0,0-.889.889v3.556a.889.889,0,0,0,.889.889h3.556a.889.889,0,0,0,.889-.889V72.893A.889.889,0,0,0,284.452,72Zm-.889,3.556h-1.778V73.782h1.778Z" transform="translate(-280.007 -72.004)"/></g><g transform="translate(16.894 15.117)"><path class="b" d="M156.452,136H152.9a.889.889,0,0,0-.889.889v3.556a.889.889,0,0,0,.889.889h3.556a.889.889,0,0,0,.889-.889v-3.556A.889.889,0,0,0,156.452,136Zm-.889,3.556h-1.778v-1.778h1.778Z" transform="translate(-152.007 -136.004)"/></g><g transform="translate(24.007 15.117)"><path class="b" d="M220.452,136H216.9a.889.889,0,0,0-.889.889v3.556a.889.889,0,0,0,.889.889h3.556a.889.889,0,0,0,.889-.889v-3.556A.889.889,0,0,0,220.452,136Zm-.889,3.556h-1.778v-1.778h1.778Z" transform="translate(-216.007 -136.004)"/></g><g transform="translate(31.119 15.117)"><path class="b" d="M284.452,136H280.9a.889.889,0,0,0-.889.889v3.556a.889.889,0,0,0,.889.889h3.556a.889.889,0,0,0,.889-.889v-3.556A.889.889,0,0,0,284.452,136Zm-.889,3.556h-1.778v-1.778h1.778Z" transform="translate(-280.007 -136.004)"/></g><g transform="translate(16.894 22.23)"><path class="b" d="M156.452,200H152.9a.889.889,0,0,0-.889.889v3.556a.889.889,0,0,0,.889.889h3.556a.889.889,0,0,0,.889-.889v-3.556A.889.889,0,0,0,156.452,200Zm-.889,3.556h-1.778v-1.778h1.778Z" transform="translate(-152.007 -200.004)"/></g><g transform="translate(24.007 22.23)"><path class="b" d="M220.452,200H216.9a.889.889,0,0,0-.889.889v3.556a.889.889,0,0,0,.889.889h3.556a.889.889,0,0,0,.889-.889v-3.556A.889.889,0,0,0,220.452,200Zm-.889,3.556h-1.778v-1.778h1.778Z" transform="translate(-216.007 -200.004)"/></g><g transform="translate(31.119 22.23)"><path class="b" d="M284.452,200H280.9a.889.889,0,0,0-.889.889v3.556a.889.889,0,0,0,.889.889h3.556a.889.889,0,0,0,.889-.889v-3.556A.889.889,0,0,0,284.452,200Zm-.889,3.556h-1.778v-1.778h1.778Z" transform="translate(-280.007 -200.004)"/></g><g transform="translate(16.894 29.343)"><path class="b" d="M156.452,264H152.9a.889.889,0,0,0-.889.889v3.556a.889.889,0,0,0,.889.889h3.556a.889.889,0,0,0,.889-.889v-3.556A.889.889,0,0,0,156.452,264Zm-.889,3.556h-1.778v-1.778h1.778Z" transform="translate(-152.007 -264.004)"/></g><g transform="translate(24.007 29.343)"><path class="b" d="M220.452,264H216.9a.889.889,0,0,0-.889.889v3.556a.889.889,0,0,0,.889.889h3.556a.889.889,0,0,0,.889-.889v-3.556A.889.889,0,0,0,220.452,264Zm-.889,3.556h-1.778v-1.778h1.778Z" transform="translate(-216.007 -264.004)"/></g><g transform="translate(31.119 29.343)"><path class="b" d="M284.452,264H280.9a.889.889,0,0,0-.889.889v3.556a.889.889,0,0,0,.889.889h3.556a.889.889,0,0,0,.889-.889v-3.556A.889.889,0,0,0,284.452,264Zm-.889,3.556h-1.778v-1.778h1.778Z" transform="translate(-280.007 -264.004)"/></g><g transform="translate(16.894 36.455)"><path class="b" d="M156.452,328H152.9a.889.889,0,0,0-.889.889v3.556a.889.889,0,0,0,.889.889h3.556a.889.889,0,0,0,.889-.889v-3.556A.889.889,0,0,0,156.452,328Zm-.889,3.556h-1.778v-1.778h1.778Z" transform="translate(-152.007 -328.004)"/></g><g transform="translate(24.007 36.455)"><path class="b" d="M220.452,328H216.9a.889.889,0,0,0-.889.889v3.556a.889.889,0,0,0,.889.889h3.556a.889.889,0,0,0,.889-.889v-3.556A.889.889,0,0,0,220.452,328Zm-.889,3.556h-1.778v-1.778h1.778Z" transform="translate(-216.007 -328.004)"/></g><g transform="translate(31.119 36.455)"><path class="b" d="M284.452,328H280.9a.889.889,0,0,0-.889.889v3.556a.889.889,0,0,0,.889.889h3.556a.889.889,0,0,0,.889-.889v-3.556A.889.889,0,0,0,284.452,328Zm-.889,3.556h-1.778v-1.778h1.778Z" transform="translate(-280.007 -328.004)"/></g><g transform="translate(0.001 0.003)"><g transform="translate(0 0)"><path class="b" d="M48.9,51.57V49.714a5.328,5.328,0,0,0,3.817-7.766,4.184,4.184,0,0,1-.486-3.212,4.483,4.483,0,0,0,.089-2.5,4.447,4.447,0,1,0-8.6,2.279,4.252,4.252,0,0,1-.33,3.279,5.335,5.335,0,0,0,3.478,7.88c.084.018.168.026.252.039V51.57H40.01V4.448a.889.889,0,0,0-.889-.889H36.454V.892A.889.889,0,0,0,35.565,0H17.783a.889.889,0,0,0-.889.889V3.559H14.227a.889.889,0,0,0-.889.889V51.57H6.225V49.714a5.329,5.329,0,0,0,3.817-7.766,4.184,4.184,0,0,1-.486-3.212,4.483,4.483,0,0,0,.089-2.5,4.447,4.447,0,1,0-8.6,2.279,4.252,4.252,0,0,1-.33,3.279A5.334,5.334,0,0,0,4.2,49.67c.084.018.168.026.252.039V51.57H0v1.778H53.346V51.57H48.9ZM4.447,47.9a3.547,3.547,0,0,1-2.192-5.214,6.012,6.012,0,0,0,.5-4.645A2.671,2.671,0,0,1,5.33,34.677a2.9,2.9,0,0,1,.659.076A2.661,2.661,0,0,1,7.926,37.98q-.024.1-.056.193a5.89,5.89,0,0,0,.6,4.613,3.5,3.5,0,0,1,.418,1.671A3.543,3.543,0,0,1,6.225,47.9V37.344H4.447V47.9ZM18.672,1.781h16V3.559h-16ZM25.785,51.57H22.228V46.235h3.556Zm5.334,0H27.563V46.235h3.556Zm7.113,0H32.9V45.346a.889.889,0,0,0-.889-.889H21.339a.889.889,0,0,0-.889.889V51.57H15.116V5.338H38.232ZM47.123,47.9a3.547,3.547,0,0,1-2.192-5.214,6.012,6.012,0,0,0,.506-4.645,2.627,2.627,0,0,1-.092-.694,2.654,2.654,0,0,1,1.011-2.09,2.626,2.626,0,0,1,1.65-.577,2.9,2.9,0,0,1,.659.076A2.661,2.661,0,0,1,50.6,37.98q-.024.1-.056.193a5.89,5.89,0,0,0,.6,4.613,3.5,3.5,0,0,1,.418,1.671A3.543,3.543,0,0,1,48.9,47.9V37.344H47.123V47.9Z" transform="translate(-0.001 -0.003)"/></g></g></g></g></svg>