<svg xmlns="http://www.w3.org/2000/svg" width="65.034" height="66.608" viewBox="0 0 65.034 66.608"><defs><style>.a{fill:#f2f2f2;}.b{fill:#898c8d;}</style></defs><g transform="translate(-598.633 -1381.29)"><rect class="a" width="43" height="51" rx="10" transform="matrix(0.799, 0.602, -0.602, 0.799, 629.326, 1381.29)"/><path class="b" d="M22.772,65.475a3.731,3.731,0,0,0,3.762,3.567q9.54,0,19.082,0a3.132,3.132,0,0,0,.529-.028A3.75,3.75,0,0,0,49.4,65.06q.007-6.18,0-12.361,0-5.455,0-10.909a10.292,10.292,0,0,0-1.836-5.969c-.7-1.025-1.381-2.056-2.065-3.089l-.79-1.189c-.066-.1-.127-.2-.191-.31L43.9,30.2l.937-.484a2.394,2.394,0,0,0,1.4-2.488c-.023-.549-.018-1.1-.012-1.651,0-.378.007-.756,0-1.133a2.041,2.041,0,0,0-.915-1.755,3.943,3.943,0,0,0-.657-.324l-.221-.1H27.77a1.058,1.058,0,0,1-.135.05,2.185,2.185,0,0,0-1.707,2.248l0,.454c0,.877,0,1.753,0,2.629a2.115,2.115,0,0,0,.787,1.676,3.611,3.611,0,0,0,.42.293c.093.061.19.123.287.189l.805.547-.54.811q-.456.684-.906,1.368c-.675,1.025-1.348,2.045-2.046,3.046a11.025,11.025,0,0,0-2,6.575c.025,5.358.021,10.717.016,16.075l0,6.534C22.753,65,22.759,65.241,22.772,65.475Zm4.44-36.885V23.516H44.945V28.59Zm-1.98,8.545c1.186-1.854,2.432-3.707,3.638-5.5l.76-1.131a1.565,1.565,0,0,1,1.228-.655q5.212-.017,10.425,0a1.611,1.611,0,0,1,1.259.68l.064.094c1.4,2.078,2.844,4.227,4.235,6.366a9.149,9.149,0,0,1,1.348,5.266c-.021,1.588-.3,1.965-1.759,2.428-.326.1-.652.213-.978.322a23.33,23.33,0,0,1-2.937.845,9.34,9.34,0,0,1-1.811.179,10.036,10.036,0,0,1-5.474-1.713,11.1,11.1,0,0,0-9.507-1.455c-.13.037-.261.068-.392.1a1.116,1.116,0,0,1-.656-.025l-.635-.228-.058-.689A8.543,8.543,0,0,1,25.232,37.135Zm-.123,7.247a9.951,9.951,0,0,1,9.282.865,11.915,11.915,0,0,0,7.029,1.994,11.562,11.562,0,0,0,3.289-.67c.481-.169.965-.328,1.47-.5l2.006-.668v5.6q0,6.969,0,13.936a2.591,2.591,0,0,1-.95,2.258,3.084,3.084,0,0,1-1.686.589q-5.555.022-11.112.019-3.917,0-7.832-.005a2.541,2.541,0,0,1-2.636-2.712c-.006-1.644,0-3.288,0-4.932l0-4.667c0-3.144,0-6.289-.011-9.433A1.657,1.657,0,0,1,25.11,44.382Z" transform="translate(576.26 1367.983)"/></g></svg>