<svg xmlns="http://www.w3.org/2000/svg" width="74.667" height="66.608" viewBox="0 0 74.667 66.608"><defs><style>.a{fill:#f2f2f2;}.b{fill:#898c8d;}</style></defs><g transform="translate(-707 -1138.29)"><rect class="a" width="43" height="51" rx="10" transform="matrix(0.799, 0.602, -0.602, 0.799, 747.326, 1138.29)"/><path class="b" d="M14.618,47.773a22.389,22.389,0,0,0,1.994,6.348A26.254,26.254,0,0,0,21.381,61.6a9.27,9.27,0,0,0,9.3,2.888c1.02-.247,2.038-.59,3.022-.92l.67-.226a3.469,3.469,0,0,1,2.3-.006l.453.157c.778.268,1.582.546,2.383.782a9.508,9.508,0,0,0,6.7-.2,11.36,11.36,0,0,0,4.246-3.326,30.12,30.12,0,0,0,5.291-9.977,16.847,16.847,0,0,0,.57-8.86,13.106,13.106,0,0,0-5.924-8.777,9.817,9.817,0,0,0-7.129-1.408,26.4,26.4,0,0,0-4.892,1.489,12.464,12.464,0,0,1-1.439.425c-.229.058-.461.117-.7.183l-.124.035-.006-.129c0-.095-.01-.173-.015-.242a1.892,1.892,0,0,1-.008-.315c.027-.3.047-.6.067-.9a17,17,0,0,1,.233-2.127A12.108,12.108,0,0,1,43.806,20.7c.43-.18.577-.443.438-.78a.53.53,0,0,0-.278-.307.806.806,0,0,0-.613.058,12.723,12.723,0,0,0-6.5,5.787c-.288.535-.54,1.106-.782,1.659-.116.26-.23.522-.349.781l-.108.233-.112-.325c-.025-.071-.052-.146-.076-.222a11.7,11.7,0,0,0-3.95-5.938c-2.909-2.244-6.379-3-11.245-2.463a.5.5,0,0,0-.487.485c-.03.275.116.476.461.631a6.761,6.761,0,0,1,3.376,3.326A15.506,15.506,0,0,0,25.065,26.1a11.743,11.743,0,0,0,4.669,3.526c1.027.478,2.1.9,3.143,1.314.563.222,1.126.445,1.685.677.153.063.384.238.4.412.026.381.022.76.019,1.161,0,.144,0,.291,0,.44v.108l-.108-.006a8.8,8.8,0,0,1-2.9-.776l-.277-.11a15.618,15.618,0,0,0-5.354-1.277c-.083,0-.165,0-.248,0a10.475,10.475,0,0,0-8.107,3.83C15.03,38.749,13.932,42.8,14.618,47.773Zm20.1-17.334c-.032-.007-.062-.012-.091-.017a1.288,1.288,0,0,1-.192-.047,26.685,26.685,0,0,1-6.513-3.106,9.2,9.2,0,0,1-3.017-3.479,9.473,9.473,0,0,0-2.356-3.356.152.152,0,0,1-.047-.13l-.011-.109.109-.02c5.272-.239,11.249,2.306,12.243,10.151l.018.145ZM19.048,35.894a9.334,9.334,0,0,1,7.571-3.178,14.538,14.538,0,0,1,4.555,1.143l.092.036a12.666,12.666,0,0,0,3.1.934,9.243,9.243,0,0,0,4.818-.708,19.179,19.179,0,0,1,4.547-1.329,8.747,8.747,0,0,1,6.338,1.466A12.01,12.01,0,0,1,55.16,41.89a15.855,15.855,0,0,1-.5,8.59,29.45,29.45,0,0,1-4.938,9.4,11.366,11.366,0,0,1-3.045,2.7,8.133,8.133,0,0,1-6.805.632c-.762-.226-1.576-.477-2.368-.789a5.34,5.34,0,0,0-3.952,0A25.438,25.438,0,0,1,29.9,63.5a7.808,7.808,0,0,1-7.316-2.291,19.465,19.465,0,0,1-3.824-5.264,26.082,26.082,0,0,1-2.986-8.064c-.1-.639-.157-1.292-.2-1.77-.016-.181-.029-.341-.043-.469v-.012C15.573,41.474,16.689,38.381,19.048,35.894Z" transform="translate(692.58 1128.435)"/></g></svg>