<svg xmlns="http://www.w3.org/2000/svg" width="65.034" height="66.608" viewBox="0 0 65.034 66.608"><defs><style>.a{fill:#f2f2f2;}.b{fill:#898c8d;}</style></defs><g transform="translate(-1260.633 -1383.29)"><rect class="a" width="43" height="51" rx="10" transform="matrix(0.799, 0.602, -0.602, 0.799, 1291.326, 1383.29)"/><g transform="translate(1262.028 1392.264)"><path class="b" d="M53.839,54.657a5.36,5.36,0,0,0-1.983-.42A3.845,3.845,0,0,0,49.1,55.409a68.531,68.531,0,0,0-5.03,5.526,4.189,4.189,0,0,0-.9,3.108,4.457,4.457,0,0,0,7.8,2.486c1.269-1.438,2.663-2.984,4.263-4.728a4.082,4.082,0,0,0,1.216-2.831v-.042A4.316,4.316,0,0,0,53.839,54.657Zm-2.914,9.937c-.088.106-.173.215-.258.323a3.851,3.851,0,0,1-3.019,1.871,3.584,3.584,0,0,1-.427-.027A3.046,3.046,0,0,1,44.564,64.5a3.6,3.6,0,0,1,1.319-3.724c.117-.119.235-.24.35-.365l.824-.9,4.606,4.181Zm2.388-2.663-.822.748-1.172-1.015-3.4-3.076.782-.906c.1-.112.193-.229.286-.344a3.7,3.7,0,0,1,3.5-1.76,2.978,2.978,0,0,1,2.528,2.115C55.678,59.781,54.254,61.075,53.312,61.931Z" transform="translate(-23.461 -30.225)"/><path class="b" d="M27.909,44.592a4.455,4.455,0,0,0-3.056-1.38l-1.654.441a4.031,4.031,0,0,0-2.665,2.783,4.27,4.27,0,0,0,.821,4.125c1.626,1.884,3.321,3.725,4.616,5.119A4.4,4.4,0,0,0,31,56.71a4.42,4.42,0,0,0,1.558-6.985C31.087,47.965,29.472,46.25,27.909,44.592ZM23.28,50.748a3.874,3.874,0,0,1-1.637-3.493,3.009,3.009,0,0,1,2.26-2.574c2.137-.564,3.326.932,4.111,1.923l.822,1.032-4.514,4.1Zm9.014,2.538A3.024,3.024,0,0,1,29.926,55.7a3.529,3.529,0,0,1-.773.09,3.811,3.811,0,0,1-2.9-1.712c-.107-.127-.215-.255-.328-.378L25.1,52.79l4.611-4.2.827.841c.1.1.2.2.3.3A3.66,3.66,0,0,1,32.294,53.286Z" transform="translate(-19.919 -28.513)"/><path class="b" d="M53.839,26.23a5.361,5.361,0,0,0-1.983-.419A3.841,3.841,0,0,0,49.1,26.982a68.387,68.387,0,0,0-5.03,5.526,4.19,4.19,0,0,0-.9,3.108,4.457,4.457,0,0,0,7.8,2.486c1.266-1.435,2.661-2.981,4.263-4.728a4.082,4.082,0,0,0,1.216-2.831V30.5A4.316,4.316,0,0,0,53.839,26.23Zm-2.914,9.937c-.088.106-.172.215-.258.323a3.851,3.851,0,0,1-3.019,1.871,3.4,3.4,0,0,1-.427-.027,3.046,3.046,0,0,1-2.657-2.262,3.6,3.6,0,0,1,1.319-3.724c.117-.119.235-.239.35-.364l.824-.9,4.606,4.182Zm2.39-2.664-.823.748-.85-.722L47.922,30.16l.782-.906c.1-.113.193-.229.286-.345a3.7,3.7,0,0,1,3.5-1.759,2.977,2.977,0,0,1,2.528,2.115C55.678,31.353,54.255,32.647,53.314,33.5Z" transform="translate(-23.461 -25.811)"/><path class="b" d="M30.541,69.619a5.339,5.339,0,0,0-1.982-.42A3.84,3.84,0,0,0,25.8,70.371a67.579,67.579,0,0,0-5.03,5.525,4.186,4.186,0,0,0-.9,3.108,4.457,4.457,0,0,0,7.8,2.486c1.272-1.443,2.627-2.945,4.263-4.727a4.082,4.082,0,0,0,1.216-2.832V73.89A4.314,4.314,0,0,0,30.541,69.619Zm-2.914,9.937c-.086.106-.171.214-.256.322a3.853,3.853,0,0,1-3.02,1.872,3.413,3.413,0,0,1-.427-.027,3.048,3.048,0,0,1-2.657-2.261,3.6,3.6,0,0,1,1.319-3.725c.117-.119.235-.239.35-.364l.824-.9,4.606,4.182Zm2.391-2.664-.823.748-1.172-1.014-3.4-3.076.783-.906c.1-.113.193-.229.286-.345a3.688,3.688,0,0,1,3.5-1.759,2.977,2.977,0,0,1,2.528,2.114C32.381,74.741,30.958,76.035,30.017,76.891Z" transform="translate(-19.844 -32.548)"/></g></g></svg>