<svg xmlns="http://www.w3.org/2000/svg" width="65.483" height="66.608" viewBox="0 0 65.483 66.608"><defs><style>.a{fill:#f2f2f2;}.b{fill:#898c8d;}</style></defs><g transform="translate(-660.656 -833.29)"><rect class="a" width="43" height="51" rx="10" transform="matrix(0.799, 0.602, -0.602, 0.799, 691.799, 833.29)"/><g transform="translate(660.656 837.253)"><path class="b" d="M24.968,66.564H50.6a3.765,3.765,0,0,0,3.76-3.76V33.99a1.423,1.423,0,0,0-.917-1.336L53.3,32.6l.008-.152a6.442,6.442,0,0,0-1.276-4.226l-.109-.145.847-.847a.592.592,0,0,0,0-.835l-1.086-1.086a3.073,3.073,0,0,0-3.177-.717l-.774.273.55-.61c.075-.083.154-.166.24-.246a.59.59,0,1,0-.805-.864,5.44,5.44,0,0,0-.416.435l-.221.259-.131-.314c-1.124-2.7-2.736-4.223-4.411-4.159-1.819.062-3.52,1.917-4.551,4.965l-.049.142h-.164c-1.464,0-2.6,1.207-3.287,2.22L34.277,27l-3.086-7.047a.584.584,0,0,0-.326-.313.574.574,0,0,0-.451.009.589.589,0,0,0-.3.777l3.465,7.914-.037.084a11.014,11.014,0,0,0-.947,3.772l-.008.2-.2,0a3.883,3.883,0,0,0-2.948,1.5,3.138,3.138,0,0,1-2.311,1.27,2.8,2.8,0,0,1-2.213-1.178c-.115-.119-.235-.243-.365-.371l-.044-.065-.932-2.13.114-.1a6.931,6.931,0,0,1,4.506-1.773.59.59,0,0,0,.569-.611.583.583,0,0,0-.612-.569,8.194,8.194,0,0,0-4.862,1.751l-.212.166-1.211-2.766.114-.1a6.939,6.939,0,0,1,4.506-1.773.587.587,0,0,0,.411-.188.579.579,0,0,0,.157-.423.589.589,0,0,0-.611-.569,8.192,8.192,0,0,0-4.862,1.75l-.212.166-1.211-2.765.114-.1a6.935,6.935,0,0,1,4.506-1.773.59.59,0,0,0,.569-.611.582.582,0,0,0-.612-.569,8.2,8.2,0,0,0-4.862,1.751l-.212.166-.916-2.092a4.2,4.2,0,0,1,2.166-5.539,7.95,7.95,0,0,0,.949-.406,4.73,4.73,0,0,1,4.091-.457A4.65,4.65,0,0,1,28.6,16.987a5.206,5.206,0,0,0,.283.639.61.61,0,0,0,.337.334.59.59,0,0,0,.755-.787l-.624-1.423a5.383,5.383,0,0,0-7.094-2.774,6.574,6.574,0,0,1-.847.379,5.96,5.96,0,0,0-3.831,3.393,5.353,5.353,0,0,0,.083,4.122l5.108,11.664-.283.032a1.433,1.433,0,0,0-1.278,1.425V47.243a.59.59,0,0,0,1.181,0c.016-6.135.005-9.457,0-11.247-.008-2.171-.008-2.171.139-2.249l.11-.06.128.079A4.132,4.132,0,0,1,24.053,34.8a3.818,3.818,0,0,0,6.133.014c.762-.778,1.483-1.511,2.9-1.162l.053.021a.392.392,0,0,0,.071.022c.214.054.574.144,1.484,1.09a3.833,3.833,0,0,0,6.181,0,2.888,2.888,0,0,1,2.239-1.2,3.194,3.194,0,0,1,2.321,1.278,3.824,3.824,0,0,0,3.3,1.483A4.026,4.026,0,0,0,51.514,34.8a4.545,4.545,0,0,1,1.2-.991.214.214,0,0,1,.256-.079c.228.087.228.087.217,10.637,0,4.23-.011,10.154-.011,18.439a2.583,2.583,0,0,1-2.58,2.58H24.968a2.583,2.583,0,0,1-2.58-2.58V50.228a.591.591,0,0,0-1.182,0V62.8A3.766,3.766,0,0,0,24.968,66.564Zm22.72-39.905a2.674,2.674,0,0,0,.255-.251,1.952,1.952,0,0,1,3.175.006,2.468,2.468,0,0,0,.237.234l.181.146-.59.589a2.59,2.59,0,0,1-.208.2,1.919,1.919,0,0,1-1.22.439,1.852,1.852,0,0,1-1.18-.42,3.379,3.379,0,0,1-.264-.252l-.543-.542Zm-5.9,5.973-.121.054a4.963,4.963,0,0,0-1.633,1.266,2.926,2.926,0,0,1-2.255,1.219,2.867,2.867,0,0,1-2.222-1.186,7.285,7.285,0,0,0-.98-.9,3.4,3.4,0,0,0-.651-.381l-.156-.084,0-.118c-.049-1.854,1.218-5.153,2.767-6.359A1.828,1.828,0,0,1,38.2,25.71c2,.558,3.656,4.626,3.6,6.789Zm.055-4.608-.14-.27a7,7,0,0,0-2.476-2.879l-.153-.086.059-.165c.714-2.035,2.069-4.088,3.485-4.088,1.477,0,3.04,2.423,3.7,4.764l.016.058-.085.3-.14.017A6.448,6.448,0,0,0,42.051,27.8ZM52.105,32.69l-.013.105L52,32.848a5.762,5.762,0,0,0-1.289,1.085,3.012,3.012,0,0,1-2.271,1.238A3.094,3.094,0,0,1,46.125,33.9a3.816,3.816,0,0,0-2.942-1.5l-.2,0-.007-.2a10.165,10.165,0,0,0-.562-2.781l-.033-.1.054-.084a5.234,5.234,0,0,1,3.428-2.328l.243-.047.007.248a5.444,5.444,0,0,0,.192,1.36.59.59,0,0,0,1.056.151l.124-.189.179.138a3.07,3.07,0,0,0,3.194.33l.156-.075.1.14A5.239,5.239,0,0,1,52.105,32.69Z" transform="translate(-17.204 -12.52)"/></g></g></svg>