<svg xmlns="http://www.w3.org/2000/svg" width="76.656" height="66.608" viewBox="0 0 76.656 66.608"><defs><style>.a{fill:#f2f2f2;}.b{fill:#898c8d;}</style></defs><g transform="translate(-1367.011 -1138.29)"><rect class="a" width="43" height="51" rx="10" transform="matrix(0.799, 0.602, -0.602, 0.799, 1409.326, 1138.29)"/><path class="b" d="M64.84,49.592a19.586,19.586,0,0,0-2.788-7.046,19.082,19.082,0,0,0-7.084-6.616,26.9,26.9,0,0,0-3.154-1.356l-.523-.2a14.441,14.441,0,0,0-5.116-.9c-2.666-.024-5.2-.036-7.647-.036-2.245,0-4.411.011-6.53.031a20.69,20.69,0,0,0-4,.414,19.38,19.38,0,0,0-12.2,8.093,18.55,18.55,0,0,0-3.388,9.3c-.1,1.269-.107,2.573-.109,3.833l0,.632a12.605,12.605,0,0,0,.129,2.438,5.943,5.943,0,0,0,4.616,4.991,10.737,10.737,0,0,0,2.652.228l.462,0c1.9.021,3.8.016,5.708.013l32.859,0a6.375,6.375,0,0,0,6.44-6.447l0-.86c0-.55-.007-1.1,0-1.652A23.545,23.545,0,0,0,64.84,49.592ZM47.979,35.735c0-.087,0-.173.014-.3l.038-.623,1.1.329c.984.293,1.928.575,2.868.871a.679.679,0,0,1,.369.608c.01,3.318.018,6.637,0,9.955a2.151,2.151,0,0,1-2.017,2.138c-.05,0-.1,0-.148,0a2.16,2.16,0,0,1-2.185-1.888,3.738,3.738,0,0,1-.043-.568Q47.975,41,47.979,35.735Zm-11.458.614V35.61c0-.717.128-.842.855-.843h2.687c.739,0,.861.124.861.88l.014,5.331v1.652q0,1.926,0,3.853a2.3,2.3,0,0,1-1.972,2.25,2.016,2.016,0,0,1-.233.014,2.217,2.217,0,0,1-2.14-1.82,5.6,5.6,0,0,1-.073-.964Q36.516,41.155,36.521,36.349ZM25.7,35.9c.79-.216,1.577-.446,2.4-.688l1.37-.4v3.869q0,3.878-.007,7.756a2.3,2.3,0,0,1-1.011,1.946,2.091,2.091,0,0,1-1.147.34,2.3,2.3,0,0,1-.929-.2,2.048,2.048,0,0,1-1.23-1.5,3.908,3.908,0,0,1-.079-.8l0-3.635q0-2.893-.008-5.787A.811.811,0,0,1,25.7,35.9ZM63.765,57.663a4.794,4.794,0,0,1-4.14,4.324,22.251,22.251,0,0,1-2.931.1c-.274,0-.552-.008-.823-.005q-8.068.005-16.137,0H27.105c-.834,0-1.668.007-2.5.014s-1.694.014-2.54.014l-.811,0h-.673a17.99,17.99,0,0,1-2.881-.146,4.866,4.866,0,0,1-4.052-4.658,33.671,33.671,0,0,1,.309-7.607A18.468,18.468,0,0,1,23.06,37.12c.044-.025.091-.048.167-.082l.528-.25v9.7a3.569,3.569,0,0,0,1.052,2.561,3.531,3.531,0,0,0,5.987-2.556V34.766l2.145,0c.514,0,1.029.007,1.543-.011a.626.626,0,0,1,.733.729c-.009,1.442-.008,2.884-.006,4.326V46.5a3.5,3.5,0,0,0,3.5,3.541h.025a3.487,3.487,0,0,0,2.482-1.006,3.541,3.541,0,0,0,1.036-2.537q.005-5.481-.006-10.963a.8.8,0,0,1,.186-.605.779.779,0,0,1,.587-.169c1.061.037,2.127.033,2.938.024a.753.753,0,0,1,.538.173.771.771,0,0,1,.18.568q-.016,5.024-.006,10.048v.914a3.463,3.463,0,0,0,3.122,3.525,3.508,3.508,0,0,0,3.889-2.952,3.013,3.013,0,0,0,.026-.52V36.761l.564.271a3.277,3.277,0,0,1,.3.152,18.977,18.977,0,0,1,6.666,6.58,18.115,18.115,0,0,1,2.592,9.216l.007.69C63.853,54.98,63.869,56.335,63.765,57.663Z" transform="translate(1354.722 1125.355)"/></g></svg>