<svg xmlns="http://www.w3.org/2000/svg" width="68.508" height="66.608" viewBox="0 0 68.508 66.608"><defs><style>.a{fill:#f2f2f2;}.b{fill:none;stroke:#898c8d;stroke-width:1.4px;}</style></defs><g transform="translate(-808.159 -1381.29)"><rect class="a" width="43" height="51" rx="10" transform="matrix(0.799, 0.602, -0.602, 0.799, 842.326, 1381.29)"/><path class="b" d="M62.068,61.2l-2.807-1.571q-3.185-1.779-6.371-3.557Q50.968,55,49.037,53.949c-.692-.376-.675-.359-.478-1.1a20.5,20.5,0,0,0-.7-13.447,21.714,21.714,0,0,0-6.372-8.565,31.264,31.264,0,0,0-7.085-4.3,45.176,45.176,0,0,0-9.948-3.111c-.886-.176-1.781-.3-2.676-.424a.455.455,0,0,0-.366.249c-.472,2.258-.985,4.51-1.359,6.785a35.428,35.428,0,0,0-.33,7.72,26.332,26.332,0,0,0,2.848,11A20.6,20.6,0,0,0,38.6,59.648c.312.039.428.142.46.467.354,3.592.724,7.183,1.091,10.774q.2,1.948.4,3.9a4.915,4.915,0,0,0,.11.495c.127-.142.215-.223.284-.319q2.728-3.811,5.454-7.623c.675-.943,1.345-1.89,2.043-2.814a1.154,1.154,0,0,1,.613-.4c3.031-.684,6.066-1.345,9.1-2.013q1.746-.383,3.491-.767C61.748,61.318,61.847,61.274,62.068,61.2ZM29.558,31.885a2.011,2.011,0,1,1,2.749.612A1.988,1.988,0,0,1,29.558,31.885Z" transform="matrix(0.978, -0.208, 0.208, 0.978, 784.991, 1373.86)"/></g></svg>