<svg xmlns="http://www.w3.org/2000/svg" width="65.034" height="66.608" viewBox="0 0 65.034 66.608"><defs><style>.a{fill:#f2f2f2;}.b{fill:#898c8d;}</style></defs><g transform="translate(-1201 -1319.29)"><g transform="translate(-12)"><g transform="translate(-9 -177)"><rect class="a" width="43" height="51" rx="10" transform="matrix(0.799, 0.602, -0.602, 0.799, 1252.693, 1496.29)"/><g transform="translate(1205.767 1479.921)"><path class="b" d="M40.554,75.769l.016-.124h.124c.125,0,.247,0,.365,0,.255,0,.5-.008.738.008a1.681,1.681,0,0,0,1.3-.428,1.992,1.992,0,0,0,.576-1.451c-.023-2.336-.021-4.711-.019-7.008q0-1.4,0-2.8v-.077a1.424,1.424,0,0,0-.019-.306.518.518,0,0,0-.559-.485.486.486,0,0,0-.529.495c-.023.3-.025.619-.027.923l0,.262c0,.311,0,.622,0,.937v.566H18.418V60.611h.141c.217,0,.431,0,.642,0,.46,0,.909,0,1.36-.006a2.379,2.379,0,0,0,2.378-2.29c.048-1.509.037-3,.007-4.781a2.239,2.239,0,0,0-1.279-1.977,3.53,3.53,0,0,0-1.833-.312h-1.45v-2.1q0-2.425,0-4.848c0-.046,0-.094,0-.142a.74.74,0,0,0-.038-.364c-.175-.26-.374-.44-.5-.448a.848.848,0,0,0-.542.369.887.887,0,0,0-.061.462l0,.122q-.008,11.282-.008,22.567c0,.714,0,1.428.006,2.142.006,1.548.013,3.148-.011,4.722a1.96,1.96,0,0,0,.555,1.483,1.764,1.764,0,0,0,1.372.431c.242-.017.479-.012.729-.008.112,0,.227,0,.343,0h.133l.009.132c.008.123.009.244.009.365,0,.448,0,.8.348,1.061H21.2c.347-.26.348-.633.348-1.061,0-.11,0-.221.006-.331l.007-.133H39.327l.016.124c.016.133.019.27.023.408.008.4.015.75.346.994h.465c.332-.242.341-.593.352-1A4.237,4.237,0,0,1,40.554,75.769ZM18.409,52.422h.141c.229,0,.457,0,.682-.007.546-.008,1.062-.015,1.589.022a1.238,1.238,0,0,1,1.015,1.183c.016,1.652.018,3.158,0,4.6a1.273,1.273,0,0,1-1.214,1.253c-.267.018-.532.023-.8.023-.2,0-.41,0-.62-.006s-.433-.007-.656-.007h-.141ZM32.44,74.536H19.354c-.879,0-.96-.082-.962-.972l-.008-6.116h24.1l.023.28c.011.109.02.213.02.317q0,2.834,0,5.666c0,.694-.133.824-.831.824Z" transform="translate(-0.001 -3.095)"/><path class="b" d="M43.678,29.142a1.977,1.977,0,0,0-.541-1.424,1.909,1.909,0,0,0-1.391-.516c-7.5.035-15.094.035-22.567,0a1.929,1.929,0,0,0-1.423.527,1.972,1.972,0,0,0-.522,1.441c.027,1.92.023,3.872.019,5.759q0,1.359,0,2.717a2.1,2.1,0,0,0,.061.55c.064.22.235.412.482.342a1.162,1.162,0,0,0,.558-.431.717.717,0,0,0,.042-.365c0-.045,0-.091,0-.133,0-.631,0-1.263,0-1.922v-.917H35.659a.954.954,0,0,0,.679-.2.471.471,0,0,0,.129-.348c0-.453-.442-.55-.811-.551H18.393V28.939c0-.621.516-.621.764-.621H41.768c.6,0,.752.158.754.769,0,.812,0,1.623,0,2.435v2.147l-1.583,0c-.72,0-1.44,0-2.159,0-.406,0-.66.214-.664.554a.5.5,0,0,0,.139.371.708.708,0,0,0,.515.179c.532,0,1.064,0,1.6,0l2.015,0h.141v3.891q0,8.078-.006,16.157v.441c0,.805,0,1.638.019,2.456a.581.581,0,0,0,.563.618.617.617,0,0,0,.559-.646c0-.062,0-.124,0-.187V50.621C43.66,43.582,43.66,36.3,43.678,29.142Z" transform="translate(0 0)"/><path class="b" d="M21.214,56.808a.58.58,0,0,0-.548-.618h-.011a.594.594,0,0,0-.555.635c-.015,1.082-.017,2.132,0,3.122.006.4.217.643.567.643h.007c.129,0,.525-.006.544-.665.01-.346.008-.692.006-1.037,0-.159,0-.318,0-.476s0-.321,0-.481C21.226,57.562,21.23,57.181,21.214,56.808Z" transform="translate(-0.547 -5.557)"/></g></g></g></g></svg>