<svg xmlns="http://www.w3.org/2000/svg" width="68.369" height="66.608" viewBox="0 0 68.369 66.608"><defs><style>.a{fill:#f2f2f2;}.b{fill:none;stroke:#a7a7a7;stroke-linecap:round;stroke-linejoin:round;stroke-miterlimit:10;stroke-width:1.3px;}</style></defs><g transform="translate(-637.291 -1163.29)"><g transform="translate(-18.374)"><rect class="a" width="43" height="51" rx="10" transform="matrix(0.799, 0.602, -0.602, 0.799, 689.693, 1163.29)"/><g transform="translate(2 -1)"><path class="b" d="M14.752,44.179,3.577,41.518a1.725,1.725,0,0,1-1.277-1.7V19.7l12.452,2.98Z" transform="translate(654.011 1175.656)"/><path class="b" d="M14,44.321l26.075-5a2.148,2.148,0,0,0,1.7-2.022V17.5L14,22.822v21.5Z" transform="translate(654.764 1175.515)"/><path class="b" d="M14.759,39.177,2.2,36.2V19.7l12.559,2.98Z" transform="translate(654.005 1175.656)"/><path class="b" d="M14,39.318,41.778,34V17.5L14,22.822Z" transform="translate(654.764 1175.515)"/><path class="b" d="M32.32,11.534,38.28,2.7,11.034,7.915,2.2,20.793l10.217-2.129" transform="translate(654.005 1174.563)"/><path class="b" d="M38.391,2.837l-1.7-1.809A1.462,1.462,0,0,0,35.411.6L10.08,5.5A3.425,3.425,0,0,0,8.164,6.775L.821,17.1a1.943,1.943,0,0,0,.213,2.448L2.311,20.93" transform="translate(653.894 1174.426)"/><path class="b" d="M12,20.382l1.171-1.49a3.65,3.65,0,0,1,5.215-.745l1.064.745" transform="translate(654.635 1175.506)"/><path class="b" d="M12.6,13.5h.426a3.543,3.543,0,0,1,3.512,3.512v2.129" transform="translate(654.674 1175.257)"/><path class="b" d="M34.977,16.8V15.2L33.7,13.5" transform="translate(656.03 1175.257)"/><line class="b" x1="5.322" transform="translate(682.28 1190.567)"/><path class="b" d="M26.7,18.289V15.1l1.277-1.6" transform="translate(655.58 1175.257)"/><line class="b" x2="8.834" transform="translate(682.067 1188.225)"/><path class="b" d="M20.209,18.724c-.213,0-.532,0-.639-.106-.319-.319.106-1.171-.106-1.6S18.4,16.277,18.4,15.744s.851-.851,1.064-1.277-.213-1.277.106-1.6,1.171.106,1.6-.106.745-1.064,1.277-1.064.851.851,1.277,1.064,1.277-.213,1.6.106-.106,1.171.106,1.6,1.064.745,1.064,1.277-.851.851-1.064,1.277.213,1.277-.106,1.6c-.106.106-.426.106-.745.106" transform="translate(655.047 1175.142)"/></g></g></g></svg>