<svg xmlns="http://www.w3.org/2000/svg" width="78.055" height="66.608" viewBox="0 0 78.055 66.608"><defs><style>.a{fill:#f2f2f2;}.b{fill:#a7a7a7;stroke:#fff;stroke-width:0.7px;}</style></defs><g transform="translate(-721.979 -860.29)"><rect class="a" width="43" height="51" rx="10" transform="matrix(0.799, 0.602, -0.602, 0.799, 765.692, 860.29)"/><g transform="translate(722.329 865)"><g transform="translate(0 18.267)"><path class="b" d="M52.3,178.58H43.759v-2.205a1.042,1.042,0,0,0-1.042-1.042h-22.5a1.042,1.042,0,0,0,0,2.084H41.676V185.4a19.851,19.851,0,0,1-9.8,17.087h-20a19.851,19.851,0,0,1-9.8-17.087v-7.988H9.064a1.042,1.042,0,0,0,0-2.084H1.042A1.042,1.042,0,0,0,0,176.375v9.03a21.843,21.843,0,0,0,8.217,17.087H1.042A1.042,1.042,0,0,0,0,203.533a6.884,6.884,0,0,0,6.876,6.876H39.383a6.884,6.884,0,0,0,6.876-6.876,1.042,1.042,0,0,0-1.042-1.042H35.543a22.006,22.006,0,0,0,4.824-5.383h2.941a10.048,10.048,0,0,0,10.037-10.037v-7.449A1.042,1.042,0,0,0,52.3,178.58Zm-8.241,26a4.8,4.8,0,0,1-4.679,3.751H6.876A4.8,4.8,0,0,1,2.2,204.575H44.062Zm-.3-19.171v-.573h3.334v2.24a3.79,3.79,0,0,1-3.785,3.785h-.237A21.933,21.933,0,0,0,43.759,185.4Zm7.5,1.667a7.962,7.962,0,0,1-7.953,7.953H41.535a21.756,21.756,0,0,0,.889-2.084h.884a5.876,5.876,0,0,0,5.869-5.869V183.79a1.042,1.042,0,0,0-1.042-1.042H43.759v-2.084h7.5Z" transform="translate(0 -175.333)"/></g><g transform="translate(19.648 0)"><g transform="translate(0 0)"><path class="b" d="M191.811,5.766l-.542-.681a2.716,2.716,0,0,1,0-3.4,1.042,1.042,0,0,0-1.632-1.3,4.79,4.79,0,0,0,.005,5.99l.542.681a3.549,3.549,0,0,1,0,4.438l-.556.7a1.042,1.042,0,1,0,1.632,1.3l.556-.7A5.624,5.624,0,0,0,191.811,5.766Z" transform="translate(-188.585 0)"/></g></g><g transform="translate(25.424 2.342)"><path class="b" d="M247.24,28.25l-.542-.681a2.716,2.716,0,0,1,0-3.4,1.042,1.042,0,0,0-1.632-1.3,4.79,4.79,0,0,0,.005,5.99l.542.681a3.55,3.55,0,0,1,0,4.438l-.555.7a1.042,1.042,0,1,0,1.632,1.3l.555-.7A5.624,5.624,0,0,0,247.24,28.25Z" transform="translate(-244.014 -22.484)"/></g><g transform="translate(13.873 2.342)"><path class="b" d="M136.382,28.251l-.542-.681a2.716,2.716,0,0,1,0-3.4,1.042,1.042,0,1,0-1.632-1.3,4.791,4.791,0,0,0,.005,5.99l.542.681a3.55,3.55,0,0,1,0,4.438l-.556.7a1.042,1.042,0,1,0,1.632,1.3l.556-.7A5.624,5.624,0,0,0,136.382,28.251Z" transform="translate(-133.156 -22.485)"/></g><g transform="translate(13.879 18.267)"><path class="b" d="M134.988,175.635a1.043,1.043,0,1,0,.305.737A1.05,1.05,0,0,0,134.988,175.635Z" transform="translate(-133.21 -175.33)"/></g><g transform="translate(32.069 27.297)"><path class="b" d="M313.442,262a1.042,1.042,0,0,0-1.042,1.042,14.928,14.928,0,0,1-4.3,10.427,1.042,1.042,0,1,0,1.48,1.467,17.027,17.027,0,0,0,4.908-11.894A1.042,1.042,0,0,0,313.442,262Z" transform="translate(-307.795 -262)"/></g><g transform="translate(28.646 41.064)"><path class="b" d="M276.919,394.666a1.042,1.042,0,0,0-1.419-.4l-.024.013A1.042,1.042,0,1,0,276.5,396.1l.024-.013A1.042,1.042,0,0,0,276.919,394.666Z" transform="translate(-274.945 -394.136)"/></g></g></g></svg>