<svg xmlns="http://www.w3.org/2000/svg" width="65.034" height="68.889" viewBox="0 0 65.034 68.889"><defs><style>.a{fill:#f2f2f2;}.b{fill:#898c8d;stroke:#898c8d;stroke-width:0.35px;}</style></defs><g transform="translate(-1034.633 -1379.009)"><rect class="a" width="43" height="51" rx="10" transform="matrix(0.799, 0.602, -0.602, 0.799, 1065.326, 1381.29)"/><path class="b" d="M26.7,42.12l.3.082.021.082L34.7,70.941a1.85,1.85,0,0,0,3.572,0L45.976,42.2l.3-.082A4.283,4.283,0,0,0,49.418,38v-1.2A1.125,1.125,0,0,0,49.3,36.3l-.171-.34.267-.274c1.311-1.326,1.618-3.109.912-5.3a4.516,4.516,0,0,0-3.874-2.994l-.749-.122.366-.666a5.552,5.552,0,0,0,.427-4.174c-.787-2.733-3.405-2.76-4.969-2.776l-.878-.007.4-.776a7.792,7.792,0,0,0,.831-5.078c-.292-1.277-1.248-2.95-4.15-3.678a13.429,13.429,0,0,0-3.276-.366c-.479,0-.967.021-1.45.064a.505.505,0,0,0-.113.989,3.1,3.1,0,0,1,2.255,2.173c.345,1.485-.073,3.549-6.425,6.335a5.375,5.375,0,0,0-3.385,3.376,5.984,5.984,0,0,0,.994,4.532l.376.608-.689.192a6.029,6.029,0,0,0-1.858.868,3.865,3.865,0,0,0-1.755,3.239A5.083,5.083,0,0,0,23.6,35.684l.245.277-.168.328a1.1,1.1,0,0,0-.125.506V38A4.285,4.285,0,0,0,26.7,42.12ZM37.5,70.735a1.055,1.055,0,0,1-2.039,0l-.006-.039-1.735-6.452,1.01.426c1.124.475,2.308.937,3.519,1.374l.466.166ZM40.491,59.6l-1.378-.528a.4.4,0,0,0-.513.231.394.394,0,0,0,.007.307.384.384,0,0,0,.219.207l1.463.537-1.365,5.093-.549-.2c-1.666-.609-3.242-1.246-4.684-1.894l-.231-.1-.019-.068L31.659,56.54l1.078.558c.639.333,1.315.665,2.009.986a.4.4,0,1,0,.335-.719c-1.173-.552-2.352-1.147-3.5-1.77l-.2-.111-1.925-7.191,1.162.737a58.28,58.28,0,0,0,10.779,5.356l.456.173Zm1.559-5.814-.553-.206A56.468,56.468,0,0,1,29.286,47.2l-.162-.111-.014-.053-1.279-4.767h3.25l.138.1A51.69,51.69,0,0,0,42.931,48.65l.45.173Zm1.538-5.733-.556-.212a51.694,51.694,0,0,1-9.088-4.58l-1.552-.988H45.138ZM27.912,35.688H24.774l-.146-.117a4.124,4.124,0,0,1-1.444-3.439c.014-2.517,2.771-3.382,3.735-3.486l.259-.025.331.2A14.287,14.287,0,0,0,28.6,30.046a.419.419,0,0,0,.56-.019.4.4,0,0,0,.106-.289.377.377,0,0,0-.122-.269,25.412,25.412,0,0,1-1.853-2.216c-.636-.919-1.634-2.7-1.2-4.359a4.633,4.633,0,0,1,2.94-2.855C32.647,18.454,36.7,16.2,35.906,12.8a3.366,3.366,0,0,0-.634-1.335l-.765-.967,1.231.1c3.06.259,4.911,1.424,5.358,3.368a7.134,7.134,0,0,1-.9,4.788,8.871,8.871,0,0,1-2.976,3.012.4.4,0,0,0-.193.528.382.382,0,0,0,.539.188,7.161,7.161,0,0,0,2.281-1.9l.167-.194.438.036c.192.018.463.024.752.028l.275.006c1.975.015,3.656.192,4.236,2.2a4.748,4.748,0,0,1-.432,3.691,17.979,17.979,0,0,1-2.771,2.948.382.382,0,0,0-.14.265.377.377,0,0,0,.085.288.4.4,0,0,0,.271.141.366.366,0,0,0,.283-.078,16.1,16.1,0,0,0,1.746-1.679l.227-.252.324.1a1.061,1.061,0,0,0,.143.02c2.174.077,3.595.951,4.1,2.53.7,2.18.281,3.849-1.245,4.959h0l-.142.1H32.281a.4.4,0,0,0,0,.8H48.625V38a3.488,3.488,0,0,1-3.008,3.446,2.09,2.09,0,0,1-.267.021,1.34,1.34,0,0,1-.195.007H27.814a1.993,1.993,0,0,1-.253-.011,1.09,1.09,0,0,1-.2-.017A3.491,3.491,0,0,1,24.345,38V36.485h3.567a.4.4,0,0,0,0-.8Z" transform="translate(1015.981 1369.432)"/></g></svg>