<svg xmlns="http://www.w3.org/2000/svg" width="71.034" height="66.608" viewBox="0 0 71.034 66.608"><defs><style>.a{fill:#f2f2f2;}.b{fill:#898c8d;}</style></defs><g transform="translate(-843.106 -833.29)"><rect class="a" width="43" height="51" rx="10" transform="matrix(0.799, 0.602, -0.602, 0.799, 879.799, 833.29)"/><g transform="translate(843.106 841.056)"><path class="b" d="M33.239,20.895a14.893,14.893,0,0,0-8.08,7.893,12.438,12.438,0,0,0-1.113,4.2.875.875,0,0,0,.2.651.669.669,0,0,0,.468.227c.18.012.664.033.769-.841a12.9,12.9,0,0,1,3.867-7.866,13.482,13.482,0,0,1,20.11,1.266,13.474,13.474,0,0,1,2.766,6.621.769.769,0,0,0,.3.509.517.517,0,0,0,.379.113c.484-.071.809-.4.756-.774a15.067,15.067,0,0,0-3.387-7.742A14.706,14.706,0,0,0,42.6,20.3c-.571-.149-1.153-.247-1.77-.35-.263-.044-.526-.089-.789-.136H37.595l-.056.013a3.482,3.482,0,0,1-.387.077A14.225,14.225,0,0,0,33.239,20.895Z" transform="translate(-16.857 -19.811)"/><path class="b" d="M17.77,49.21q1.43,6.617,2.817,13.24c.209.993.4,1.991.584,2.989l.2,1.056a3.639,3.639,0,0,0,3.694,2.982q8.856,0,17.709,0h7.084l.2,0c.15,0,.3.005.445-.007a3.433,3.433,0,0,0,3.007-1.821,5.2,5.2,0,0,0,.415-1.408l.068-.33q.781-3.679,1.558-7.36,1.016-4.814,2.04-9.629a2.074,2.074,0,0,1,.627-1.05,3.3,3.3,0,0,0,.723-4.07A3.376,3.376,0,0,0,55.708,42q-6.679-.008-13.359,0H34.3q-7.347,0-14.692,0a12.053,12.053,0,0,0-1.219.069,3.314,3.314,0,0,0-1.361,6.11A1.731,1.731,0,0,1,17.77,49.21Zm-1.024-3.886a2,2,0,0,1,1.563-1.968,4.27,4.27,0,0,1,.934-.089q7.688-.005,15.371,0h5.9q7.551,0,15.1.008a3.009,3.009,0,0,1,1.346.273,2.051,2.051,0,0,1,1.117,1.744,1.891,1.891,0,0,1-.883,1.719,1.77,1.77,0,0,0-.8,1.341q-.695,3.364-1.4,6.728c-.763,3.648-1.528,7.3-2.264,10.949a2.615,2.615,0,0,1-2.669,2.207h-.01Q40.622,68.2,31.2,68.218l-5.933,0a2.457,2.457,0,0,1-2.682-2.3c-.286-1.527-.616-3.076-.936-4.575L20.47,55.813q-.824-3.866-1.637-7.733a.885.885,0,0,0-.635-.771A1.99,1.99,0,0,1,16.746,45.324Z" transform="translate(-15.45 -23.444)"/><path class="b" d="M29.17,63.956c0,.422.156.48.38.452.22,0,.375-.033.376-.447q.011-5.3,0-10.6a.529.529,0,0,0-.081-.342.566.566,0,0,0-.375-.069c-.167.008-.3.015-.3.5q-.006,1.845,0,3.691v1.539l0,1.6C29.164,61.507,29.162,62.732,29.17,63.956Z" transform="translate(-17.696 -25.238)"/><path class="b" d="M37.946,64.374c.119-.04.2-.066.2-.367q.006-4.374,0-8.75V53.312a.542.542,0,0,0-.008-.1c-.04-.207-.1-.259-.319-.266h-.046a.482.482,0,0,0-.285.055.755.755,0,0,0-.089.448q-.008,1.825,0,3.651v6.441l0,.155a3.25,3.25,0,0,0,.006.338.456.456,0,0,0,.151.335A.478.478,0,0,0,37.946,64.374Z" transform="translate(-19.043 -25.238)"/><path class="b" d="M46.356,64q.006-5.323,0-10.647a.546.546,0,0,0-.075-.346.479.479,0,0,0-.3-.064H45.94c-.217.007-.307.01-.309.413q-.009,1.883,0,3.766v1.509l0,1.535c0,1.277,0,2.554.005,3.831,0,.379.136.406.358.406C46.237,64.408,46.355,64.348,46.356,64Z" transform="translate(-20.392 -25.238)"/><path class="b" d="M53.858,64.087c0,.171.028.313.35.313h0c.327,0,.354-.156.355-.314q.005-3.17,0-6.34V53.255c0-.2-.066-.246-.13-.285A.467.467,0,0,0,54.2,52.9a.339.339,0,0,0-.34.366c-.009,1.284-.007,2.567-.005,3.852l0,1.514v1.519C53.851,61.46,53.85,62.774,53.858,64.087Z" transform="translate(-21.739 -25.23)"/></g></g></svg>