<svg xmlns="http://www.w3.org/2000/svg" width="78.037" height="66.608" viewBox="0 0 78.037 66.608"><defs><style>.a{fill:#f2f2f2;}.b{fill:#898c8d;stroke:#fff;stroke-linejoin:round;stroke-width:0.283px;}</style></defs><g transform="translate(-819.852 -1163.29)"><rect class="a" width="43" height="51" rx="10" transform="matrix(0.799, 0.602, -0.602, 0.799, 863.548, 1163.29)"/><path class="b" d="M61.6,51.487a5,5,0,0,0-1.321-.626c-1.46-.367-2.924-.754-4.41-.983a122.143,122.143,0,0,0-17.051-1.092c-.456,0-.924.01-1.387.016a123.891,123.891,0,0,0,16.6-6.392c1.7-.817,3.321-1.813,5.011-2.744l1.383-.976c-.122-.387-.24-.774-.356-1.162a1.46,1.46,0,0,0-1.114-1.1,5.409,5.409,0,0,0-1.747-.214c-2.507.3-5.033.532-7.5,1.044A140.65,140.65,0,0,0,29.677,43.2,77.524,77.524,0,0,0,17.9,48.424a20.008,20.008,0,0,0-2.683,1.908,1.751,1.751,0,0,0-.541,2.087,2.041,2.041,0,0,0-.07.537q.026,9.249,0,18.5A1.644,1.644,0,0,0,15.5,73a5.5,5.5,0,0,0,1.454.622,50.338,50.338,0,0,0,5.573,1.082c3.57.365,7.155.661,10.74.786a119.737,119.737,0,0,0,23.628-1.146,28.613,28.613,0,0,0,4.283-1.194,1.627,1.627,0,0,0,1.194-1.612q0-9.341,0-18.681A1.519,1.519,0,0,0,61.6,51.487Zm-12.9-.723a47.445,47.445,0,0,1,10.409,1.422c.464.125.911.313,1.366.472,0,.084.009.167.013.25-1.175.293-2.338.662-3.528.867a114.09,114.09,0,0,1-19.891,1.263A112.986,112.986,0,0,1,23.2,54.249c-1.82-.232-3.618-.648-5.421-1.014.8-.05,1.6-.1,2.394-.206A83.512,83.512,0,0,0,31.5,50.557c.876-.029,1.752-.051,2.628-.056Q41.417,50.454,48.7,50.764Zm-30.363-.731a73.275,73.275,0,0,1,11.19-5.046,141.468,141.468,0,0,1,18.81-5.761c2.6-.584,5.252-.947,7.888-1.365a12.459,12.459,0,0,1,1.927-.015c.026.095.052.19.079.284-1.034.638-2.037,1.334-3.108,1.9a102.093,102.093,0,0,1-15.2,6.245,125.292,125.292,0,0,1-17.029,4.655c-1.857.35-3.757.476-5.639.689a4.887,4.887,0,0,1-.825-.043l-.075-.192C17.013,50.933,17.647,50.436,18.337,50.033ZM60.059,71.907c-1.666.386-3.32.87-5.008,1.1a135.419,135.419,0,0,1-24.328.787,76.42,76.42,0,0,1-11.009-1.144,24.589,24.589,0,0,1-3.047-.871.806.806,0,0,1-.425-.611c-.023-5.453-.017-10.9-.015-16.357a2.455,2.455,0,0,1,.029-.262,65.966,65.966,0,0,0,17.083,2.016c5.181.087,10.37-.043,15.55-.243a48.886,48.886,0,0,0,10.533-1.431c.41-.108.814-.241,1.31-.389v.7c0,5.248-.01,10.5.015,15.744C60.75,71.5,60.544,71.795,60.059,71.907Z" transform="translate(805.461 1142.218)"/></g></svg>