<svg xmlns="http://www.w3.org/2000/svg" width="74.502" height="75.608" viewBox="0 0 74.502 75.608"><defs><style>.a{fill:#f2f2f2;}.b{fill:none;stroke:#747474;stroke-miterlimit:10;}</style></defs><g transform="translate(-1135.414 -631.29)"><rect class="a" width="48.81" height="57.891" rx="10" transform="matrix(0.799, 0.602, -0.602, 0.799, 1170.934, 631.29)"/><g transform="translate(1136.095 645.718)"><g transform="translate(0 0)"><path class="b" d="M313.7,46.14,334.245,25.6a10.911,10.911,0,0,0,14.431-12.91.712.712,0,0,0-1.191-.332l-6.216,6.218-6.407-6.405,6.218-6.218a.71.71,0,0,0-.323-1.189,10.932,10.932,0,0,0-10.3,2.733,11.094,11.094,0,0,0-2.622,11.7" transform="translate(-302.178 -4.429)"/><path class="b" d="M329.221,13.595,309.013,33.8a2.489,2.489,0,0,0,0,3.519l2.886,2.886a2.489,2.489,0,0,0,3.519,0" transform="translate(-308.284 5.896)"/></g></g></g></svg>