<?xml version="1.0" encoding="utf-8"?>
<!-- Generator: Adobe Illustrator 24.0.3, SVG Export Plug-In . SVG Version: 6.00 Build 0)  -->
<svg version="1.1" id="Camada_1" xmlns="http://www.w3.org/2000/svg" xmlns:xlink="http://www.w3.org/1999/xlink" x="0px" y="0px"
	 viewBox="0 0 74.2 75.6" style="enable-background:new 0 0 74.2 75.6;" xml:space="preserve">
<style type="text/css">
	.st0{fill:#F2F2F2;}
	.st1{fill:none;stroke:#575756;stroke-width:1.018;stroke-linecap:round;}
</style>
<path class="st0" d="M44.1,5.9l23,17.3c4.4,3.3,5.3,9.6,2,14L46.3,67.6c-3.3,4.4-9.6,5.3-14,2l-23-17.3c-4.4-3.3-5.3-9.6-2-14
	L30.1,7.9C33.5,3.5,39.7,2.6,44.1,5.9z"/>
<g>
	<g>
		<path class="st1" d="M1.7,29v-6.5l8.2-7.6h20.8c0.9,0,1.7,0.8,1.7,1.7v32.9c0,0.9-0.8,1.7-1.7,1.7H3.4c-0.9,0-1.7-0.8-1.7-1.7
			V34.1"/>
		<path class="st1" d="M32.8,20.3h3.6c0.9,0,1.7,0.8,1.7,1.7v32.9c0,0.9-0.8,1.7-1.7,1.7H9.1c-0.9,0-1.7-0.8-1.7-1.7v-3.5"/>
		<path class="st1" d="M23.5,61.8h-9.2c-0.9,0-1.7-0.8-1.7-1.7v-3.5"/>
		<path class="st1" d="M43.4,40.5v19.6c0,0.9-0.8,1.7-1.7,1.7H28.1"/>
		<path class="st1" d="M38.1,25.5h3.6c0.9,0,1.7,0.8,1.7,1.7v6.9"/>
		<path class="st1" d="M1.7,22.5h5.6c1.4,0,2.6-1.1,2.6-2.4v-5.2"/>
	</g>
</g>
</svg>
