<svg xmlns="http://www.w3.org/2000/svg" width="81.715" height="75.608" viewBox="0 0 81.715 75.608"><defs><style>.a{fill:#f2f2f2;}.b{fill:#4a4a4a;stroke:#fff;stroke-width:0.7px;}</style></defs><g transform="translate(-715.639 -631.29)"><g transform="translate(716 631.29)"><rect class="a" width="48.81" height="57.891" rx="10" transform="matrix(0.799, 0.602, -0.602, 0.799, 42.372, 0)"/><g transform="translate(0 12.158)"><g transform="translate(0 0)"><g transform="translate(0 0)"><path class="b" d="M89.723,26.843a.854.854,0,0,0,.548-.2,24.088,24.088,0,0,1,5.617-3.506.856.856,0,1,0-.7-1.564,25.758,25.758,0,0,0-6.016,3.756.856.856,0,0,0,.55,1.513Z" transform="translate(-79.971 -19.341)"/><path class="b" d="M18.447,112.118a.857.857,0,0,0-1.432-.94,26.053,26.053,0,0,0-2.751,5.676.856.856,0,1,0,1.616.567A24.322,24.322,0,0,1,18.447,112.118Z" transform="translate(-12.814 -99.672)"/><path class="b" d="M2.406,201.009a.857.857,0,0,0-1.681-.329,25.819,25.819,0,0,0,.287,11.169.855.855,0,0,0,.829.647.878.878,0,0,0,.209-.025.856.856,0,0,0,.623-1.04A24.106,24.106,0,0,1,2.406,201.009Z" transform="translate(-0.248 -179.915)"/><path class="b" d="M51.524,175.827a.856.856,0,0,0,.852.782c.025,0,.05,0,.075,0a.855.855,0,0,0,.779-.928,18.842,18.842,0,0,1,1.673-9.569.857.857,0,0,0-1.554-.722A20.554,20.554,0,0,0,51.524,175.827Z" transform="translate(-46.307 -148.342)"/><path class="b" d="M316.35,11.147a24.113,24.113,0,0,1,9.16,4.981.857.857,0,1,0,1.125-1.292A25.841,25.841,0,0,0,316.82,9.5a.856.856,0,1,0-.47,1.647Z" transform="translate(-284.065 -8.517)"/><path class="b" d="M331.884,69.672a.857.857,0,1,0-.725,1.553,18.845,18.845,0,0,1,7.45,6.233.857.857,0,0,0,1.4-.985A20.583,20.583,0,0,0,331.884,69.672Z" transform="translate(-297.502 -62.608)"/><path class="b" d="M70.515,31.72c-2.464-1.424-9.337-4.463-12.167-5.7.007-.109.017-.217.017-.327a5.116,5.116,0,0,0-5.729-5.1c-.725-6.478-1.124-11.036-1.124-12.884,0-6,1.244-6,1.713-6s1.714,0,1.714,6c0,2.06-.279,5.635-.83,10.63a.856.856,0,1,0,1.7.188c.558-5.057.84-8.7.84-10.818,0-4-.415-7.708-3.427-7.708S49.8,3.7,49.8,7.708c0,2.452.618,8.49,1.169,13.376a5.118,5.118,0,0,0-1.885,7.639c-3.111,2.3-8.439,6.212-10.578,7.447-5.189,3-5.814,1.92-6.047,1.514S31.6,36.2,36.792,33.2c1.763-1.018,5.09-2.607,9.621-4.6a.856.856,0,1,0-.689-1.568c-4.652,2.044-7.946,3.618-9.788,4.682-3.466,2-6.466,4.214-4.961,6.821a2.641,2.641,0,0,0,2.456,1.393c1.664,0,3.788-1.043,5.931-2.281,2.273-1.311,7.867-5.429,10.964-7.719a5.135,5.135,0,0,0,7.623-2.219c4.555,1.994,9.785,4.376,11.709,5.488,5.191,3,4.568,4.076,4.334,4.481s-.86,1.482-6.049-1.514c-1.767-1.019-4.805-3.105-8.79-6.033a.856.856,0,1,0-1.014,1.38c4.091,3.007,7.1,5.071,8.947,6.136,2.143,1.238,4.268,2.281,5.933,2.281a2.645,2.645,0,0,0,2.457-1.393C76.982,35.933,73.981,33.721,70.515,31.72Zm-17.289-2.6a3.426,3.426,0,1,1,3.427-3.426A3.429,3.429,0,0,1,53.225,29.119Z" transform="translate(-27.533 0)"/><path class="b" d="M493.188,205.5a.857.857,0,1,0-1.688.294,24.091,24.091,0,0,1,.229,6.617.856.856,0,0,0,.764.94.768.768,0,0,0,.089,0,.857.857,0,0,0,.851-.768A25.851,25.851,0,0,0,493.188,205.5Z" transform="translate(-442.184 -184.24)"/><path class="b" d="M337.5,425.611a24.1,24.1,0,0,1-8.893,5.442.856.856,0,1,0,.555,1.62,25.805,25.805,0,0,0,9.529-5.832.856.856,0,1,0-1.191-1.23Z" transform="translate(-295.132 -382.677)"/><path class="b" d="M436.967,86.551a.856.856,0,0,0-1.3,1.117,24.217,24.217,0,0,1,3.308,4.873.857.857,0,0,0,1.531-.768A25.9,25.9,0,0,0,436.967,86.551Z" transform="translate(-391.781 -77.596)"/><path class="b" d="M266.09,413.446c.025,0,.05,0,.076,0a20.561,20.561,0,0,0,9.956-3.637.857.857,0,0,0-.982-1.4,18.839,18.839,0,0,1-9.125,3.335.856.856,0,0,0,.075,1.709Z" transform="translate(-238.639 -367.273)"/><path class="b" d="M109.669,451.1a24.071,24.071,0,0,1-5.844-3.111.856.856,0,0,0-1,1.387,25.8,25.8,0,0,0,6.26,3.332.866.866,0,0,0,.295.052.857.857,0,0,0,.295-1.661Z" transform="translate(-92.207 -402.878)"/><path class="b" d="M239.625,490.686a24.312,24.312,0,0,1-5.875.428.857.857,0,0,0-.1,1.71q.629.037,1.28.037a27.058,27.058,0,0,0,5.012-.492.856.856,0,0,0-.318-1.683Z" transform="translate(-209.5 -441.425)"/></g></g></g></g></g></svg>