<?xml version="1.0" encoding="utf-8"?>
<!-- Generator: Adobe Illustrator 24.0.3, SVG Export Plug-In . SVG Version: 6.00 Build 0)  -->
<svg version="1.1" id="Camada_1" xmlns="http://www.w3.org/2000/svg" xmlns:xlink="http://www.w3.org/1999/xlink" x="0px" y="0px"
	 viewBox="0 0 83.1 75.6" style="enable-background:new 0 0 83.1 75.6;" xml:space="preserve">
<style type="text/css">
	.st0{fill:#F2F2F2;}
	.st1{fill:#717070;}
</style>
<g transform="translate(-1330.75 -631.29)">
	<path class="st0" d="M1382.8,637.3l23,17.3c4.4,3.3,5.3,9.6,2,14l-22.8,30.3c-3.3,4.4-9.6,5.3-14,2l-23-17.3c-4.4-3.3-5.3-9.6-2-14
		l22.8-30.3C1372.2,634.9,1378.4,634,1382.8,637.3z"/>
</g>
<g>
	<g>
		<path class="st1" d="M3.8,49.8c-0.1,0-0.3-0.1-0.4-0.2C1.8,45.7,1,41.6,1,37.4C1,20.3,14.9,6.4,32,6.4c9.8,0,18.8,4.5,24.8,12.3
			c0.1,0.2,0.1,0.4-0.1,0.5c-0.2,0.1-0.4,0.1-0.5-0.1c-5.8-7.6-14.6-12-24.2-12C15.3,7.1,1.7,20.7,1.7,37.4c0,4.1,0.8,8.1,2.4,11.8
			c0.1,0.2,0,0.4-0.2,0.5C3.9,49.7,3.8,49.8,3.8,49.8z"/>
	</g>
	<g>
		<path class="st1" d="M32,68.5c-10.1,0-19.5-4.9-25.4-13.1c-0.1-0.2-0.1-0.4,0.1-0.5c0.2-0.1,0.4-0.1,0.5,0.1
			c5.7,8,14.9,12.8,24.7,12.8c16.7,0,30.3-13.6,30.3-30.3c0-4.4-0.9-8.7-2.8-12.7c-0.1-0.2,0-0.4,0.2-0.5c0.2-0.1,0.4,0,0.5,0.2
			c1.9,4.1,2.8,8.5,2.8,13C63.1,54.5,49.2,68.5,32,68.5z"/>
	</g>
	<g>
		<g>
			<path class="st1" d="M43.8,55c-1.3,0-2.5-0.5-3.8-1.5c-2.9-2.4-5.5-6.6-6.8-9c-2.1,0-3.9-0.2-5.5-0.7v10.6h-3.3
				c-0.7,0-1.7-0.1-1.7-1.4V30.6h0.8V53c0,0.4,0,0.6,0.9,0.6h2.5V42.8l0.5,0.2c1.6,0.5,3.6,0.8,6,0.8h0.2l0.1,0.2
				c1.2,2.3,3.8,6.6,6.7,9c1.1,0.9,2.1,1.3,3.3,1.3c1.7,0,2.6-0.9,2.6-1.6c0-0.3,0-0.7-0.1-1.1h-0.5c-0.9,0-1.7-0.3-2.6-1.1
				c-1.8-1.4-3.8-3.8-5.7-6.9l-0.3-0.4l0.5-0.1c4.7-1.4,7.4-5.1,7.4-10.1c0-4-1.6-7-4.6-8.9c-0.8-0.5-1.7-0.9-2.7-1.2l0.2-0.7
				c1,0.3,2,0.8,2.9,1.3c3.3,2,5,5.3,5,9.5c0,5.2-2.7,9.1-7.5,10.7c1.8,2.8,3.6,5,5.3,6.3c0.8,0.6,1.5,0.9,2.2,0.9h1.1l0.1,0.3
				c0.2,0.5,0.2,1.1,0.2,1.6C47.2,53.8,45.9,55,43.8,55z M32.4,40.9c-1.8,0-3.5-0.2-5.1-0.6l-0.3-0.1v-8.1h0.8v7.5
				c1.4,0.3,3,0.5,4.6,0.5c5.2,0,8.2-2.6,8.2-7.2c0-2.4-0.8-4.3-2.5-5.5l0.5-0.6c1.8,1.4,2.8,3.5,2.8,6.2
				C41.4,37.9,38,40.9,32.4,40.9z"/>
		</g>
	</g>
	<g>
		<g>
			<path class="st1" d="M21,28.2c1.9,0.9,3.9,1.4,5.9,1.3c2-0.1,4-0.7,5.8-1.8c0.6-0.4,0.9-1,0.9-1.7l-0.1-2.9l-0.6,0L33,26
				c0,0.5-0.2,0.9-0.6,1.1c-3.4,2.1-7.5,2.3-11.1,0.5c-0.4-0.2-0.7-0.6-0.7-1.1L20.5,24l-0.6,0l0.1,2.6C20,27.3,20.4,27.9,21,28.2z"
				/>
		</g>
		<g>
			<path class="st1" d="M16.5,20.8C16.2,21,16,21.3,16,21.7c0,0.4,0.3,0.7,0.6,0.9l9.6,3.9c0.2,0.1,0.4,0.1,0.6,0.1
				c0.2,0,0.4-0.1,0.6-0.2l9.2-4.7c0.4-0.2,0.6-0.5,0.5-0.9c0-0.4-0.3-0.7-0.6-0.9l-8.9-3.6c-0.4-0.2-0.8-0.2-1.2-0.2
				c-0.5,0-1,0.1-1.4,0.3L16.5,20.8z M26.5,16.6L26.5,16.6l9.7,4c0.1,0.1,0.2,0.2,0.2,0.3c0,0.1-0.1,0.3-0.2,0.3L26.9,26l-0.3,0l0,0
				l-9.7-4c-0.2-0.1-0.2-0.2-0.2-0.3c0-0.1,0.1-0.3,0.2-0.3l9.4-4.8L26.5,16.6z"/>
		</g>
		<g>
			<path class="st1" d="M17.2,22.3C17.2,22.3,17.2,22.3,17.2,22.3c-0.1,0-0.2,0-0.2,0.1c-0.1,0.1-0.1,0.1-0.1,0.2l0.2,5.4
				c0,0.1,0,0.2,0.1,0.2c0.1,0.1,0.1,0.1,0.2,0.1c0,0,0,0,0,0c0.1,0,0.2,0,0.2-0.1c0.1-0.1,0.1-0.1,0.1-0.2l-0.2-5.4
				C17.6,22.5,17.4,22.3,17.2,22.3z"/>
		</g>
	</g>
</g>
</svg>
