<svg xmlns="http://www.w3.org/2000/svg" width="69.984" height="69.984" viewBox="0 0 69.984 69.984"><defs><style>.a,.b{fill:#3a3a3a;}.a,.b,.c{stroke:#016198;stroke-width:0.5px;}.b{fill-rule:evenodd;}.c{fill:#fff;}</style></defs><g transform="translate(-452.75 -3949.75)"><g transform="translate(139.718 3581.977)"><g transform="translate(325.596 380.415)"><path class="a" d="M324.283,379.747l-.055-.377.085-.1.255-.23.043.4Z" transform="translate(-324.229 -379.039)"/><g transform="translate(0.023 0.026)"><path class="a" d="M324.277,379.316l.254-.254.018.359,2.306,46.63-.278-.227m-.075-.477L324.249,379.8" transform="translate(-324.249 -379.062)"/></g></g><g transform="translate(355.054 394.967)"><path class="b" d="M350.415,391.975" transform="translate(-350.415 -391.975)"/></g><g transform="translate(313.282 368.023)"><path class="a" d="M348.025,437.507a34.742,34.742,0,1,1,34.741-34.742A34.782,34.782,0,0,1,348.025,437.507Zm0-69.165a34.423,34.423,0,1,0,34.423,34.423A34.463,34.463,0,0,0,348.025,368.342Z" transform="translate(-313.282 -368.023)"/></g><g transform="translate(340.006 397.848)"><path class="a" d="M346.351,401.643l-.066-.024-9.138-3.046a.159.159,0,0,1,.1-.3l9.071,3.024,6.169-3.428a2.188,2.188,0,0,0-.029-3.073.16.16,0,0,1,.249-.2,2.518,2.518,0,0,1-.034,3.53Z" transform="translate(-337.039 -394.536)"/></g><g transform="translate(340.006 394.376)"><path class="a" d="M346.351,398.751l-.066-.022-9.138-3.045a.159.159,0,0,1-.1-.2.157.157,0,0,1,.2-.1l9.071,3.024,6.143-3.412a2.545,2.545,0,0,0-.16-3.284.16.16,0,0,1,.249-.2,2.9,2.9,0,0,1,.135,3.712l-.043.035Z" transform="translate(-337.039 -391.449)"/></g><g transform="translate(340.006 394.376)"><path class="a" d="M346.351,398.751l-.066-.022-9.138-3.045a.159.159,0,0,1-.1-.2.157.157,0,0,1,.2-.1l9.071,3.024,6.143-3.412a2.545,2.545,0,0,0-.16-3.284.16.16,0,0,1,.249-.2,2.9,2.9,0,0,1,.135,3.712l-.043.035Z" transform="translate(-337.039 -391.449)"/></g><g transform="translate(340.006 390.886)"><path class="a" d="M346.351,395.561l-.066-.023-9.138-3.045a.159.159,0,0,1-.1-.2.156.156,0,0,1,.2-.1l9.071,3.024,6.147-3.415a2.369,2.369,0,0,0-.088-3.193.16.16,0,1,1,.249-.2,2.716,2.716,0,0,1,.054,3.63l-.037.029Z" transform="translate(-337.039 -388.347)"/></g><g transform="translate(340.006 394.305)"><path class="a" d="M346.351,395.181l-.066-.023-9.138-3.045a.159.159,0,0,1-.1-.2.156.156,0,0,1,.2-.1l9.071,3.024,6.169-3.428a.158.158,0,0,1,.217.062.16.16,0,0,1-.062.217Z" transform="translate(-337.039 -391.387)"/></g><g transform="translate(340.006 390.725)"><path class="a" d="M346.351,392l-.066-.022-9.138-3.046a.159.159,0,0,1-.1-.2.157.157,0,0,1,.2-.1l9.071,3.024,6.169-3.428a.16.16,0,0,1,.155.279Z" transform="translate(-337.039 -388.204)"/></g><g transform="translate(340.006 390.725)"><path class="a" d="M346.351,392l-.066-.022-9.138-3.046a.159.159,0,0,1-.1-.2.157.157,0,0,1,.2-.1l9.071,3.024,6.169-3.428a.16.16,0,0,1,.155.279Z" transform="translate(-337.039 -388.204)"/></g><path class="a" d="M352.6,385.225a.647.647,0,0,0-.345-.25l-9.055-2.929a.661.661,0,0,0-.575.065l-6.132,3.555a.688.688,0,0,0-.334.7.587.587,0,0,0,.28.453.807.807,0,0,0,.147.08h0c.015.006.026.017.042.022l9.055,2.93a.76.76,0,0,0,.221.034.657.657,0,0,0,.354-.1l3.222-1.871a.16.16,0,1,0-.161-.276l-3.226,1.874a.376.376,0,0,1-.314.036l-9.05-2.929a.813.813,0,0,1-.116-.065c-.006,0-.012-.006-.019-.01v0a.325.325,0,0,1-.125-.269l0-.026c0-.01.007-.019.008-.029a.356.356,0,0,1,.01-.094c.007-.018.02-.023.029-.036a.373.373,0,0,1,.046-.056l0,0a.381.381,0,0,1,.085-.084l6.14-3.558a.347.347,0,0,1,.306-.035l9.065,2.932a.338.338,0,0,1,.182.136,3.171,3.171,0,0,1,.775,1.915,3.371,3.371,0,0,1-.565,1.763.159.159,0,0,0,.276.16,3.659,3.659,0,0,0,.609-1.935A3.519,3.519,0,0,0,352.6,385.225Z" transform="translate(2.857 1.747)"/><path class="c" d="M321.268,391.326" transform="translate(0.998 2.911)"/><path class="a" d="M364.747,423.568l-7.544-12.91a31.208,31.208,0,0,0,6.378-10.368c2.09-5.737,3.08-14.525-3.845-24.085l-.564-.758-.055-.036-.128.323.054.071c13.949,18.438-1.486,34.059-2.151,34.715l-.088.088,7.769,13.3.169.126.089-.091c.031-.032.061-.065.091-.1Z" transform="translate(5.437 0.923)"/><path class="a" d="M338.325,427.989l-.828-16.73,8.7-.434a3.554,3.554,0,0,1,2.692,2.222l2.929,5.443L356,425.964c.045.086.114.207.191.342l.106.189-.007,0,.161.277c.047-.019.094-.035.142-.054l.148-.087-.073-.145h0l-.074-.127-.006,0-.121-.216c-.075-.13-.142-.247-.187-.335l-4.177-7.476-2.924-5.431a3.864,3.864,0,0,0-2.959-2.4l-9.057.448.848,17.146-.015.141.14.031c.072.016.145.026.217.042Z" transform="translate(2.983 5.308)"/></g></g></svg>