<svg xmlns="http://www.w3.org/2000/svg" width="76.944" height="75.608" viewBox="0 0 76.944 75.608"><defs><style>.a{fill:#f2f2f2;}.b{fill:none;stroke:#6d6e71;stroke-linecap:round;stroke-miterlimit:10;stroke-width:0.75px;}.c{isolation:isolate;}.d{fill:#6d6e71;}</style></defs><g transform="translate(-923.625 -631.29)"><g transform="translate(922.208 631.29)"><rect class="a" width="48.81" height="57.891" rx="10" transform="matrix(0.799, 0.602, -0.602, 0.799, 39.38, 0)"/></g><path class="b" d="M64.24,31.14H71a2.229,2.229,0,0,1,2.23,2.23h0V70.66A2.229,2.229,0,0,1,71,72.89H29a2.229,2.229,0,0,1-2.23-2.23h0V33.37A2.229,2.229,0,0,1,29,31.14h6.79" transform="translate(897.25 618.89)"/><line class="b" x2="15.54" transform="translate(939.48 650.03)"/><line class="b" x2="46.5" transform="translate(924 659.89)"/><line class="b" y2="8.24" transform="translate(936.28 646)"/><line class="b" y2="8.24" transform="translate(958.36 646)"/><g class="c" transform="translate(897.25 618.89)"><g class="c"><path class="d" d="M38.059,51.39a1.709,1.709,0,0,1-.529-.528.436.436,0,0,1-.079-.238.255.255,0,0,1,.158-.239l5.66-3.649h.555c.4,0,.529.106.529.45v18.06h-.635c-.4,0-.529-.105-.529-.449V48.005Z"/></g><g class="c"><path class="d" d="M51.681,64.188h8.964c.343,0,.45.132.45.529v.529H49.882a.534.534,0,0,1-.5-.212,1.775,1.775,0,0,1-.238-.661c6.32-3.331,10.657-7.14,10.657-11.714,0-3.119-1.9-5.182-5-5.182a5.181,5.181,0,0,0-5,3.754,1.777,1.777,0,0,1-.794-.264.428.428,0,0,1-.238-.37.585.585,0,0,1,.08-.264,6.385,6.385,0,0,1,6-3.915,5.88,5.88,0,0,1,6.108,6.241C60.962,57.445,56.784,61.253,51.681,64.188Z"/></g></g></g></svg>